<svg viewBox="0 0 32 32" xmlns="http://www.w3.org/2000/svg">
    <path d="M4 8.00002C4 8.73335 4.6 9.33335 5.33333 9.33335H13.3333C14.0667 9.33335 14.6667 8.73335 14.6667 8.00002C14.6667 7.26669 14.0667 6.66669 13.3333 6.66669H5.33333C4.6 6.66669 4 7.26669 4 8.00002ZM13.3333 14.6667H5.33333C4.6 14.6667 4 14.0667 4 13.3334C4 12.6 4.6 12 5.33333 12H13.3333C14.0667 12 14.6667 12.6 14.6667 13.3334C14.6667 14.0667 14.0667 14.6667 13.3333 14.6667ZM5.33333 20H13.3333C14.0667 20 14.6667 19.4 14.6667 18.6667C14.6667 17.9334 14.0667 17.3334 13.3333 17.3334H5.33333C4.6 17.3334 4 17.9334 4 18.6667C4 19.4 4.6 20 5.33333 20ZM5.33333 25.3334H13.3333C14.0667 25.3334 14.6667 24.7334 14.6667 24C14.6667 23.2667 14.0667 22.6667 13.3333 22.6667H5.33333C4.6 22.6667 4 23.2667 4 24C4 24.7334 4.6 25.3334 5.33333 25.3334ZM18.3333 6.66669C17.781 6.66669 17.3333 7.1144 17.3333 7.66669V11C17.3333 11.5523 17.7811 12 18.3333 12H27C27.5523 12 28 11.5523 28 11V7.66669C28 7.1144 27.5523 6.66669 27 6.66669H18.3333ZM17.3333 14.3334C17.3333 13.7811 17.781 13.3334 18.3333 13.3334H27C27.5523 13.3334 28 13.7811 28 14.3334V17.6667C28 18.219 27.5523 18.6667 27 18.6667H18.3333C17.7811 18.6667 17.3333 18.219 17.3333 17.6667V14.3334ZM18.3333 20C17.781 20 17.3333 20.4477 17.3333 21V24.3334C17.3333 24.8856 17.7811 25.3334 18.3333 25.3334H27C27.5523 25.3334 28 24.8856 28 24.3334V21C28 20.4477 27.5523 20 27 20H18.3333Z"/>
</svg>
