<svg viewBox="0 0 22 19" xmlns="http://www.w3.org/2000/svg">
<path fill-rule="evenodd" clip-rule="evenodd" d="M12 11C12 11.552 11.552 12 11 12C10.448 12 10 11.552 10 11V7C10 6.448 10.448 6 11 6C11.552 6 12 6.448 12 7V11ZM11 15C10.448 15 10 14.552 10 14C10 13.448 10.448 13 11 13C11.552 13 12 13.448 12 14C12 14.552 11.552 15 11 15ZM21.561 14.303L13.889 1.584C13.29 0.592 12.21 0 11 0C9.79 0 8.71 0.592 8.111 1.584L0.438997 14.303C-0.129003 15.246 -0.146003 16.38 0.393997 17.336C0.972997 18.363 2.098 19 3.328 19H18.672C19.902 19 21.027 18.363 21.606 17.336C22.146 16.38 22.129 15.246 21.561 14.303Z"/>
</svg>
