<svg viewBox="0 0 20 20" xmlns="http://www.w3.org/2000/svg">
    <path d="M4.16659 10.8337H14.0541L11.0266 14.467C10.7316 14.8203 10.7799 15.3462 11.1333 15.6403C11.4874 15.9353 12.0124 15.887 12.3074 15.5337L16.4741 10.5337C16.5066 10.4945 16.5224 10.4487 16.5466 10.4053C16.5666 10.3703 16.5908 10.3403 16.6058 10.302C16.6433 10.2062 16.6658 10.1053 16.6658 10.0037C16.6658 10.0028 16.6666 10.0012 16.6666 10.0003C16.6666 9.99949 16.6658 9.99783 16.6658 9.99699C16.6658 9.89533 16.6433 9.79449 16.6058 9.69866C16.5908 9.66033 16.5666 9.63033 16.5466 9.59533C16.5224 9.55199 16.5066 9.50616 16.4741 9.46699L12.3074 4.46699C12.1416 4.26949 11.9049 4.16699 11.6666 4.16699C11.4783 4.16699 11.2891 4.23033 11.1333 4.36033C10.7799 4.65449 10.7316 5.18033 11.0266 5.53366L14.0541 9.16699H4.16659C3.70659 9.16699 3.33325 9.54033 3.33325 10.0003C3.33325 10.4603 3.70659 10.8337 4.16659 10.8337Z" />
</svg>
