<svg width="20" height="20" viewBox="0 0 20 20" xmlns="http://www.w3.org/2000/svg">
<path fill-rule="evenodd" clip-rule="evenodd" d="M11.8615 6.31L14.7235 9.31C14.7665 9.355 14.7875 9.411 14.8205 9.461C14.8565 9.515 14.8995 9.563 14.9245 9.623C14.9735 9.744 15.0005 9.872 15.0005 10C15.0005 10.131 14.9735 10.261 14.9235 10.383C14.8725 10.505 14.7995 10.616 14.7065 10.708L11.7075 13.707C11.3165 14.098 10.6835 14.098 10.2935 13.707C9.90249 13.317 9.90249 12.684 10.2935 12.293L11.5865 11H6.00049C5.44749 11 5.00049 10.553 5.00049 10C5.00049 9.448 5.44749 9 6.00049 9H11.6635L10.4145 7.691C10.0335 7.291 10.0475 6.659 10.4475 6.277C10.8475 5.895 11.4805 5.911 11.8615 6.31ZM0.000488281 10C0.000488281 15.515 4.48649 20 10.0005 20C15.5145 20 20.0005 15.515 20.0005 10C20.0005 4.486 15.5145 0 10.0005 0C4.48649 0 0.000488281 4.486 0.000488281 10Z" />
</svg>
