<svg viewBox="0 0 20 20" xmlns="http://www.w3.org/2000/svg">
    <path d="M15.8333 9.16643H5.94575L8.97325 5.53309C9.26825 5.17976 9.21992 4.65393 8.86658 4.35976C8.51242 4.06476 7.98742 4.11309 7.69325 4.46643L3.52659 9.46643C3.49409 9.5056 3.47742 9.55143 3.45325 9.59476C3.43325 9.62976 3.40909 9.65976 3.39409 9.69809C3.35659 9.79393 3.33409 9.89476 3.33409 9.99643C3.33409 9.99726 3.33325 9.99893 3.33325 9.99976C3.33325 10.0006 3.33409 10.0023 3.33409 10.0031C3.33409 10.1048 3.35659 10.2056 3.39409 10.3014C3.40909 10.3398 3.43325 10.3698 3.45325 10.4048C3.47742 10.4481 3.49409 10.4939 3.52659 10.5331L7.69325 15.5331C7.85825 15.7306 8.09492 15.8331 8.33325 15.8331C8.52158 15.8331 8.71075 15.7698 8.86658 15.6398C9.21992 15.3456 9.26825 14.8198 8.97325 14.4664L5.94575 10.8331H15.8333C16.2933 10.8331 16.6666 10.4598 16.6666 9.99976C16.6666 9.53976 16.2933 9.16643 15.8333 9.16643Z" />
</svg>
