<svg width="8" height="8" viewBox="0 0 8 8" xmlns="http://www.w3.org/2000/svg">
<g clip-path="url(#clip0)">
<path d="M7.95182 3.00094C7.96337 2.98967 7.96337 2.96714 7.97493 2.95588C7.97493 2.94461 7.98649 2.93335 7.98649 2.91082C7.98649 2.88829 7.99805 2.87702 7.99805 2.85449V2.84323C7.99805 2.83196 7.99805 2.8207 7.99805 2.80943C7.99805 2.7869 7.99805 2.77564 7.99805 2.75311C7.99805 2.74184 7.99805 2.71931 7.99805 2.70805C7.99805 2.68552 7.99805 2.67425 7.98649 2.66299C7.98649 2.65173 7.97493 2.62919 7.97493 2.61793C7.97493 2.60666 7.96337 2.58414 7.95182 2.57287C7.94026 2.56161 7.94026 2.53908 7.9287 2.52781C7.91714 2.51655 7.91714 2.50528 7.90558 2.48275C7.89402 2.47149 7.88247 2.46022 7.87091 2.43769C7.85935 2.42643 7.85935 2.42643 7.85935 2.41516L6.12563 0.657827C5.92914 0.455057 5.59395 0.443792 5.3859 0.646562C5.17786 0.838066 5.1663 1.16475 5.37434 1.36752L6.19497 2.20113C4.98137 2.18986 3.23608 2.32504 2.14962 3.12485C0.681731 4.19502 0.080707 5.58061 -0.000200146 6.44802C-0.0233165 6.72964 0.18473 6.97747 0.473684 7C0.485243 7 0.508359 7 0.519917 7C0.785755 7 1.01692 6.79723 1.04003 6.53814C1.04003 6.48181 1.17873 5.10749 2.77376 3.9472C3.62906 3.31636 5.20097 3.20371 6.34523 3.22624L5.37434 4.21755C5.17786 4.42032 5.17786 4.73574 5.3859 4.93851C5.48993 5.02863 5.61707 5.08496 5.74421 5.08496C5.8829 5.08496 6.0216 5.02863 6.11407 4.92725L7.85935 3.13612C7.85935 3.13612 7.85935 3.13612 7.85935 3.12485C7.87091 3.11359 7.88247 3.09106 7.89402 3.07979C7.90558 3.06853 7.90558 3.05726 7.91714 3.046C7.94026 3.03473 7.95182 3.02347 7.95182 3.00094Z"/>
</g>
<defs>
<clipPath id="clip0">
<rect width="8" height="8" fill="white"/>
</clipPath>
</defs>
</svg>
