<svg viewBox="0 0 32 32" xmlns="http://www.w3.org/2000/svg">
    <path d="M6.66683 9.33335C5.9335 9.33335 5.3335 8.73335 5.3335 8.00002C5.3335 7.26669 5.9335 6.66669 6.66683 6.66669H25.3335C26.0668 6.66669 26.6668 7.26669 26.6668 8.00002C26.6668 8.73335 26.0668 9.33335 25.3335 9.33335H6.66683ZM6.66683 14.6667H25.3335C26.0668 14.6667 26.6668 14.0667 26.6668 13.3334C26.6668 12.6 26.0668 12 25.3335 12H6.66683C5.9335 12 5.3335 12.6 5.3335 13.3334C5.3335 14.0667 5.9335 14.6667 6.66683 14.6667ZM25.3335 20H6.66683C5.9335 20 5.3335 19.4 5.3335 18.6667C5.3335 17.9334 5.9335 17.3334 6.66683 17.3334H25.3335C26.0668 17.3334 26.6668 17.9334 26.6668 18.6667C26.6668 19.4 26.0668 20 25.3335 20ZM25.3335 25.3334H6.66683C5.9335 25.3334 5.3335 24.7334 5.3335 24C5.3335 23.2667 5.9335 22.6667 6.66683 22.6667H25.3335C26.0668 22.6667 26.6668 23.2667 26.6668 24C26.6668 24.7334 26.0668 25.3334 25.3335 25.3334Z"/>
</svg>
