<svg viewBox="0 0 20 20" xmlns="http://www.w3.org/2000/svg">
<path d="M3.83333 12.3332C3.83333 11.8748 4.20833 11.4998 4.66667 11.4998C5.125 11.4998 5.5 11.8748 5.5 12.3332C5.5 12.7915 5.125 13.1665 4.66667 13.1665C4.20833 13.1665 3.83333 12.7915 3.83333 12.3332ZM8 11.4998H11.3333C11.7917 11.4998 12.1667 11.8748 12.1667 12.3332C12.1667 12.7915 11.7917 13.1665 11.3333 13.1665H8C7.54167 13.1665 7.16667 12.7915 7.16667 12.3332C7.16667 11.8748 7.54167 11.4998 8 11.4998ZM13 15.6665H3C2.54083 15.6665 2.16667 15.2923 2.16667 14.8332V9.83317H13.8333V14.8332C13.8333 15.2923 13.4592 15.6665 13 15.6665ZM3 3.99984H3.83333V4.83317C3.83333 5.2915 4.20833 5.6665 4.66667 5.6665C5.125 5.6665 5.5 5.2915 5.5 4.83317V3.99984H10.5V4.83317C10.5 5.2915 10.875 5.6665 11.3333 5.6665C11.7917 5.6665 12.1667 5.2915 12.1667 4.83317V3.99984H13C13.4592 3.99984 13.8333 4.374 13.8333 4.83317V8.1665H2.16667V4.83317C2.16667 4.374 2.54083 3.99984 3 3.99984ZM13 2.33317H12.1667V1.49984C12.1667 1.0415 11.7917 0.666504 11.3333 0.666504C10.875 0.666504 10.5 1.0415 10.5 1.49984V2.33317H5.5V1.49984C5.5 1.0415 5.125 0.666504 4.66667 0.666504C4.20833 0.666504 3.83333 1.0415 3.83333 1.49984V2.33317H3C1.62167 2.33317 0.5 3.45484 0.5 4.83317V14.8332C0.5 16.2115 1.62167 17.3332 3 17.3332H13C14.3783 17.3332 15.5 16.2115 15.5 14.8332V4.83317C15.5 3.45484 14.3783 2.33317 13 2.33317Z"/>
</svg>
