<svg viewBox="0 0 20 20" xmlns="http://www.w3.org/2000/svg">
<path d="M13.5795 8.00458L9.77283 13.0046C9.61616 13.2104 9.37366 13.3321 9.11533 13.3338H9.10949C8.85366 13.3338 8.61199 13.2154 8.45366 13.0138L6.42699 10.4246C6.14366 10.0629 6.20699 9.53875 6.56949 9.25542C6.93116 8.97125 7.45616 9.03458 7.73949 9.39792L9.10033 11.1363L12.2537 6.99542C12.532 6.62958 13.0545 6.55792 13.422 6.83708C13.7878 7.11625 13.8587 7.63875 13.5795 8.00458ZM10.0003 1.66708C5.39783 1.66708 1.66699 5.39792 1.66699 10.0004C1.66699 14.6021 5.39783 18.3337 10.0003 18.3337C14.6028 18.3337 18.3337 14.6021 18.3337 10.0004C18.3337 5.39792 14.6028 1.66708 10.0003 1.66708Z"/>
</svg>
