<svg viewBox="0 0 20 20" xmlns="http://www.w3.org/2000/svg">
<path d="M13.3337 9.1665H10.8337V6.6665C10.8337 6.20567 10.4603 5.83317 10.0003 5.83317C9.54033 5.83317 9.16699 6.20567 9.16699 6.6665V9.99984C9.16699 10.4607 9.54033 10.8332 10.0003 10.8332H13.3337C13.7945 10.8332 14.167 10.4607 14.167 9.99984C14.167 9.539 13.7945 9.1665 13.3337 9.1665ZM10.0003 16.6665C6.32449 16.6665 3.33366 13.6757 3.33366 9.99984C3.33366 6.324 6.32449 3.33317 10.0003 3.33317C13.6762 3.33317 16.667 6.324 16.667 9.99984C16.667 13.6757 13.6762 16.6665 10.0003 16.6665ZM10.0003 1.6665C5.40533 1.6665 1.66699 5.40484 1.66699 9.99984C1.66699 14.5948 5.40533 18.3332 10.0003 18.3332C14.5953 18.3332 18.3337 14.5948 18.3337 9.99984C18.3337 5.40484 14.5953 1.6665 10.0003 1.6665Z"/>
</svg>
