<svg viewBox="0 0 24 24" xmlns="http://www.w3.org/2000/svg">
    <path d="M5.23156 17.3597L9.70756 11.9887L5.39256 6.62669C5.04656 6.19669 5.11456 5.56769 5.54456 5.22069C5.72956 5.07169 5.95156 4.99969 6.17156 4.99969C6.46356 4.99969 6.75356 5.12769 6.95156 5.37269L11.7796 11.3727C12.0776 11.7437 12.0736 12.2747 11.7686 12.6397L6.76856 18.6397C6.41456 19.0647 5.78456 19.1207 5.35956 18.7677C4.93556 18.4147 4.87856 17.7837 5.23156 17.3597ZM13.768 18.64C13.415 19.064 12.785 19.121 12.36 18.768C11.936 18.414 11.879 17.784 12.232 17.36L16.708 11.989L12.393 6.62699C12.047 6.19699 12.115 5.56699 12.545 5.22099C12.73 5.07199 12.951 4.99999 13.172 4.99999C13.464 4.99999 13.754 5.12699 13.951 5.37299L18.779 11.373C19.078 11.744 19.073 12.274 18.768 12.64L13.768 18.64Z"/>
</svg>
