<svg width="14" height="14" viewBox="0 0 14 14" xmlns="http://www.w3.org/2000/svg">
<path fill-rule="evenodd" clip-rule="evenodd" d="M9.69286 3.62395C9.43969 3.42445 9.07336 3.46995 8.87444 3.7237L4.75903 8.97837L2.78794 6.53012C2.58494 6.27987 2.21861 6.23903 1.96778 6.44145C1.71636 6.64387 1.67728 7.01137 1.87853 7.26162L4.31044 10.2821C4.42186 10.4198 4.58869 10.4997 4.76544 10.4997H4.76953C4.94686 10.4985 5.11486 10.4163 5.22453 10.2757L9.79261 4.44237C9.99153 4.1892 9.94719 3.82228 9.69286 3.62395ZM12.6095 3.62395C12.3558 3.42445 11.99 3.46995 11.7911 3.7237L7.67569 8.97837L7.32336 8.54145L6.58544 9.4847L7.22711 10.2821C7.33852 10.4198 7.50536 10.4997 7.68211 10.4997H7.68619C7.86352 10.4985 8.03152 10.4163 8.14119 10.2757L12.7093 4.44237C12.9082 4.1892 12.8639 3.82228 12.6095 3.62395ZM5.82169 6.67571L5.0826 7.61838L4.7956 7.26196C4.59377 7.01113 4.63285 6.64363 4.88427 6.44121C5.13569 6.23938 5.5026 6.27963 5.70444 6.53046L5.82169 6.67571Z"/>
</svg>
