<svg viewBox="0 0 160 66" xmlns="http://www.w3.org/2000/svg">
    <path d="M158.14 18.64C157.086 14.885 155.302 11.3747 152.89 8.31001C150.728 5.58839 147.929 3.4417 144.74 2.06C141.58 0.704832 138.178 0.00602722 134.74 0.00602722C131.302 0.00602722 127.9 0.704832 124.74 2.06C121.572 3.445 118.799 5.59627 116.67 8.32C114.289 11.3937 112.524 14.8977 111.47 18.64V18.64C110.171 23.3135 109.551 28.1498 109.63 33C109.547 37.8517 110.156 42.6905 111.44 47.37V47.37C112.498 51.1228 114.263 54.6391 116.64 57.73V57.73C118.786 60.4388 121.555 62.5897 124.71 64V64C127.877 65.3251 131.277 66.0075 134.71 66.0075C138.143 66.0075 141.543 65.3251 144.71 64V64C147.886 62.5913 150.68 60.4452 152.86 57.74V57.74C155.256 54.6514 157.035 51.1308 158.1 47.37C159.43 42.6981 160.07 37.857 160 33C160.087 28.148 159.461 23.3096 158.14 18.64V18.64ZM140.64 49.36C139.998 50.4932 139.053 51.4248 137.91 52.05V52.05C137.144 52.4714 136.302 52.7361 135.433 52.8288C134.563 52.9215 133.684 52.8403 132.847 52.5899C132.009 52.3396 131.23 51.9251 130.554 51.3706C129.878 50.816 129.319 50.1326 128.91 49.36C127.868 47.466 127.139 45.4163 126.75 43.29C126.106 39.8992 125.814 36.4508 125.88 33C125.814 29.5525 126.105 26.1074 126.75 22.72C127.139 20.5937 127.868 18.544 128.91 16.65C129.535 15.5281 130.455 14.598 131.57 13.96C132.548 13.4605 133.631 13.2001 134.73 13.2001C135.829 13.2001 136.912 13.4605 137.89 13.96V13.96C139.033 14.5852 139.978 15.5168 140.62 16.65C141.684 18.5332 142.424 20.5817 142.81 22.71V22.71C143.494 26.096 143.809 29.5461 143.75 33C143.818 36.4561 143.512 39.9093 142.84 43.3C142.451 45.4289 141.707 47.4774 140.64 49.36V49.36Z"/>
    <path d="M45 0.630005H30.66L0 40.31L1.44 46.91C1.66613 48.0711 2.32808 49.1016 3.29 49.79V49.79C4.23704 50.45 5.36572 50.7994 6.52 50.79H30.62V65.33H45V50.84H48C48.5803 50.8604 49.1587 50.7628 49.7001 50.5531C50.2416 50.3434 50.7348 50.0259 51.15 49.62V49.62C51.5261 49.2435 51.8234 48.7957 52.0243 48.3029C52.2252 47.8101 52.3257 47.2822 52.32 46.75V38.33H45V0.630005ZM18.53 38.33L30.65 22V38.33H18.53ZM32.67 19C32.67 19.38 32.67 19.75 32.62 20.12C32.62 19.84 32.62 19.57 32.62 19.29C32.66 19.23 32.67 19.14 32.67 19ZM32.6 20.62C32.6 21.1 32.6 21.57 32.6 22.02C32.58 21.61 32.59 21.14 32.6 20.66V20.62Z"/>
    <path d="M98.6 8.31C96.4345 5.58579 93.6322 3.43598 90.44 2.05C87.2797 0.697103 83.8777 -0.000457764 80.44 -0.000457764C77.0023 -0.000457764 73.6003 0.697103 70.44 2.05C67.2724 3.435 64.4991 5.58627 62.37 8.31C59.9894 11.3837 58.2238 14.8877 57.17 18.63V18.63C55.8693 23.3067 55.2496 28.1465 55.33 33C55.2499 37.8522 55.8627 42.691 57.15 47.37V47.37C58.209 51.1206 59.9701 54.6361 62.34 57.73V57.73C64.4833 60.4419 67.2525 62.5934 70.41 64C73.5774 65.3251 76.9766 66.0075 80.41 66.0075C83.8434 66.0075 87.2426 65.3251 90.41 64V64C93.5859 62.5913 96.3799 60.4452 98.56 57.74V57.74C100.963 54.6545 102.746 51.1331 103.81 47.37C105.14 42.6981 105.78 37.857 105.71 33C105.795 28.1547 105.169 23.3232 103.85 18.66C102.794 14.8996 101.011 11.383 98.6 8.31V8.31ZM86.34 49.36C85.7049 50.4985 84.7578 51.4318 83.61 52.05C82.6279 52.5493 81.5418 52.8097 80.44 52.81C79.345 52.8065 78.2661 52.5462 77.29 52.05C76.1751 51.412 75.2554 50.482 74.63 49.36C73.5883 47.466 72.8589 45.4163 72.47 43.29C71.8227 39.8995 71.5278 36.4512 71.59 33C71.5236 29.5525 71.8152 26.1073 72.46 22.72C72.8489 20.5937 73.5783 18.544 74.62 16.65C75.2454 15.528 76.1651 14.598 77.28 13.96C78.2561 13.4638 79.335 13.2035 80.43 13.2C81.5318 13.2003 82.6179 13.4607 83.6 13.96V13.96C84.7477 14.5782 85.6949 15.5115 86.33 16.65C87.3979 18.5324 88.1416 20.5809 88.53 22.71V22.71C89.2162 26.0955 89.5281 29.5463 89.46 33C89.53 36.4566 89.2215 39.9105 88.54 43.3V43.3C88.1516 45.4291 87.4079 47.4776 86.34 49.36Z"/>
</svg>
