<svg viewBox="0 0 160 66" xmlns="http://www.w3.org/2000/svg">
    <path d="M98.67 8.33C96.5635 5.60998 93.8146 3.45553 90.67 2.06C87.5884 0.701831 84.2576 0.000404358 80.89 0.000404358C77.5224 0.000404358 74.1916 0.701831 71.11 2.06C67.9981 3.46373 65.2861 5.62237 63.22 8.34C60.8879 11.4255 59.167 14.9284 58.15 18.66V18.66C56.8958 23.3339 56.3099 28.1618 56.41 33C56.3268 37.8419 56.9192 42.6717 58.17 47.35V47.35C59.2028 51.0848 60.9221 54.5947 63.24 57.7V57.7C65.3211 60.4079 68.0287 62.5698 71.13 64V64C74.2165 65.3261 77.5407 66.01 80.9 66.01C84.2593 66.01 87.5835 65.3261 90.67 64C93.8021 62.5884 96.5467 60.4407 98.67 57.74C101.022 54.6415 102.76 51.1216 103.79 47.37C105.075 42.6907 105.684 37.8518 105.6 33C105.685 28.1647 105.075 23.3422 103.79 18.68C102.767 14.932 101.028 11.4174 98.67 8.33V8.33ZM86.54 49.22C85.9603 50.3227 85.0795 51.2382 84 51.86V51.86C83.0748 52.3473 82.0457 52.6046 81 52.61C79.9554 52.605 78.9271 52.3513 78 51.87C76.9302 51.2391 76.0548 50.3257 75.47 49.23C74.4613 47.3527 73.756 45.3277 73.38 43.23C72.7302 39.8596 72.422 36.4323 72.46 33C72.3954 29.5771 72.6768 26.1564 73.3 22.79C73.676 20.6923 74.3813 18.6673 75.39 16.79C75.9748 15.6943 76.8502 14.7809 77.92 14.15C78.8471 13.6687 79.8754 13.415 80.92 13.41C81.9657 13.4154 82.9948 13.6727 83.92 14.16V14.16C85.018 14.7743 85.9168 15.6905 86.51 16.8C87.5465 18.6677 88.2631 20.6957 88.63 22.8C89.2921 26.1585 89.6005 29.5772 89.55 33C89.6151 36.4347 89.3202 39.8668 88.67 43.24V43.24C88.2978 45.338 87.5779 47.3591 86.54 49.22V49.22Z"/>
    <path d="M43.93 0.629997H29.85L0 40.24L1.41 46.88C1.63196 48.0617 2.29289 49.1156 3.26 49.83V49.83C4.19787 50.4933 5.32135 50.8433 6.47 50.83H29.78V65.33H43.93V50.9H46.69C47.2746 50.9221 47.8574 50.8223 48.4014 50.6071C48.9454 50.3919 49.4387 50.066 49.85 49.65V49.65C50.6044 48.8549 51.0173 47.7959 51 46.7V38.18H43.93V0.629997ZM18.4 38.18L29.78 22.48V38.18H18.4ZM31.87 19.1C31.87 19.51 31.87 19.9 31.87 20.3C31.87 20.07 31.87 19.85 31.87 19.62C31.87 19.39 31.87 19.27 31.87 19.1ZM31.81 20.75C31.81 21.21 31.81 21.67 31.81 22.11C31.79 21.67 31.8 21.21 31.81 20.75V20.75Z"/>
    <path d="M152.91 38.18V0.629997H138.83L109 40.24L110.41 46.88C110.636 48.0602 111.296 49.1129 112.26 49.83V49.83C113.197 50.4945 114.321 50.8447 115.47 50.83H138.75V65.33H152.9V50.9H155.66C156.225 50.9259 156.789 50.8361 157.318 50.6361C157.847 50.436 158.33 50.1299 158.736 49.7366C159.143 49.3432 159.465 48.871 159.682 48.3488C159.899 47.8266 160.007 47.2655 160 46.7V38.18H152.91ZM127.38 38.18L138.76 22.48V38.18H127.38ZM140.85 19.1C140.85 19.49 140.85 19.88 140.85 20.26C140.85 20.05 140.85 19.84 140.85 19.62V19.1ZM140.78 20.77C140.78 21.22 140.78 21.67 140.78 22.11C140.77 21.67 140.77 21.22 140.78 20.77V20.77Z"/>
</svg>
