<svg viewBox="0 0 160 66" xmlns="http://www.w3.org/2000/svg">
    <path d="M45.08 1.3H30.75L0 41L1.44 47.6C1.67525 48.7546 2.34004 49.7768 3.3 50.46V50.46C4.25186 51.1178 5.38299 51.4669 6.54 51.46H30.74V66H45.08V51.51H48.08C48.6622 51.5335 49.2429 51.4374 49.7865 51.2276C50.33 51.0177 50.8247 50.6986 51.24 50.29V50.29C51.6161 49.9135 51.9134 49.4657 52.1143 48.9729C52.3152 48.4801 52.4157 47.9522 52.41 47.42V39H45.08V1.3ZM18.58 39L30.74 22.69V39H18.58ZM32.77 19.7C32.77 20.08 32.77 20.45 32.72 20.82V19.99C32.76 19.9 32.76 19.81 32.77 19.71V19.7ZM32.7 21.32C32.7 21.8 32.7 22.32 32.7 22.72C32.68 22.28 32.69 21.81 32.7 21.33V21.32Z"/>
    <path d="M156.89 35.31C155.526 33.6002 153.824 32.1907 151.89 31.17L152.35 30.89C155.168 29.1596 157.221 26.4204 158.09 23.23C158.594 21.4001 158.837 19.5079 158.81 17.61C158.825 15.2285 158.306 12.874 157.29 10.72C156.29 8.55175 154.825 6.62977 153 5.09C151.015 3.42522 148.726 2.16182 146.26 1.37C143.449 0.421958 140.497 -0.041307 137.53 -3.41935e-06C134.642 -0.0182987 131.767 0.392862 129 1.22C126.405 1.9778 123.973 3.21217 121.83 4.86C119.671 6.53479 117.866 8.62186 116.52 11C115.067 13.6123 114.107 16.47 113.69 19.43L113.41 21.23L121.6 22.64C123.277 22.9932 125.023 22.8221 126.6 22.15V22.15C128.015 21.2879 129.078 19.9521 129.6 18.38V18.3V18.22C129.797 17.5324 130.115 16.8855 130.54 16.31C130.972 15.7159 131.492 15.1901 132.08 14.75C132.714 14.3168 133.408 13.9798 134.14 13.75V13.75C134.976 13.4786 135.851 13.3468 136.73 13.36C137.579 13.2897 138.433 13.3887 139.244 13.6514C140.054 13.914 140.804 14.3351 141.45 14.89V14.89C142.45 15.83 143.06 17.32 143.06 19.66C143.072 20.6392 142.917 21.6133 142.6 22.54V22.54C142.351 23.2783 141.884 23.9235 141.26 24.39C140.296 25.0754 139.199 25.5522 138.04 25.79C136.069 26.2119 134.055 26.4032 132.04 26.36H130.1V38.25H132.04C134.389 38.1901 136.737 38.3947 139.04 38.86V38.86C140.246 39.0582 141.388 39.5416 142.37 40.27V40.27C142.97 40.7417 143.391 41.4054 143.56 42.15C143.808 43.2558 143.926 44.3868 143.91 45.52C143.899 46.3994 143.719 47.2685 143.38 48.08V48.08C143.055 48.9264 142.558 49.696 141.92 50.34C141.191 51.041 140.336 51.5975 139.4 51.98C138.247 52.4289 137.017 52.6431 135.78 52.61C134.796 52.6319 133.815 52.4865 132.88 52.18C132.096 51.9047 131.363 51.5027 130.71 50.99C130.003 50.4007 129.368 49.7293 128.82 48.99C128.202 48.1147 127.638 47.2031 127.13 46.26C126.729 45.5262 126.167 44.8924 125.486 44.4058C124.806 43.9193 124.024 43.5926 123.2 43.45C121.515 43.1353 119.774 43.3303 118.2 44.01V44.01L111.2 46.78L111.79 48.44C112.69 51.0612 113.873 53.5762 115.32 55.94V55.94C116.641 58.0686 118.335 59.9419 120.32 61.47V61.47C122.391 62.986 124.718 64.1173 127.19 64.81C130.102 65.6277 133.115 66.0283 136.14 66C139.139 66.0078 142.123 65.5834 145 64.74C147.785 63.9237 150.388 62.583 152.67 60.79C154.899 59.0218 156.718 56.7904 158 54.25V54.25C159.361 51.4474 160.046 48.365 160 45.25C160.125 41.6793 159.027 38.1729 156.89 35.31V35.31ZM157 39.2C156.9 38.97 156.8 38.75 156.69 38.52C156.75 38.75 156.85 39 157 39.2ZM158.11 45.2C158.11 44.78 158.11 44.38 158.11 43.98C158.05 44.38 158.06 44.78 158.06 45.2H158.11ZM158 43.6C158 43.34 157.95 43.08 157.92 42.82C157.94 43.08 158 43.34 158 43.6ZM157.85 42.38L157.73 41.7L157.85 42.38ZM157.63 41.26C157.58 41.04 157.52 40.83 157.46 40.62C157.51 40.83 157.57 41 157.62 41.26H157.63ZM157.33 40.2C157.26 39.99 157.18 39.78 157.1 39.57C157.17 39.78 157.25 40 157.32 40.2H157.33ZM155.89 37.2C155.73 36.96 155.57 36.73 155.4 36.5C155.56 36.73 155.72 37 155.88 37.2H155.89ZM156.52 38.2C156.35 37.89 156.18 37.59 156 37.3C156.17 37.64 156.34 37.94 156.51 38.25L156.52 38.2ZM155.16 36.2C155.02 36.02 154.87 35.85 154.72 35.68C154.86 35.87 155 36 155.15 36.22L155.16 36.2ZM154.43 35.38C154.28 35.22 154.13 35.07 153.97 34.92C154.12 35.09 154.27 35.24 154.42 35.4L154.43 35.38ZM150 30.08L149.84 30.17L149.66 30.25L150 30.08ZM148.85 30.61L148.48 30.76L148.85 30.61ZM149.85 32.23C150.2 32.39 150.55 32.56 150.85 32.74C150.5 32.56 150.14 32.38 149.77 32.21L149.85 32.23ZM148.96 31.85L148.55 31.68L148.96 31.85ZM151.88 33.33C151.63 33.17 151.37 33.02 151.11 32.87C151.33 33 151.59 33.17 151.84 33.33H151.88ZM153.67 34.65L153.16 34.23L153.67 34.65ZM152.81 33.96L152.22 33.55L152.81 33.96ZM116.52 15.82C116.38 16.26 116.25 16.72 116.13 17.18C116.25 16.72 116.38 16.26 116.52 15.82ZM118.22 11.9C117.93 12.41 117.66 12.9 117.41 13.5C117.66 13 117.93 12.41 118.22 11.9ZM117.22 14C117.047 14.4 116.887 14.81 116.74 15.23C116.88 14.81 117.033 14.4 117.2 14H117.22ZM115.92 18.11C115.92 18.03 115.92 17.95 115.92 17.88C115.92 17.81 115.92 17.76 115.92 17.7C115.77 18.35 115.63 19.02 115.52 19.7C115.69 19.16 115.79 18.63 115.9 18.11H115.92Z"/>
    <path d="M100.77 8.31C98.5948 5.58729 95.7865 3.43813 92.59 2.05C89.4165 0.69386 86.0011 -0.00530243 82.55 -0.00530243C79.0989 -0.00530243 75.6835 0.69386 72.51 2.05C69.3337 3.43438 66.5505 5.58532 64.41 8.31C62.0213 11.3838 60.2519 14.892 59.2 18.64V18.64C57.9021 23.3135 57.2891 28.1505 57.38 33C57.296 37.8458 57.909 42.6786 59.2 47.35V47.35C60.2575 51.105 62.0262 54.622 64.41 57.71V57.71C66.5594 60.4289 69.3352 62.5871 72.5 64C75.6793 65.3266 79.0901 66.0096 82.535 66.0096C85.98 66.0096 89.3907 65.3266 92.57 64V64C95.7564 62.5947 98.5609 60.4485 100.75 57.74V57.74C103.157 54.6537 104.941 51.1281 106 47.36C107.334 42.6924 107.974 37.8539 107.9 33C107.98 28.1458 107.339 23.3065 106 18.64C104.952 14.8866 103.175 11.3765 100.77 8.31V8.31ZM88.48 49.36C87.8387 50.4972 86.8888 51.4298 85.74 52.05V52.05C84.7579 52.5493 83.6718 52.8097 82.57 52.81C81.3739 52.8322 80.1952 52.5213 79.1656 51.912C78.1361 51.3027 77.2962 50.4192 76.74 49.36C75.6988 47.4648 74.9662 45.4158 74.57 43.29C73.9193 39.8999 73.6211 36.4515 73.68 33C73.6136 29.5525 73.9052 26.1073 74.55 22.72C74.9462 20.5942 75.6788 18.5452 76.72 16.65C77.5771 15.1206 78.9956 13.9847 80.6753 13.4827C82.3551 12.9806 84.1642 13.1518 85.72 13.96V13.96C86.8688 14.5802 87.8187 15.5128 88.46 16.65C89.5279 18.5324 90.2716 20.5809 90.66 22.71V22.71C91.3439 26.096 91.6591 29.5461 91.6 33C91.6675 36.4561 91.3624 39.9093 90.69 43.3V43.3C90.2985 45.4297 89.5514 47.4783 88.48 49.36Z"/>
</svg>
