<svg viewBox="0 0 160 66" xmlns="http://www.w3.org/2000/svg">
    <path d="M103.14 8.31C100.84 5.56535 97.9097 3.41765 94.6 2.05C87.8889 -0.68992 80.3711 -0.68992 73.66 2.05C70.3751 3.41656 67.4742 5.56564 65.21 8.31C62.7391 11.3596 60.8939 14.8665 59.78 18.63V18.63C58.4274 23.2972 57.7869 28.1417 57.88 33C57.7932 37.8579 58.4337 42.7015 59.78 47.37V47.37C60.8985 51.1438 62.743 54.663 65.21 57.73V57.73C67.4823 60.464 70.3764 62.6139 73.65 64V64C80.3752 66.6851 87.8748 66.6851 94.6 64V64C97.8922 62.6114 100.811 60.4668 103.12 57.74V57.74C105.616 54.6809 107.479 51.1559 108.6 47.37C109.985 42.7083 110.649 37.8624 110.57 33C110.663 28.148 110.005 23.3109 108.62 18.66C107.508 14.8765 105.644 11.3562 103.14 8.31V8.31ZM90.32 49.36C89.6385 50.5077 88.6472 51.44 87.46 52.05V52.05C86.4299 52.5499 85.2999 52.8096 84.155 52.8096C83.0101 52.8096 81.88 52.5499 80.85 52.05C79.6959 51.4229 78.7347 50.4928 78.07 49.36C76.9851 47.4761 76.2213 45.4247 75.81 43.29C75.1282 39.9038 74.8164 36.4536 74.88 33C74.8088 29.5504 75.114 26.1034 75.79 22.72C76.2013 20.5853 76.9651 18.5339 78.05 16.65C78.7147 15.5172 79.6759 14.5871 80.83 13.96C81.8601 13.4601 82.9901 13.2004 84.135 13.2004C85.2799 13.2004 86.41 13.4601 87.44 13.96V13.96C88.6272 14.57 89.6185 15.5023 90.3 16.65C91.407 18.5229 92.1817 20.5731 92.59 22.71V22.71C93.3052 26.0918 93.634 29.544 93.57 33C93.6423 36.4582 93.3236 39.9134 92.62 43.3V43.3C92.2086 45.4375 91.4305 47.4878 90.32 49.36Z"/>
    <path d="M148.59 53.07V0.630001H135.51L113.22 18.08L118.32 24.41C118.713 24.8526 119.168 25.2365 119.67 25.55V25.55C120.296 25.8954 120.97 26.1448 121.67 26.29H121.79C122.587 26.4151 123.4 26.3948 124.19 26.23C125.116 26.0359 125.991 25.6511 126.76 25.1V25.1L131.94 21.1V53.07H119V65.33H160V53.07H148.59ZM134.11 19.38C134.11 20.13 134.06 20.87 134.06 21.6C134.06 20.95 134.06 20.28 134.06 19.6L134.11 19.38Z"/>
    <path d="M47 0.630001H32L0 40.31L1.5 46.91C1.74953 48.0849 2.44495 49.1173 3.44 49.79V49.79C4.43645 50.4563 5.61142 50.8049 6.81 50.79H32.06V65.33H47V50.84H50.11C51.3282 50.8867 52.5151 50.4479 53.41 49.62V49.62C53.7952 49.2477 54.1016 48.8018 54.3112 48.3088C54.5208 47.8158 54.6292 47.2857 54.63 46.75V38.33H47V0.630001ZM19.38 38.33L32.06 22V38.33H19.38ZM34.17 19C34.17 19.38 34.17 19.75 34.12 20.13C34.12 19.85 34.12 19.57 34.12 19.29C34.16 19.23 34.17 19.14 34.17 19ZM34.1 20.62C34.1 21.1 34.1 21.57 34.1 22.02C34.08 21.61 34.09 21.14 34.1 20.66V20.62Z"/>
</svg>
