<svg viewBox="0 0 20 20" xmlns="http://www.w3.org/2000/svg">
    <path d="M6.66671 4.16666C6.66671 4.62499 6.29171 4.99999 5.83337 4.99999H5.00004V15H5.83337C6.29171 15 6.66671 15.375 6.66671 15.8333C6.66671 16.2917 6.29171 16.6667 5.83337 16.6667H4.16671C3.70837 16.6667 3.33337 16.2917 3.33337 15.8333V4.16666C3.33337 3.70833 3.70837 3.33333 4.16671 3.33333H5.83337C6.29171 3.33333 6.66671 3.70833 6.66671 4.16666ZM15.0033 6.18733L17.3483 9.52066C17.5566 9.81566 17.55 10.2115 17.3333 10.4998L14.8333 13.8332C14.67 14.0515 14.4191 14.1665 14.1658 14.1665C13.9925 14.1665 13.8166 14.1123 13.6666 13.9998C13.2983 13.724 13.2241 13.2015 13.5 12.834L15.0008 10.8332H15H8.33329C7.87329 10.8332 7.49996 10.4607 7.49996 9.99983C7.49996 9.53899 7.87329 9.16649 8.33329 9.16649H15C15.0137 9.16649 15.0265 9.17029 15.0394 9.17412C15.0498 9.17723 15.0604 9.18037 15.0716 9.1815L13.64 7.14566C13.375 6.76983 13.4658 6.24983 13.8425 5.98483C14.2183 5.719 14.7383 5.81066 15.0033 6.18733Z"/>
</svg>
