<svg width="20" height="20" viewBox="0 0 20 20" xmlns="http://www.w3.org/2000/svg">
<path fill-rule="evenodd" clip-rule="evenodd" d="M16.1728 14.9944L17.2562 16.0777C17.582 16.4035 17.582 16.9302 17.2562 17.256C17.0937 17.4185 16.8803 17.5002 16.667 17.5002C16.4537 17.5002 16.2403 17.4185 16.0778 17.256L13.822 15.0002L13.3337 14.5119L12.2128 13.391L12.1553 13.3335L10.0701 11.2483C10.047 11.2496 10.0237 11.2502 10.0003 11.2502C9.31116 11.2502 8.75033 10.6894 8.75033 10.0002C8.75033 9.97681 8.75097 9.95355 8.75225 9.93046L6.06949 7.24771L4.61033 5.78854L2.74449 3.92271C2.41866 3.59687 2.41866 3.07021 2.74449 2.74437C3.07033 2.41854 3.59699 2.41854 3.92283 2.74437L5.35033 4.17187L6.57116 5.39271L9.93058 8.75213C9.95367 8.75085 9.97692 8.75021 10.0003 8.75021C10.6895 8.75021 11.2503 9.31104 11.2503 10.0002C11.2503 10.0236 11.2497 10.0469 11.2484 10.07L14.512 13.3335L16.1728 14.9944ZM7.16099 4.80371L9.49183 7.13454C9.65766 7.10537 9.82599 7.08371 10.0002 7.08371C11.6085 7.08371 12.9168 8.39204 12.9168 10.0004C12.9168 10.1745 12.8952 10.3429 12.866 10.5087L15.101 12.7445L15.796 13.4395C17.0643 12.2829 17.8777 11.017 18.2235 10.4145C18.3702 10.1579 18.3702 9.84204 18.2235 9.58537C17.6918 8.65871 14.7552 4.01371 9.77516 4.16954C8.78849 4.19538 7.89516 4.40788 7.08516 4.72871L7.16099 4.80371ZM11.6237 13.9811L12.7445 15.1011L12.9153 15.272C12.1053 15.5928 11.2128 15.8053 10.2262 15.8303C10.1578 15.8328 10.0887 15.8336 10.0212 15.8336C5.13533 15.8336 2.30199 11.3295 1.77699 10.4145C1.63033 10.1578 1.63033 9.84196 1.77699 9.58529C2.12283 8.98362 2.93616 7.71779 4.20449 6.56113L5.48033 7.83779L7.13533 9.49196C7.10533 9.65779 7.08366 9.82613 7.08366 10.0003C7.08366 11.6086 8.39199 12.917 10.0003 12.917C10.1745 12.917 10.3428 12.8953 10.5087 12.8653L11.5662 13.9228L11.6237 13.9811Z"/>
</svg>
