<svg width="12" height="16" viewBox="0 0 12 16" xmlns="http://www.w3.org/2000/svg">
<path fill-rule="evenodd" clip-rule="evenodd" d="M10.083 14H1.91625C1.68675 14 1.5 13.832 1.5 13.625V2.375C1.5 2.168 1.68675 2 1.91625 2H5.25V5.1125C5.25 6.2915 6.16275 7.25 7.2855 7.25H10.5V13.625C10.5 13.832 10.3125 14 10.083 14ZM10.2367 5.75H7.2855C6.99 5.75 6.75 5.46425 6.75 5.1125V2H6.834L10.2367 5.75ZM11.805 5.246L7.722 0.746C7.58025 0.58925 7.3785 0.5 7.16625 0.5H1.91625C0.8595 0.5 0 1.3415 0 2.375V13.625C0 14.6585 0.8595 15.5 1.91625 15.5H10.083C11.1398 15.5 12 14.6585 12 13.625V5.75C12 5.56325 11.9303 5.384 11.805 5.246Z"/>
</svg>
