<svg viewBox="0 0 16 20" fill="none" xmlns="http://www.w3.org/2000/svg">
<path fill-rule="evenodd" clip-rule="evenodd" d="M10.7139 6C10.3199 6 9.99988 5.619 9.99988 5.15V1.978L13.7419 6H10.7139ZM10.9999 16H4.99988C4.44788 16 3.99988 15.552 3.99988 15C3.99988 14.448 4.44788 14 4.99988 14H10.9999C11.5529 14 11.9999 14.448 11.9999 15C11.9999 15.552 11.5529 16 10.9999 16ZM4.99988 10H7.99988C8.55188 10 8.99988 10.448 8.99988 11C8.99988 11.552 8.55188 12 7.99988 12H4.99988C4.44788 12 3.99988 11.552 3.99988 11C3.99988 10.448 4.44788 10 4.99988 10ZM15.7399 5.328L11.2959 0.328C11.1069 0.119 10.8379 0 10.5559 0H2.55588C1.14688 0 -0.00012207 1.122 -0.00012207 2.5V17.5C-0.00012207 18.878 1.14688 20 2.55588 20H13.4439C14.8539 20 15.9999 18.878 15.9999 17.5V6C15.9999 5.751 15.9069 5.512 15.7399 5.328Z" fill="white"/>
</svg>
