<svg xmlns="http://www.w3.org/2000/svg" viewBox="0 0 1000 1000">
<g><path d="M348.5,49.1"/>
  <path
    d="M146.1,816.8c1.4,7.7,2.4,15.4,4.2,23c13.9,59.4,66.8,105,127.6,110.2c1.5,0.1,2.9,0.6,4.4,0.9c-45.4,0-90.7,0-136.1,0C146.1,906.2,146.1,861.5,146.1,816.8z"/>
  <path
    d="M502.6,459.7c60.5-38.7,96.5-103.2,96.5-173.3c0-114.5-96-207.6-214-207.6c-118,0-214,93.1-214,207.6c0,70.2,36,134.7,96.5,173.3C117,508.6,13.6,643.3,10,796.2c-0.2,7.1,2.5,13.8,7.6,18.9c5,5.1,11.8,8,19.1,8.2l1.2,0c14.4,0,26.5-11.6,26.8-25.9C68.6,630.1,212.4,494,385.2,494c172.8,0,316.6,136.1,320.5,303.4c0.3,14.3,12.6,25.9,27.9,25.9c7.1,0,13.8-2.8,18.9-7.8c5.2-5.1,8-12.2,7.8-19.3C756.7,643.3,653.3,508.6,502.6,459.7z M385.2,441c-87.9,0-159.3-69.3-159.3-154.6c0-85.3,71.5-154.6,159.3-154.6c87.9,0,159.3,69.4,159.3,154.6C544.5,371.6,473,441,385.2,441z M814.4,532.5c32.5-33.9,51-78.7,51-126.3c0-105.1-102.8-180.9-198.9-185.7c-15.3-1.1-28.5,10.7-29.3,25.7c-0.8,15,11.1,27.7,26.5,28.5c69,3.4,145.9,58.3,145.9,131.5c0,45.4-23.7,87-63.5,111.4c-9.2,5.6-14.1,15.9-12.8,26.3c1.4,10.4,8.8,19.2,19.1,22.4c106.1,33.2,179.1,127.8,181.7,235.4c0.3,14.8,12.8,26.5,27.9,26.5c0.2,0,0.4,0,0.7,0c15.4-0.3,27.6-12.8,27.3-27.7C987.3,685.6,918.5,583,814.4,532.5z"/></g>
</svg>
