<svg viewBox="0 0 139 152" xmlns="http://www.w3.org/2000/svg">
<path d="M0.5 38.296L69.282 0.57027L137.524 38L0.5 113.155V38.296Z" fill="#352F2F" fill-opacity="0.27" stroke="#0B73D3"/>
<path d="M13.3472 50.6626H8.27541V56H6.68166V43.9141H14.169V45.2256H8.27541V49.3594H13.3472V50.6626ZM22.6829 48.3965C22.4505 48.3577 22.1987 48.3384 21.9275 48.3384C20.9204 48.3384 20.2369 48.7673 19.8772 49.625V56H18.3416V47.0186H19.8357L19.8606 48.0562C20.3642 47.2537 21.0781 46.8525 22.0022 46.8525C22.3011 46.8525 22.528 46.8913 22.6829 46.9688V48.3965ZM26.2496 51.4263C26.2496 50.5464 26.4211 49.755 26.7642 49.0522C27.1129 48.3494 27.5943 47.8071 28.2086 47.4253C28.8284 47.0435 29.5339 46.8525 30.3253 46.8525C31.5483 46.8525 32.536 47.2759 33.2887 48.1226C34.0468 48.9692 34.4259 50.0954 34.4259 51.501V51.6089C34.4259 52.4832 34.2571 53.269 33.9195 53.9663C33.5875 54.658 33.1088 55.1976 32.4835 55.585C31.8637 55.9723 31.1498 56.166 30.3419 56.166C29.1244 56.166 28.1366 55.7427 27.3785 54.896C26.6259 54.0493 26.2496 52.9287 26.2496 51.5342V51.4263ZM27.7935 51.6089C27.7935 52.605 28.0232 53.4046 28.4825 54.0078C28.9473 54.611 29.5671 54.9126 30.3419 54.9126C31.1221 54.9126 31.7419 54.6082 32.2013 53.9995C32.6606 53.3853 32.8902 52.5275 32.8902 51.4263C32.8902 50.4412 32.655 49.6444 32.1846 49.0356C31.7198 48.4214 31.1 48.1143 30.3253 48.1143C29.5671 48.1143 28.9556 48.4159 28.4908 49.019C28.026 49.6222 27.7935 50.4855 27.7935 51.6089ZM40.5243 47.0186L40.5741 48.1475C41.2603 47.2842 42.1568 46.8525 43.2635 46.8525C45.1616 46.8525 46.119 47.9233 46.1356 50.0649V56H44.6V50.0566C44.5944 49.4092 44.445 48.9305 44.1517 48.6206C43.864 48.3107 43.4129 48.1558 42.7987 48.1558C42.3006 48.1558 41.8635 48.2886 41.4872 48.5542C41.1109 48.8198 40.8176 49.1685 40.6073 49.6001V56H39.0716V47.0186H40.5243ZM53.255 44.8438V47.0186H54.9318V48.2056H53.255V53.7754C53.255 54.1351 53.3297 54.4062 53.4791 54.5889C53.6286 54.766 53.8831 54.8545 54.2428 54.8545C54.4199 54.8545 54.6634 54.8213 54.9733 54.7549V56C54.5693 56.1107 54.1764 56.166 53.7946 56.166C53.1084 56.166 52.591 55.9585 52.2423 55.5435C51.8937 55.1284 51.7194 54.5391 51.7194 53.7754V48.2056H50.0841V47.0186H51.7194V44.8438H53.255ZM63.1801 56.166C61.9626 56.166 60.9721 55.7676 60.2084 54.9707C59.4447 54.1683 59.0629 53.0975 59.0629 51.7583V51.4761C59.0629 50.5851 59.2317 49.791 59.5693 49.0938C59.9124 48.391 60.3883 47.8431 60.997 47.4502C61.6112 47.0518 62.2753 46.8525 62.9892 46.8525C64.1568 46.8525 65.0644 47.2371 65.7118 48.0063C66.3593 48.7756 66.683 49.8768 66.683 51.3101V51.9492H60.5986C60.6207 52.8346 60.878 53.5513 61.3705 54.0991C61.8686 54.6414 62.4994 54.9126 63.2631 54.9126C63.8054 54.9126 64.2647 54.8019 64.641 54.5806C65.0173 54.3592 65.3466 54.0659 65.6288 53.7007L66.5668 54.4312C65.8142 55.5877 64.6853 56.166 63.1801 56.166ZM62.9892 48.1143C62.3694 48.1143 61.8492 48.3411 61.4286 48.7949C61.0081 49.2432 60.748 49.874 60.6484 50.6875H65.1474V50.5713C65.1031 49.791 64.8928 49.1878 64.5165 48.7617C64.1402 48.3301 63.6311 48.1143 62.9892 48.1143ZM72.6403 47.0186L72.6901 48.1475C73.3763 47.2842 74.2728 46.8525 75.3796 46.8525C77.2777 46.8525 78.2351 47.9233 78.2517 50.0649V56H76.716V50.0566C76.7105 49.4092 76.5611 48.9305 76.2678 48.6206C75.98 48.3107 75.529 48.1558 74.9147 48.1558C74.4167 48.1558 73.9795 48.2886 73.6032 48.5542C73.2269 48.8198 72.9336 49.1685 72.7233 49.6001V56H71.1877V47.0186H72.6403ZM82.914 51.4346C82.914 50.0566 83.2405 48.9499 83.8935 48.1143C84.5465 47.2731 85.4015 46.8525 86.4585 46.8525C87.5099 46.8525 88.3428 47.2122 88.957 47.9316V43.25H90.4927V56H89.0815L89.0068 55.0371C88.3926 55.7897 87.5376 56.166 86.4419 56.166C85.4015 56.166 84.5521 55.7399 83.8935 54.8877C83.2405 54.0355 82.914 52.9232 82.914 51.5508V51.4346ZM84.4497 51.6089C84.4497 52.6271 84.66 53.424 85.0806 53.9995C85.5011 54.575 86.0822 54.8628 86.8237 54.8628C87.7977 54.8628 88.5088 54.4256 88.957 53.5513V49.4258C88.4977 48.5791 87.7921 48.1558 86.8403 48.1558C86.0877 48.1558 85.5011 48.4463 85.0806 49.0273C84.66 49.6084 84.4497 50.4689 84.4497 51.6089Z" fill="url(#paint0_linear)"/>
<defs>
<linearGradient id="paint0_linear" x1="48.5" y1="39.5265" x2="48.5" y2="59.1378" gradientUnits="userSpaceOnUse">
<stop stop-color="#5190FE"/>
<stop offset="1" stop-color="#E28AFF"/>
</linearGradient>
</defs>
</svg>
