<svg viewBox="0 0 139 152" xmlns="http://www.w3.org/2000/svg">
<path d="M0.5 38.296L69.282 0.57027L138.064 38.296V113.704L69.282 151.43L0.5 113.704V38.296Z" fill="#352F2F" fill-opacity="0.27" stroke="#0B73D3"/>
  <path d="M62.5682 116.321C62.1346 116.942 61.5282 117.408 60.7489 117.719C59.9755 118.023 59.0731 118.176 58.0419 118.176C56.9989 118.176 56.0731 117.933 55.2645 117.446C54.4559 116.954 53.829 116.257 53.3837 115.354C52.9442 114.452 52.7186 113.406 52.7069 112.217V111.101C52.7069 109.173 53.1552 107.679 54.0516 106.618C54.954 105.558 56.2196 105.027 57.8485 105.027C59.1845 105.027 60.2596 105.37 61.0741 106.056C61.8886 106.735 62.3866 107.702 62.5682 108.956H60.8807C60.5643 107.263 59.5565 106.416 57.8573 106.416C56.7264 106.416 55.868 106.814 55.2821 107.611C54.702 108.402 54.4091 109.551 54.4032 111.057V112.103C54.4032 113.538 54.7313 114.681 55.3876 115.53C56.0438 116.374 56.9315 116.796 58.0507 116.796C58.6835 116.796 59.2372 116.726 59.7118 116.585C60.1864 116.444 60.579 116.207 60.8895 115.873V112.999H57.9276V111.628H62.5682V116.321ZM69.7812 118H68.1553V108.49H69.7812V118ZM68.0234 105.968C68.0234 105.704 68.1025 105.481 68.2607 105.3C68.4248 105.118 68.665 105.027 68.9814 105.027C69.2979 105.027 69.5381 105.118 69.7021 105.3C69.8662 105.481 69.9482 105.704 69.9482 105.968C69.9482 106.231 69.8662 106.451 69.7021 106.627C69.5381 106.803 69.2979 106.891 68.9814 106.891C68.665 106.891 68.4248 106.803 68.2607 106.627C68.1025 106.451 68.0234 106.231 68.0234 105.968ZM77.4777 106.188V108.49H79.253V109.747H77.4777V115.645C77.4777 116.025 77.5568 116.312 77.715 116.506C77.8732 116.693 78.1427 116.787 78.5236 116.787C78.7111 116.787 78.9689 116.752 79.297 116.682V118C78.8693 118.117 78.4532 118.176 78.0489 118.176C77.3224 118.176 76.7745 117.956 76.4054 117.517C76.0363 117.077 75.8517 116.453 75.8517 115.645V109.747H74.1202V108.49H75.8517V106.188H77.4777Z" fill="url(#paint0_linear)"/>
  <path d="M102.367 59.5167L72.4832 29.6333C71.5665 28.7167 70.2832 28.1667 68.9998 28.1667C67.7165 28.1667 66.4332 28.7167 65.5165 29.6333L59.0998 36.05L66.6165 43.5667C67.3498 43.2 68.0832 43.0167 68.9998 43.0167C72.1165 43.0167 74.4998 45.4 74.4998 48.5167C74.4998 49.4333 74.3165 50.1667 73.9498 50.9L81.2832 58.2333C82.0165 57.8667 82.7498 57.6833 83.6665 57.6833C86.7832 57.6833 89.1665 60.0667 89.1665 63.1833C89.1665 66.3 86.7832 68.6833 83.6665 68.6833C80.5498 68.6833 78.1665 66.3 78.1665 63.1833C78.1665 62.2667 78.3498 61.5333 78.7165 60.8L71.3832 53.4667C71.1998 53.4667 71.0165 53.65 70.8332 53.65V72.7167C73.0332 73.45 74.4998 75.4667 74.4998 77.85C74.4998 80.9667 72.1165 83.35 68.9998 83.35C65.8832 83.35 63.4998 80.9667 63.4998 77.85C63.4998 75.4667 64.9665 73.45 67.1665 72.7167V53.4667C64.9665 52.7333 63.4998 50.7167 63.4998 48.3333C63.4998 47.4167 63.6832 46.6833 64.0498 45.95L56.5332 38.4333L35.6332 59.5167C34.7165 60.4333 34.1665 61.7167 34.1665 63C34.1665 64.2833 34.7165 65.5667 35.6332 66.4833L65.5165 96.3667C66.4332 97.2833 67.7165 97.8333 68.9998 97.8333C70.2832 97.8333 71.5665 97.2833 72.4832 96.3667L102.367 66.4833C103.283 65.5667 103.833 64.2833 103.833 63C103.833 61.7167 103.283 60.4333 102.367 59.5167Z" fill="url(#paint1_linear)"/>
<defs>
<linearGradient id="paint0_linear" x1="65.7822" y1="100.503" x2="65.7822" y2="121.095" gradientUnits="userSpaceOnUse">
<stop stop-color="#5190FE"/>
<stop offset="1" stop-color="#E28AFF"/>
</linearGradient>
<linearGradient id="paint1_linear" x1="68.9998" y1="26.5172" x2="68.9998" y2="94.83" gradientUnits="userSpaceOnUse">
<stop stop-color="#5190FE"/>
<stop offset="1" stop-color="#E28AFF"/>
</linearGradient>
</defs>
</svg>
