<svg xmlns="http://www.w3.org/2000/svg" viewBox="0 0 48 48">
  <path fill-rule="evenodd"
        d="M28 16C28 18.21 26.21 20 24 20 21.79 20 20 18.21 20 16 20 13.79 21.79 12 24 12 26.21 12 28 13.79 28 16zM26 16C26 17.1054 25.1054 18 24 18 22.8946 18 22 17.1054 22 16 22 14.8946 22.8946 14 24 14 25.1054 14 26 14.8946 26 16zM18 17.5C18 19.9862 15.9862 22 13.5 22 11.0138 22 9 19.9862 9 17.5 9 15.0137 11.0138 13 13.5 13 15.9862 13 18 15.0137 18 17.5zM16 17.5C16 18.8817 14.8817 20 13.5 20 12.1183 20 11 18.8817 11 17.5 11 16.1183 12.1183 15 13.5 15 14.8817 15 16 16.1183 16 17.5zM4 29.4545C4 25.8273 10.6625 24 14 24 14.8012 24 15.794 24.1053 16.8403 24.3155 18.133 23.3095 20.673 22 24 22 27.327 22 29.867 23.3095 31.1597 24.3155 32.206 24.1053 33.1988 24 34 24 37.3375 24 44 25.8273 44 29.4545V36H4V29.4545zM6 29.4545C6 29.2178 6.09388 28.9026 6.51219 28.4814 6.94877 28.0418 7.64026 27.597 8.54933 27.1997 10.3782 26.4004 12.6054 26 14 26 15.3946 26 17.6218 26.4004 19.4507 27.1997 20.3597 27.597 21.0512 28.0418 21.4878 28.4814 21.9061 28.9026 22 29.2178 22 29.4545V34H6V29.4545zM28.5508 25.0454C27.4324 24.4953 25.8752 24 24 24 22.1248 24 20.5676 24.4953 19.4492 25.0454 21.8895 25.9417 24 27.413 24 29.4545 24 27.413 26.1105 25.9417 28.5508 25.0454zM26.5122 28.4814C26.0939 28.9026 26 29.2178 26 29.4545V34H42V29.4545C42 29.2178 41.9061 28.9026 41.4878 28.4814 41.0512 28.0418 40.3597 27.597 39.4507 27.1997 37.6218 26.4004 35.3946 26 34 26 32.6054 26 30.3782 26.4004 28.5493 27.1997 27.6403 27.597 26.9488 28.0418 26.5122 28.4814zM34.5 22C36.9863 22 39 19.9862 39 17.5 39 15.0137 36.9863 13 34.5 13 32.0138 13 30 15.0137 30 17.5 30 19.9862 32.0138 22 34.5 22zM34.5 20C35.8817 20 37 18.8817 37 17.5 37 16.1183 35.8817 15 34.5 15 33.1183 15 32 16.1183 32 17.5 32 18.8817 33.1183 20 34.5 20z"
        clip-rule="evenodd"/>
</svg>
