<svg width="17" height="17" viewBox="0 0 17 17" xmlns="http://www.w3.org/2000/svg">
<path fill-rule="evenodd" clip-rule="evenodd" d="M8.5 15.5C12.366 15.5 15.5 12.366 15.5 8.5C15.5 4.63401 12.366 1.5 8.5 1.5C4.63401 1.5 1.5 4.63401 1.5 8.5C1.5 12.366 4.63401 15.5 8.5 15.5ZM8.5 17C13.1944 17 17 13.1944 17 8.5C17 3.80558 13.1944 0 8.5 0C3.80558 0 0 3.80558 0 8.5C0 13.1944 3.80558 17 8.5 17ZM9.20829 9.09281V9.9166C9.20829 10.3083 8.89167 10.6249 8.49996 10.6249C8.10825 10.6249 7.79162 10.3083 7.79162 9.9166V8.49994C7.79162 8.10823 8.10825 7.7916 8.49996 7.7916C9.08575 7.7916 9.56246 7.31489 9.56246 6.7291C9.56246 6.14331 9.08575 5.6666 8.49996 5.6666C7.91417 5.6666 7.43746 6.14331 7.43746 6.7291C7.43746 7.12081 7.12083 7.43744 6.72912 7.43744C6.33742 7.43744 6.02079 7.12081 6.02079 6.7291C6.02079 5.36202 7.13287 4.24994 8.49996 4.24994C9.86704 4.24994 10.9791 5.36202 10.9791 6.7291C10.9791 7.84827 10.2283 8.78539 9.20829 9.09281ZM8.50004 12.75C8.10833 12.75 7.79171 12.4333 7.79171 12.0416C7.79171 11.6499 8.10833 11.3333 8.50004 11.3333C8.89175 11.3333 9.20838 11.6499 9.20838 12.0416C9.20838 12.4333 8.89175 12.75 8.50004 12.75Z"/>
</svg>
