<svg viewBox="0 0 16 16" xmlns="http://www.w3.org/2000/svg">
    <path fill-rule="evenodd" clip-rule="evenodd" d="M8.47654 1.53381L13.6159 6.78981C13.8599 7.04048 13.9999 7.38981 13.9999 7.74914V13.3331C13.9999 14.0685 13.4352 14.6665 12.7412 14.6665H10.6665V8.66647C10.6665 8.29847 10.3685 7.99981 9.99987 7.99981H5.99987C5.6312 7.99981 5.3332 8.29847 5.3332 8.66647V14.6665H3.2592C2.5652 14.6665 1.99987 14.0685 1.99987 13.3331V7.74914C1.99987 7.38981 2.13987 7.04047 2.3832 6.79047L7.5232 1.53381C7.77454 1.27714 8.2252 1.27714 8.47654 1.53381ZM9.33334 14.0001H6.66667V9.33341H9.33334V14.0001Z"/>
</svg>
