<svg viewBox="0 0 32 32" xmlns="http://www.w3.org/2000/svg">
    <path fill-rule="evenodd" clip-rule="evenodd" d="M16 21.3332C15.264 21.3332 14.6667 20.7358 14.6667 19.9998C14.6667 19.2638 15.264 18.6665 16 18.6665C16.736 18.6665 17.3333 19.2638 17.3333 19.9998C17.3333 20.7358 16.736 21.3332 16 21.3332ZM16 15.9998C13.7947 15.9998 12 17.7945 12 19.9998C12 22.2052 13.7947 23.9998 16 23.9998C18.2053 23.9998 20 22.2052 20 19.9998C20 17.7945 18.2053 15.9998 16 15.9998ZM24 25.3332C24 26.0692 23.4027 26.6665 22.6667 26.6665H9.33334C8.59734 26.6665 8.00001 26.0692 8.00001 25.3332V14.6665C8.00001 13.9305 8.59734 13.3332 9.33334 13.3332H10.6667H13.3333H18.6667H21.3333H22.6667C23.4027 13.3332 24 13.9305 24 14.6665V25.3332ZM13.3333 8.14784C13.3333 6.59584 14.5293 5.33317 16 5.33317C17.4707 5.33317 18.6667 6.59584 18.6667 8.14784V10.6665H13.3333V8.14784ZM22.6667 10.6665H21.3333V8.14784C21.3333 5.1265 18.9413 2.6665 16 2.6665C13.0587 2.6665 10.6667 5.1265 10.6667 8.14784V10.6665H9.33334C7.12801 10.6665 5.33334 12.4612 5.33334 14.6665V25.3332C5.33334 27.5385 7.12801 29.3332 9.33334 29.3332H22.6667C24.872 29.3332 26.6667 27.5385 26.6667 25.3332V14.6665C26.6667 12.4612 24.872 10.6665 22.6667 10.6665Z"/>
</svg>
