<svg width="48" height="48" viewBox="0 0 48 48" fill="none" xmlns="http://www.w3.org/2000/svg">
<rect width="48" height="48" rx="8" fill="#F4F3F8"/>
<path fill-rule="evenodd" clip-rule="evenodd" d="M26.3337 14.641L30.6993 19.3334H27.1667C26.707 19.3334 26.3337 18.8889 26.3337 18.3417V14.641ZM33.0315 18.5494L27.8457 12.716C27.6252 12.4722 27.3113 12.3334 26.9823 12.3334H17.649C16.004 12.3334 14.667 13.6424 14.667 15.25V32.75C14.667 34.3577 16.004 35.6667 17.649 35.6667H30.3517C31.9967 35.6667 33.3337 34.3577 33.3337 32.75V19.3334C33.3337 19.0429 33.2263 18.764 33.0315 18.5494Z" fill="#7B819B"/>
<mask id="mask0" mask-type="alpha" maskUnits="userSpaceOnUse" x="14" y="12" width="20" height="24">
<path fill-rule="evenodd" clip-rule="evenodd" d="M26.3337 14.641L30.6993 19.3334H27.1667C26.707 19.3334 26.3337 18.8889 26.3337 18.3417V14.641ZM33.0315 18.5494L27.8457 12.716C27.6252 12.4722 27.3113 12.3334 26.9823 12.3334H17.649C16.004 12.3334 14.667 13.6424 14.667 15.25V32.75C14.667 34.3577 16.004 35.6667 17.649 35.6667H30.3517C31.9967 35.6667 33.3337 34.3577 33.3337 32.75V19.3334C33.3337 19.0429 33.2263 18.764 33.0315 18.5494Z" fill="white"/>
</mask>
<g mask="url(#mask0)">
</g>
</svg>
