<svg viewBox="0 0 139 152" xmlns="http://www.w3.org/2000/svg">
<path d="M0.5 38.296L69.282 0.57027L138.064 38.296V113.704L69.282 151.43L0.5 113.704V38.296Z" fill="#352F2F" fill-opacity="0.27" stroke="#0B73D3"/>
<path d="M37.375 33.875L45.625 39.375V66.875L37.375 61.375V33.875Z" fill="url(#paint0_linear)"/>
<path d="M100.625 54.5L92.375 60V77.875L100.625 72.375V54.5Z" fill="#0288D1"/>
<path d="M100.625 35.25L92.375 40.75V50.375L100.625 44.875V35.25Z" fill="#0288D1"/>
<path d="M84.125 33.875L75.875 39.375V66.875L84.125 61.375V33.875Z" fill="#0288D1"/>
<path d="M37.375 43.5L60.75 58.625V49L37.375 33.875V43.5Z" fill="url(#paint1_linear)"/>
<path d="M84.125 43.5L60.75 58.625V49L84.125 33.875V43.5Z" fill="#0288D1"/>
<path d="M84.125 62.75L60.75 77.875V68.25L84.125 53.125V62.75Z" fill="#0288D1"/>
<path d="M100.625 73.75L77.25 88.875V79.25L100.625 64.125V73.75Z" fill="#0288D1"/>
<path d="M77.25 78.9269L60.75 68.25V77.875L77.25 88.5519V78.9269Z" fill="url(#paint2_linear)"/>
<path d="M16.816 97.2031L20.9996 107.645L25.1832 97.2031H27.3717V110H25.6842V105.017L25.8424 99.6377L21.6412 110H20.3492L16.1568 99.6641L16.3238 105.017V110H14.6363V97.2031H16.816ZM41.3674 110C41.2736 109.812 41.1975 109.479 41.1389 108.998C40.383 109.783 39.4807 110.176 38.4318 110.176C37.4943 110.176 36.7238 109.912 36.1203 109.385C35.5227 108.852 35.2238 108.178 35.2238 107.363C35.2238 106.373 35.5988 105.605 36.3488 105.061C37.1047 104.51 38.1652 104.234 39.5305 104.234H41.1125V103.487C41.1125 102.919 40.9426 102.468 40.6027 102.134C40.2629 101.794 39.7619 101.624 39.0998 101.624C38.5197 101.624 38.0334 101.771 37.6408 102.063C37.2482 102.356 37.052 102.711 37.052 103.127H35.4172C35.4172 102.652 35.5842 102.195 35.9182 101.756C36.258 101.311 36.715 100.959 37.2893 100.701C37.8693 100.443 38.5051 100.314 39.1965 100.314C40.2922 100.314 41.1506 100.59 41.7717 101.141C42.3928 101.686 42.715 102.438 42.7385 103.399V107.776C42.7385 108.649 42.8498 109.344 43.0725 109.859V110H41.3674ZM38.6691 108.761C39.1789 108.761 39.6623 108.629 40.1193 108.365C40.5764 108.102 40.9074 107.759 41.1125 107.337V105.386H39.8381C37.8459 105.386 36.8498 105.969 36.8498 107.135C36.8498 107.645 37.0197 108.043 37.3596 108.33C37.6994 108.617 38.1359 108.761 38.6691 108.761ZM52.8934 98.1875V100.49H54.6688V101.747H52.8934V107.645C52.8934 108.025 52.9725 108.312 53.1307 108.506C53.2889 108.693 53.5584 108.787 53.9393 108.787C54.1268 108.787 54.3846 108.752 54.7127 108.682V110C54.285 110.117 53.8689 110.176 53.4646 110.176C52.7381 110.176 52.1902 109.956 51.8211 109.517C51.452 109.077 51.2674 108.453 51.2674 107.645V101.747H49.5359V100.49H51.2674V98.1875H52.8934ZM63.602 101.642C64.3227 100.757 65.2602 100.314 66.4145 100.314C68.4242 100.314 69.4379 101.448 69.4555 103.716V110H67.8295V103.707C67.8236 103.021 67.6654 102.515 67.3549 102.187C67.0502 101.858 66.5727 101.694 65.9223 101.694C65.3949 101.694 64.932 101.835 64.5336 102.116C64.1352 102.397 63.8246 102.767 63.602 103.224V110H61.976V96.5H63.602V101.642ZM81.2363 110.176C79.9473 110.176 78.8984 109.754 78.0898 108.91C77.2812 108.061 76.877 106.927 76.877 105.509V105.21C76.877 104.267 77.0557 103.426 77.4131 102.688C77.7764 101.943 78.2803 101.363 78.9248 100.947C79.5752 100.525 80.2783 100.314 81.0342 100.314C82.2705 100.314 83.2314 100.722 83.917 101.536C84.6025 102.351 84.9453 103.517 84.9453 105.034V105.711H78.5029C78.5264 106.648 78.7988 107.407 79.3203 107.987C79.8477 108.562 80.5156 108.849 81.3242 108.849C81.8984 108.849 82.3848 108.731 82.7832 108.497C83.1816 108.263 83.5303 107.952 83.8291 107.565L84.8223 108.339C84.0254 109.563 82.8301 110.176 81.2363 110.176ZM81.0342 101.65C80.3779 101.65 79.8271 101.891 79.3818 102.371C78.9365 102.846 78.6611 103.514 78.5557 104.375H83.3193V104.252C83.2725 103.426 83.0498 102.787 82.6514 102.336C82.2529 101.879 81.7139 101.65 81.0342 101.65ZM96.8316 101.949C96.5855 101.908 96.3189 101.888 96.0318 101.888C94.9654 101.888 94.2418 102.342 93.8609 103.25V110H92.235V100.49H93.817L93.8434 101.589C94.3766 100.739 95.1324 100.314 96.1109 100.314C96.4273 100.314 96.6676 100.355 96.8316 100.438V101.949ZM105.501 110H103.875V100.49H105.501V110ZM103.743 97.9678C103.743 97.7041 103.822 97.4814 103.981 97.2998C104.145 97.1182 104.385 97.0273 104.701 97.0273C105.018 97.0273 105.258 97.1182 105.422 97.2998C105.586 97.4814 105.668 97.7041 105.668 97.9678C105.668 98.2314 105.586 98.4512 105.422 98.627C105.258 98.8027 105.018 98.8906 104.701 98.8906C104.385 98.8906 104.145 98.8027 103.981 98.627C103.822 98.4512 103.743 98.2314 103.743 97.9678ZM119.383 110C119.289 109.812 119.213 109.479 119.154 108.998C118.398 109.783 117.496 110.176 116.447 110.176C115.51 110.176 114.739 109.912 114.136 109.385C113.538 108.852 113.239 108.178 113.239 107.363C113.239 106.373 113.614 105.605 114.364 105.061C115.12 104.51 116.18 104.234 117.546 104.234H119.128V103.487C119.128 102.919 118.958 102.468 118.618 102.134C118.278 101.794 117.777 101.624 117.115 101.624C116.535 101.624 116.049 101.771 115.656 102.063C115.263 102.356 115.067 102.711 115.067 103.127H113.432C113.432 102.652 113.599 102.195 113.933 101.756C114.273 101.311 114.73 100.959 115.304 100.701C115.885 100.443 116.52 100.314 117.212 100.314C118.307 100.314 119.166 100.59 119.787 101.141C120.408 101.686 120.73 102.438 120.754 103.399V107.776C120.754 108.649 120.865 109.344 121.088 109.859V110H119.383ZM116.684 108.761C117.194 108.761 117.678 108.629 118.135 108.365C118.592 108.102 118.923 107.759 119.128 107.337V105.386H117.853C115.861 105.386 114.865 105.969 114.865 107.135C114.865 107.645 115.035 108.043 115.375 108.33C115.715 108.617 116.151 108.761 116.684 108.761ZM130.469 110H128.843V96.5H130.469V110ZM72.0061 118.203V126.904C72.0002 128.111 71.6193 129.099 70.8635 129.866C70.1135 130.634 69.0939 131.064 67.8049 131.158L67.3566 131.176C65.9562 131.176 64.84 130.798 64.008 130.042C63.176 129.286 62.7541 128.246 62.7424 126.922V118.203H64.4123V126.869C64.4123 127.795 64.6672 128.516 65.177 129.031C65.6867 129.541 66.4133 129.796 67.3566 129.796C68.3117 129.796 69.0412 129.541 69.5451 129.031C70.0549 128.521 70.3098 127.804 70.3098 126.878V118.203H72.0061ZM81.8797 131H80.1922V118.203H81.8797V131Z" fill="url(#paint3_linear)"/>
<defs>
<linearGradient id="paint0_linear" x1="41.5" y1="33.0937" x2="41.5" y2="65.4524" gradientUnits="userSpaceOnUse">
<stop stop-color="#5190FE"/>
<stop offset="1" stop-color="#E28AFF"/>
</linearGradient>
<linearGradient id="paint1_linear" x1="49.0625" y1="33.289" x2="49.0625" y2="57.558" gradientUnits="userSpaceOnUse">
<stop stop-color="#5190FE"/>
<stop offset="1" stop-color="#E28AFF"/>
</linearGradient>
<linearGradient id="paint2_linear" x1="69" y1="67.7693" x2="69" y2="87.6766" gradientUnits="userSpaceOnUse">
<stop stop-color="#5190FE"/>
<stop offset="1" stop-color="#E28AFF"/>
</linearGradient>
<linearGradient id="paint3_linear" x1="72.5" y1="92.0056" x2="72.5" y2="133.189" gradientUnits="userSpaceOnUse">
<stop stop-color="#5190FE"/>
<stop offset="1" stop-color="#E28AFF"/>
</linearGradient>
</defs>
</svg>
