<svg viewBox="0 0 112 32" xmlns="http://www.w3.org/2000/svg">
<path fill-rule="evenodd" clip-rule="evenodd" d="M26.5923 0.842105H34.3355V31.1579H26.1499V15.0472L19.5129 25.0081H14.8227L8.18566 15.0039V31.1579H0V0.842105H7.7432L17.1678 15.0472L26.5923 0.842105ZM41.2311 1.92877C43.8524 0.657534 46.9034 0 49.9544 0C58.0762 0 66.2409 4.86575 66.2409 16.4384C66.2409 27.3973 58.0332 32 49.7825 32C46.8174 32 43.8524 31.3425 41.2311 30.0712V22.1808C43.1218 24.0219 45.8721 24.7671 48.5793 24.7671C53.0055 24.7671 57.0878 23.8027 58.2051 19.3753H45.7431V12.5808H58.0762C56.83 8.19726 53.0914 7.27671 48.7512 7.23288C46.2158 7.23288 43.2078 7.93425 41.2311 9.6V1.92877ZM112 31.3068H71.306V0.99097H79.5338V24.1609H87.5391V0.99097H95.7669V24.1609H103.772V0.99097H112V31.3068Z" />
</svg>
