<svg viewBox="0 0 152 64" xmlns="http://www.w3.org/2000/svg">
<path fill-rule="evenodd" clip-rule="evenodd" d="M8 0H144C148.418 0 152 3.58173 152 8V56C152 60.4183 148.418 64 144 64H8C3.58173 64 0 60.4183 0 56V8C0 3.58173 3.58173 0 8 0ZM54.3355 16.8421H46.5923L37.1678 31.0472L27.7432 16.8421H20V47.1579H28.1857V31.0039L34.8227 41.0081H39.5129L46.1499 31.0472V47.1579H54.3355V16.8421ZM69.9544 16C66.9034 16 63.8524 16.6575 61.2311 17.9288V25.6C63.2078 23.9342 66.2158 23.2329 68.7512 23.2329C73.0914 23.2767 76.83 24.1973 78.0762 28.5808H65.7431V35.3753H78.2051C77.0878 39.8027 73.0055 40.7671 68.5793 40.7671C65.8721 40.7671 63.1218 40.0219 61.2311 38.1808V46.0712C63.8524 47.3425 66.8174 48 69.7825 48C78.0332 48 86.2409 43.3973 86.2409 32.4384C86.2409 20.8658 78.0762 16 69.9544 16ZM91.306 47.3068H132V16.991H123.772V40.1609H115.767V16.991H107.539V40.1609H99.5338V16.991H91.306V47.3068Z"/>
</svg>
