<svg width="20" height="20" viewBox="0 0 20 20" xmlns="http://www.w3.org/2000/svg">
<path fill-rule="evenodd" clip-rule="evenodd" d="M12.9825 10.6257C13.2 10.1832 13.3334 9.69234 13.3334 9.16651V4.99984C13.3334 3.1615 11.8384 1.6665 10 1.6665C8.37671 1.6665 7.02505 2.834 6.73005 4.37317L12.9825 10.6257ZM15.8333 9.16651C15.8333 8.70651 15.4608 8.33318 15 8.33318C14.5391 8.33318 14.1666 8.70651 14.1666 9.16651C14.1666 9.92401 13.9483 10.6248 13.5933 11.2365L14.8125 12.4557C15.4558 11.519 15.8333 10.3865 15.8333 9.16651ZM10.0711 12.493L10.0711 12.493C10.0478 12.4964 10.0244 12.4998 9.99996 12.4998C8.16163 12.4998 6.66663 11.0048 6.66663 9.16651V9.02318L10.13 12.4865C10.1102 12.4873 10.0907 12.4901 10.0711 12.493L10.0711 12.493ZM17.2558 16.0773L3.92246 2.744C3.59663 2.41817 3.06996 2.41817 2.74413 2.744C2.4183 3.06984 2.4183 3.5965 2.74413 3.92234L16.0775 17.2557C16.24 17.4182 16.4533 17.4998 16.6666 17.4998C16.88 17.4998 17.0933 17.4182 17.2558 17.2557C17.5816 16.9298 17.5816 16.4032 17.2558 16.0773ZM10.8333 16.6665H12.5C12.9583 16.6665 13.3333 17.0415 13.3333 17.4998C13.3333 17.9582 12.9583 18.3332 12.5 18.3332H7.49996C7.04163 18.3332 6.66663 17.9582 6.66663 17.4998C6.66663 17.0415 7.04163 16.6665 7.49996 16.6665H9.16663V14.9332C6.34413 14.5265 4.16663 12.0998 4.16663 9.16651C4.16663 8.70651 4.53913 8.33318 4.99996 8.33318C5.4608 8.33318 5.8333 8.70651 5.8333 9.16651C5.8333 11.464 7.70246 13.3332 9.99996 13.3332C10.3016 13.3332 10.595 13.2973 10.8791 13.2357L12.2066 14.5632C11.7725 14.7415 11.3108 14.8632 10.8333 14.9323V16.6665Z"/>
</svg>
