<svg width="14" height="20" viewBox="0 0 14 20" xmlns="http://www.w3.org/2000/svg">
<path fill-rule="evenodd" clip-rule="evenodd" d="M11 9C11 11.206 9.206 13 7 13C4.794 13 3 11.206 3 9V4C3 1.794 4.794 0 7 0C9.206 0 11 1.794 11 4V9ZM13 8C13.553 8 14 8.448 14 9C14 12.52 11.387 15.432 8 15.92V18H10.105C10.598 18 11 18.402 11 18.895V19.105C11 19.598 10.598 20 10.105 20H3.895C3.402 20 3 19.598 3 19.105V18.895C3 18.402 3.402 18 3.895 18H6V15.92C2.613 15.432 0 12.52 0 9C0 8.448 0.447 8 1 8C1.553 8 2 8.448 2 9C2 11.757 4.243 14 7 14C9.757 14 12 11.757 12 9C12 8.448 12.447 8 13 8Z"/>
</svg>
