<svg viewBox="0 0 20 20" xmlns="http://www.w3.org/2000/svg">
    <path d="M17.3512 11.7147C16.9153 11.5597 16.4403 11.7872 16.2878 12.2222C15.3478 14.8805 12.8203 16.6663 10.0003 16.6663C6.32449 16.6663 3.33366 13.6763 3.33366 9.99967C3.33366 7.17967 5.11949 4.65217 7.77783 3.71217C8.21199 3.55967 8.43949 3.08384 8.28616 2.64967C8.13283 2.21634 7.65699 1.98801 7.22283 2.14217C3.89949 3.31634 1.66699 6.47384 1.66699 9.99967C1.66699 14.5947 5.40533 18.333 10.0003 18.333C13.5262 18.333 16.6837 16.1013 17.8587 12.7772C18.012 12.3438 17.7853 11.868 17.3512 11.7147ZM11.6667 8.33334V3.3925C14.2176 3.75917 16.2409 5.78167 16.6076 8.33334H11.6667ZM10.8334 1.66667C10.3734 1.66667 10.0001 2.03917 10.0001 2.50001V9.16667C10.0001 9.6275 10.3734 10 10.8334 10H17.5001C17.9601 10 18.3334 9.6275 18.3334 9.16667C18.3334 5.03084 14.9684 1.66667 10.8334 1.66667Z"/>
</svg>
