<svg viewBox="0 0 50 50" fill="none" xmlns="http://www.w3.org/2000/svg">
<mask id="path-1-outside-1" maskUnits="userSpaceOnUse" x="0" y="0" width="50" height="50" fill="black">
<rect fill="white" width="50" height="50"/>
<path d="M42.22 25C44.3076 25 46.0345 26.7058 45.6607 28.7597C45.1486 31.5736 44.0646 34.2668 42.4609 36.667C40.1534 40.1204 36.8736 42.812 33.0364 44.4015C29.1991 45.9909 24.9767 46.4068 20.9031 45.5965C16.8295 44.7862 13.0877 42.7861 10.1508 39.8492C7.21385 36.9123 5.2138 33.1705 4.40351 29.0969C3.59322 25.0233 4.00909 20.8009 5.59853 16.9636C7.18797 13.1264 9.87959 9.84665 13.333 7.53914C15.7332 5.9354 18.4264 4.85136 21.2403 4.33928C23.2942 3.96552 25 5.69236 25 7.78C25 9.86764 23.2752 11.5086 21.2696 12.0881C19.9493 12.4695 18.6882 13.0533 17.5331 13.825C15.3229 15.3019 13.6003 17.4009 12.5831 19.8567C11.5658 22.3126 11.2997 25.0149 11.8182 27.622C12.3368 30.2291 13.6169 32.6239 15.4965 34.5035C17.3761 36.3831 19.7709 37.6632 22.378 38.1818C24.9851 38.7003 27.6874 38.4342 30.1433 37.4169C32.5991 36.3997 34.6981 34.6771 36.1749 32.4669C36.9467 31.3118 37.5305 30.0507 37.9119 28.7304C38.4914 26.7248 40.1324 25 42.22 25Z"/>
</mask>
<path d="M42.22 25C44.3076 25 46.0345 26.7058 45.6607 28.7597C45.1486 31.5736 44.0646 34.2668 42.4609 36.667C40.1534 40.1204 36.8736 42.812 33.0364 44.4015C29.1991 45.9909 24.9767 46.4068 20.9031 45.5965C16.8295 44.7862 13.0877 42.7861 10.1508 39.8492C7.21385 36.9123 5.2138 33.1705 4.40351 29.0969C3.59322 25.0233 4.00909 20.8009 5.59853 16.9636C7.18797 13.1264 9.87959 9.84665 13.333 7.53914C15.7332 5.9354 18.4264 4.85136 21.2403 4.33928C23.2942 3.96552 25 5.69236 25 7.78C25 9.86764 23.2752 11.5086 21.2696 12.0881C19.9493 12.4695 18.6882 13.0533 17.5331 13.825C15.3229 15.3019 13.6003 17.4009 12.5831 19.8567C11.5658 22.3126 11.2997 25.0149 11.8182 27.622C12.3368 30.2291 13.6169 32.6239 15.4965 34.5035C17.3761 36.3831 19.7709 37.6632 22.378 38.1818C24.9851 38.7003 27.6874 38.4342 30.1433 37.4169C32.5991 36.3997 34.6981 34.6771 36.1749 32.4669C36.9467 31.3118 37.5305 30.0507 37.9119 28.7304C38.4914 26.7248 40.1324 25 42.22 25Z" fill="#E47B83"/>
<path d="M42.22 25C44.3076 25 46.0345 26.7058 45.6607 28.7597C45.1486 31.5736 44.0646 34.2668 42.4609 36.667C40.1534 40.1204 36.8736 42.812 33.0364 44.4015C29.1991 45.9909 24.9767 46.4068 20.9031 45.5965C16.8295 44.7862 13.0877 42.7861 10.1508 39.8492C7.21385 36.9123 5.2138 33.1705 4.40351 29.0969C3.59322 25.0233 4.00909 20.8009 5.59853 16.9636C7.18797 13.1264 9.87959 9.84665 13.333 7.53914C15.7332 5.9354 18.4264 4.85136 21.2403 4.33928C23.2942 3.96552 25 5.69236 25 7.78C25 9.86764 23.2752 11.5086 21.2696 12.0881C19.9493 12.4695 18.6882 13.0533 17.5331 13.825C15.3229 15.3019 13.6003 17.4009 12.5831 19.8567C11.5658 22.3126 11.2997 25.0149 11.8182 27.622C12.3368 30.2291 13.6169 32.6239 15.4965 34.5035C17.3761 36.3831 19.7709 37.6632 22.378 38.1818C24.9851 38.7003 27.6874 38.4342 30.1433 37.4169C32.5991 36.3997 34.6981 34.6771 36.1749 32.4669C36.9467 31.3118 37.5305 30.0507 37.9119 28.7304C38.4914 26.7248 40.1324 25 42.22 25Z" stroke="white" stroke-width="8" mask="url(#path-1-outside-1)"/>
<mask id="path-2-outside-2" maskUnits="userSpaceOnUse" x="21" y="0" width="29" height="29" fill="black">
<rect fill="white" x="21" width="29" height="29"/>
<path d="M25 4C30.5695 4 35.911 6.21249 39.8492 10.1508C43.7875 14.089 46 19.4304 46 25L38.44 25C38.44 21.4355 37.024 18.017 34.5035 15.4965C31.983 12.976 28.5645 11.56 25 11.56V4Z"/>
</mask>
<path d="M25 4C30.5695 4 35.911 6.21249 39.8492 10.1508C43.7875 14.089 46 19.4304 46 25L38.44 25C38.44 21.4355 37.024 18.017 34.5035 15.4965C31.983 12.976 28.5645 11.56 25 11.56V4Z" fill="#84D682"/>
<path d="M25 4C30.5695 4 35.911 6.21249 39.8492 10.1508C43.7875 14.089 46 19.4304 46 25L38.44 25C38.44 21.4355 37.024 18.017 34.5035 15.4965C31.983 12.976 28.5645 11.56 25 11.56V4Z" stroke="white" stroke-width="8" mask="url(#path-2-outside-2)"/>
</svg>
