<svg width="20" height="20" viewBox="0 0 20 20" xmlns="http://www.w3.org/2000/svg">
<path fill-rule="evenodd" clip-rule="evenodd" d="M9.5 12.5999L12.309 9.9999L9.5 7.4009V12.5999ZM13.98 11.179L10.338 14.549C10.019 14.845 9.604 15 9.181 15C8.948 15 8.711 14.952 8.488 14.855C7.878 14.589 7.5 14.02 7.5 13.37V6.63C7.5 5.981 7.878 5.411 8.488 5.146C9.114 4.871 9.841 4.991 10.339 5.452L13.98 8.822C14.311 9.127 14.5 9.557 14.5 10C14.5 10.444 14.311 10.873 13.98 11.179ZM10 0C4.486 0 0 4.487 0 10C0 15.514 4.486 20 10 20C15.514 20 20 15.514 20 10C20 4.487 15.514 0 10 0Z" />
</svg>
