<svg viewBox="0 0 139 152" xmlns="http://www.w3.org/2000/svg">
<path d="M30.6813 82H28.7965V69.3242H21.7848V82H19.9098V67.7812H30.6813V82ZM45.9418 76.834C45.9418 78.4421 45.574 79.7376 44.8383 80.7207C44.1026 81.7038 43.1065 82.1953 41.85 82.1953C40.5675 82.1953 39.5583 81.7884 38.8227 80.9746V86.0625H37.016V71.4336H38.6664L38.7543 72.6055C39.49 71.694 40.5121 71.2383 41.8207 71.2383C43.0902 71.2383 44.0928 71.7168 44.8285 72.6738C45.5707 73.6309 45.9418 74.9622 45.9418 76.668V76.834ZM44.1352 76.6289C44.1352 75.4375 43.8813 74.4967 43.3734 73.8066C42.8656 73.1165 42.169 72.7715 41.2836 72.7715C40.1898 72.7715 39.3695 73.2565 38.8227 74.2266V79.2754C39.363 80.2389 40.1898 80.7207 41.3031 80.7207C42.169 80.7207 42.8559 80.3789 43.3637 79.6953C43.878 79.0052 44.1352 77.9831 44.1352 76.6289ZM50.968 76.6191C50.968 75.584 51.1698 74.653 51.5734 73.8262C51.9836 72.9993 52.55 72.3613 53.2727 71.9121C54.0018 71.4629 54.8319 71.2383 55.7629 71.2383C57.2017 71.2383 58.3638 71.7363 59.2492 72.7324C60.1411 73.7285 60.5871 75.0534 60.5871 76.707V76.834C60.5871 77.8626 60.3885 78.7871 59.9914 79.6074C59.6008 80.4212 59.0376 81.056 58.302 81.5117C57.5728 81.9674 56.7329 82.1953 55.7824 82.1953C54.3501 82.1953 53.188 81.6973 52.2961 80.7012C51.4107 79.7051 50.968 78.3867 50.968 76.7461V76.6191ZM52.7844 76.834C52.7844 78.0059 53.0546 78.9466 53.5949 79.6562C54.1418 80.3659 54.871 80.7207 55.7824 80.7207C56.7004 80.7207 57.4296 80.3626 57.9699 79.6465C58.5103 78.9238 58.7805 77.9147 58.7805 76.6191C58.7805 75.4603 58.5038 74.5228 57.9504 73.8066C57.4035 73.084 56.6744 72.7227 55.7629 72.7227C54.871 72.7227 54.1516 73.0775 53.6047 73.7871C53.0578 74.4967 52.7844 75.5124 52.7844 76.834ZM70.4375 82.1953C69.0052 82.1953 67.8398 81.7266 66.9414 80.7891C66.043 79.8451 65.5938 78.5853 65.5938 77.0098V76.6777C65.5938 75.6296 65.7923 74.6953 66.1895 73.875C66.5931 73.0482 67.153 72.4036 67.8691 71.9414C68.5918 71.4727 69.373 71.2383 70.2129 71.2383C71.5866 71.2383 72.6543 71.6908 73.416 72.5957C74.1777 73.5007 74.5586 74.7962 74.5586 76.4824V77.2344H67.4004C67.4264 78.276 67.7292 79.1191 68.3086 79.7637C68.8945 80.4017 69.6367 80.7207 70.5352 80.7207C71.1732 80.7207 71.7135 80.5905 72.1562 80.3301C72.599 80.0697 72.9863 79.7246 73.3184 79.2949L74.4219 80.1543C73.5365 81.515 72.2083 82.1953 70.4375 82.1953ZM70.2129 72.7227C69.4837 72.7227 68.8717 72.9896 68.377 73.5234C67.8822 74.0508 67.5762 74.793 67.459 75.75H72.752V75.6133C72.6999 74.6953 72.4525 73.9857 72.0098 73.4844C71.5671 72.9766 70.9681 72.7227 70.2129 72.7227ZM83.1492 77.498H81.8309V82H80.0145V71.4336H81.8309V75.9062H83.0125L86.5672 71.4336H88.7547L84.575 76.5117L89.1063 82H86.8113L83.1492 77.498ZM101.711 72.8984H98.1656V82H96.359V72.8984H92.8824V71.4336H101.711V72.8984ZM108.641 75.0762H111.385C112.583 75.0892 113.53 75.4017 114.227 76.0137C114.924 76.6257 115.272 77.4557 115.272 78.5039C115.272 79.5586 114.914 80.4049 114.198 81.043C113.482 81.681 112.518 82 111.307 82H106.834V71.4336H108.641V75.0762ZM119.041 82H117.225V71.4336H119.041V82ZM108.641 76.5508V80.5254H111.327C112.004 80.5254 112.528 80.3529 112.899 80.0078C113.27 79.6562 113.455 79.1777 113.455 78.5723C113.455 77.9863 113.273 77.5078 112.909 77.1367C112.551 76.7591 112.046 76.5638 111.395 76.5508H108.641Z" fill="url(#paint0_linear)"/>
<path d="M0.5 38.296L69.282 0.57027L138.064 38.296V113.704L69.282 151.43L0.5 113.704V38.296Z" fill="#352F2F" fill-opacity="0.27" stroke="#0B73D3"/>
<defs>
<linearGradient id="paint0_linear" x1="69.5" y1="63.4554" x2="69.5" y2="86.0085" gradientUnits="userSpaceOnUse">
<stop stop-color="#5190FE"/>
<stop offset="1" stop-color="#E28AFF"/>
</linearGradient>
</defs>
</svg>
