<svg viewBox="0 0 32 32" xmlns="http://www.w3.org/2000/svg">
    <path d="M17.3334 17.1158V18.6665C17.3334 19.4038 16.7374 19.9998 16.0001 19.9998C15.2627 19.9998 14.6667 19.4038 14.6667 18.6665V15.9998C14.6667 15.2625 15.2627 14.6665 16.0001 14.6665C17.1027 14.6665 18.0001 13.7692 18.0001 12.6665C18.0001 11.5638 17.1027 10.6665 16.0001 10.6665C14.8974 10.6665 14.0001 11.5638 14.0001 12.6665C14.0001 13.4038 13.4041 13.9998 12.6667 13.9998C11.9294 13.9998 11.3334 13.4038 11.3334 12.6665C11.3334 10.0932 13.4267 7.99984 16.0001 7.99984C18.5734 7.99984 20.6667 10.0932 20.6667 12.6665C20.6667 14.7732 19.2534 16.5372 17.3334 17.1158ZM16.0001 23.9998C15.2627 23.9998 14.6667 23.4038 14.6667 22.6665C14.6667 21.9292 15.2627 21.3332 16.0001 21.3332C16.7374 21.3332 17.3334 21.9292 17.3334 22.6665C17.3334 23.4038 16.7374 23.9998 16.0001 23.9998ZM16.0001 2.6665C8.64808 2.6665 2.66675 8.64784 2.66675 15.9998C2.66675 23.3518 8.64808 29.3332 16.0001 29.3332C23.3521 29.3332 29.3334 23.3518 29.3334 15.9998C29.3334 8.64784 23.3521 2.6665 16.0001 2.6665Z"/>
</svg>
