<svg width="16" height="16" viewBox="0 0 16 16" xmlns="http://www.w3.org/2000/svg">
<g clip-path="url(#clip0)">
<path fill-rule="evenodd" clip-rule="evenodd" d="M3 13.0143C3 11.7548 4.02094 10.7338 5.28045 10.7338H11.0289L12.2972 7.37456V2.31546C12.2972 1.54011 12.9252 0.912109 13.7006 0.912109C14.4759 0.912109 15.1039 1.54011 15.1039 2.31546V7.63067C15.1039 7.80083 15.0724 7.96923 15.0127 8.12711L13.2234 12.8634C13.1954 12.9389 13.1603 13.0108 13.1217 13.0774V15.5614C13.1217 15.8035 12.9252 15.9999 12.6832 15.9999H3.43855C3.19647 15.9999 3 15.8035 3 15.5614V13.0143ZM7.75 9.49992C9.26878 9.49992 10.5 8.26871 10.5 6.74992C10.5 5.23114 9.26878 3.99992 7.75 3.99992C6.23122 3.99992 5 5.23114 5 6.74992C5 8.26871 6.23122 9.49992 7.75 9.49992Z"/>
</g>
<defs>
<clipPath id="clip0">
<rect width="16" height="16" fill="white"/>
</clipPath>
</defs>
</svg>
