<svg viewBox="0 0 139 152" xmlns="http://www.w3.org/2000/svg">
<path d="M0.5 38.296L69.282 0.57027L138.064 38.296V113.704L69.282 151.43L0.5 113.704V38.296Z" fill="#352F2F" fill-opacity="0.27" stroke="#0B73D3"/>
<path d="M67.1665 27.3333C55.0353 27.3333 45.1665 40.6617 45.1665 57.0425C45.1665 65.9048 48.0668 73.8523 52.6428 79.2918C52.5548 79.6823 52.4998 80.0838 52.4998 80.5C52.4998 83.5378 54.962 86 57.9998 86C61.0377 86 63.4998 83.5378 63.4998 80.5C63.4998 77.4622 61.0377 75 57.9998 75C57.4223 75 56.8778 75.1137 56.3553 75.2787C52.8775 70.8402 50.6665 64.3208 50.6665 57.0425C50.6665 43.694 58.0677 32.8333 67.1665 32.8333C74.201 32.8333 80.2033 39.3362 82.5738 48.4497C84.6308 49.084 86.675 49.8833 88.6788 50.8477C86.5613 37.4313 77.7247 27.3333 67.1665 27.3333Z" fill="url(#paint0_linear)"/>
<path d="M90.0962 56.8207C82.86 52.4353 74.7438 50.5103 67.7625 51.3958C66.7542 50.1473 65.2288 49.3333 63.5 49.3333C60.4622 49.3333 58 51.7955 58 54.8333C58 57.8712 60.4622 60.3333 63.5 60.3333C65.832 60.3333 67.8138 58.8758 68.6132 56.828C74.3295 56.1332 81.1018 57.8015 87.2453 61.5268C98.9842 68.642 104.974 80.9033 100.596 88.8637C99.0795 91.621 96.4047 93.579 92.8627 94.5287C88.6717 95.6488 83.6832 95.251 78.6965 93.5607C77.1583 94.976 75.49 96.307 73.7007 97.5353C78.3793 99.5832 83.2267 100.659 87.7605 100.659C90.0338 100.659 92.2302 100.39 94.2853 99.8398C99.3105 98.496 103.16 95.6158 105.415 91.5128C111.196 81.006 104.323 65.4428 90.0962 56.8207Z" fill="url(#paint1_linear)"/>
<path d="M89.1667 73.152C89.1667 70.1233 86.7045 67.6667 83.6667 67.6667C80.6288 67.6667 78.1667 70.1233 78.1667 73.152C78.1667 74.3785 78.5847 75.5005 79.2667 76.4135C76.9218 81.5505 72.4027 86.6197 66.3197 90.3065C59.2338 94.6038 51.3138 96.1768 45.1355 94.5268C41.5935 93.5772 38.9187 91.6192 37.4025 88.8618C34.2822 83.1895 36.4473 75.3392 42.1875 68.7172C41.5953 66.6198 41.1572 64.4272 40.8932 62.163C31.5982 70.9575 27.86 82.9218 32.5845 91.5128C34.8395 95.6158 38.6895 98.496 43.7147 99.8398C45.7698 100.39 47.9643 100.659 50.2395 100.659C56.3738 100.659 63.0857 98.7013 69.1705 95.0127C76.2032 90.7502 81.4227 84.7882 84.2203 78.5823C86.9942 78.3018 89.1667 75.9918 89.1667 73.152Z" fill="url(#paint2_linear)"/>
<path d="M44.5896 113.823H41.5837V119H39.8875V106.203H44.1238C45.5652 106.203 46.6726 106.531 47.4461 107.188C48.2254 107.844 48.615 108.799 48.615 110.053C48.615 110.85 48.3982 111.544 47.9646 112.136C47.5369 112.728 46.9392 113.17 46.1716 113.463L49.1775 118.895V119H47.367L44.5896 113.823ZM41.5837 112.443H44.1765C45.0144 112.443 45.6795 112.227 46.1716 111.793C46.6697 111.359 46.9187 110.779 46.9187 110.053C46.9187 109.262 46.6814 108.655 46.2068 108.233C45.738 107.812 45.0584 107.598 44.1677 107.592H41.5837V112.443ZM57.5595 119.176C56.2704 119.176 55.2216 118.754 54.413 117.91C53.6044 117.061 53.2001 115.927 53.2001 114.509V114.21C53.2001 113.267 53.3788 112.426 53.7362 111.688C54.0995 110.943 54.6034 110.363 55.2479 109.947C55.8983 109.525 56.6014 109.314 57.3573 109.314C58.5936 109.314 59.5546 109.722 60.2401 110.536C60.9257 111.351 61.2684 112.517 61.2684 114.034V114.711H54.8261C54.8495 115.648 55.122 116.407 55.6434 116.987C56.1708 117.562 56.8387 117.849 57.6473 117.849C58.2216 117.849 58.7079 117.731 59.1063 117.497C59.5048 117.263 59.8534 116.952 60.1522 116.565L61.1454 117.339C60.3485 118.563 59.1532 119.176 57.5595 119.176ZM57.3573 110.65C56.7011 110.65 56.1503 110.891 55.705 111.371C55.2596 111.846 54.9843 112.514 54.8788 113.375H59.6425V113.252C59.5956 112.426 59.3729 111.787 58.9745 111.336C58.5761 110.879 58.037 110.65 57.3573 110.65ZM65.6426 114.166C65.6426 112.707 65.9883 111.535 66.6797 110.65C67.3711 109.76 68.2764 109.314 69.3955 109.314C70.5088 109.314 71.3906 109.695 72.041 110.457V105.5H73.667V119H72.1729L72.0938 117.98C71.4434 118.777 70.5381 119.176 69.3779 119.176C68.2764 119.176 67.377 118.725 66.6797 117.822C65.9883 116.92 65.6426 115.742 65.6426 114.289V114.166ZM67.2686 114.351C67.2686 115.429 67.4912 116.272 67.9365 116.882C68.3818 117.491 68.9971 117.796 69.7822 117.796C70.8135 117.796 71.5664 117.333 72.041 116.407V112.039C71.5547 111.143 70.8076 110.694 69.7998 110.694C69.0029 110.694 68.3818 111.002 67.9365 111.617C67.4912 112.232 67.2686 113.144 67.2686 114.351ZM84.9493 118.06C84.3165 118.804 83.3878 119.176 82.1632 119.176C81.1495 119.176 80.3761 118.883 79.8429 118.297C79.3155 117.705 79.0489 116.832 79.0431 115.678V109.49H80.6691V115.634C80.6691 117.075 81.255 117.796 82.4269 117.796C83.6691 117.796 84.4952 117.333 84.9054 116.407V109.49H86.5314V119H84.9845L84.9493 118.06ZM95.0803 112.962L97.1897 109.49H99.0881L95.9768 114.192L99.1848 119H97.3039L95.1067 115.44L92.9094 119H91.0198L94.2278 114.192L91.1164 109.49H92.9973L95.0803 112.962Z" fill="url(#paint3_linear)"/>
<defs>
<linearGradient id="paint0_linear" x1="66.9227" y1="25.9443" x2="66.9227" y2="83.4709" gradientUnits="userSpaceOnUse">
<stop stop-color="#5190FE"/>
<stop offset="1" stop-color="#E28AFF"/>
</linearGradient>
<linearGradient id="paint1_linear" x1="82.7321" y1="48.1181" x2="82.7321" y2="98.4466" gradientUnits="userSpaceOnUse">
<stop stop-color="#5190FE"/>
<stop offset="1" stop-color="#E28AFF"/>
</linearGradient>
<linearGradient id="paint2_linear" x1="59.8524" y1="61.2515" x2="59.8524" y2="98.9997" gradientUnits="userSpaceOnUse">
<stop stop-color="#5190FE"/>
<stop offset="1" stop-color="#E28AFF"/>
</linearGradient>
<linearGradient id="paint3_linear" x1="69" y1="101.503" x2="69" y2="122.095" gradientUnits="userSpaceOnUse">
<stop stop-color="#5190FE"/>
<stop offset="1" stop-color="#E28AFF"/>
</linearGradient>
</defs>
</svg>
