<svg width="24" height="24" viewBox="0 0 24 24" xmlns="http://www.w3.org/2000/svg">
<path d="M12.7525 19.2376C12.7525 19.6014 12.8917 19.9515 13.1415 20.216C13.6819 20.7882 14.5838 20.814 15.156 20.2736L22.8191 13.0362C22.8484 13.008 22.8484 13.008 22.8766 12.9787C23.417 12.4065 23.3912 11.5046 22.8191 10.9642L15.156 3.7269C14.8915 3.47707 14.5414 3.33789 14.1775 3.33789C13.3905 3.33789 12.7525 3.97588 12.7525 4.76289V7.64894C6.42552 8.88013 2.7748 13.0082 1.12395 19.3224L0.931904 20.1585C0.821169 20.6406 0.999281 21.1432 1.38886 21.4481C1.94344 21.882 2.74478 21.7842 3.1787 21.2296L3.72012 20.5356C5.98715 17.9044 8.72 16.6309 12.7525 16.4379V19.2376ZM14.0364 9.71397L15.0025 9.57618V6.67684L20.6391 12.0002L15.0025 17.3236V14.1619H13.8775C9.90439 14.1619 6.85344 15.0177 4.3288 16.8987C6.11814 12.8711 9.1922 10.4048 14.0364 9.71397Z"/>
</svg>
