<svg viewBox="0 0 12 12" xmlns="http://www.w3.org/2000/svg">
<path d="M10 7.52527L9.38762 8.52986L7.18567 7.317C7.02932 7.22716 6.88599 7.13732 6.7557 7.04747C6.62541 6.94946 6.51249 6.83512 6.41694 6.70444C6.54723 6.9903 6.61238 7.29658 6.61238 7.62328V10H5.37459V7.63553C5.37459 7.47218 5.38328 7.32108 5.40065 7.18224C5.42671 7.03522 5.47448 6.89229 5.54397 6.75345C5.44843 6.86779 5.33985 6.96988 5.21824 7.05972C5.09663 7.14957 4.962 7.23532 4.81433 7.317L2.62541 8.51761L2.01303 7.51302L4.20195 6.3124C4.35831 6.23073 4.51031 6.16539 4.65798 6.11639C4.80565 6.05921 4.962 6.02246 5.12704 6.00613C4.79696 5.96529 4.4886 5.85911 4.20195 5.6876L2 4.47473L2.61238 3.47014L4.81433 4.683C4.97068 4.77284 5.10966 4.86677 5.23127 4.96478C5.36156 5.06279 5.47448 5.17713 5.57003 5.30781C5.50054 5.16896 5.44843 5.02195 5.41368 4.86677C5.38762 4.71159 5.37459 4.55232 5.37459 4.38897V2H6.61238V4.36447C6.61238 4.52782 6.59935 4.68709 6.57329 4.84227C6.55592 4.98928 6.51683 5.13221 6.45603 5.27106C6.55157 5.14854 6.66015 5.04237 6.78176 4.95253C6.90337 4.86269 7.038 4.77284 7.18567 4.683L9.37459 3.49464L9.98697 4.49923L7.79805 5.6876C7.65038 5.76927 7.50271 5.83869 7.35505 5.89586C7.21607 5.95304 7.0684 5.98979 6.91205 6.00613C7.20738 6.03879 7.50271 6.14089 7.79805 6.3124L10 7.52527Z"/>
</svg>
