<svg viewBox="0 0 139 152" xmlns="http://www.w3.org/2000/svg">
<path d="M0.5 38.296L69.282 0.57027L138.064 38.296V113.704L69.282 151.43L0.5 113.704V38.296Z" fill="#352F2F" fill-opacity="0.27" stroke="#0B73D3"/>
  <path d="M52.5238 112.823H49.5179V118H47.8216V105.203H52.0579C53.4993 105.203 54.6068 105.531 55.3802 106.188C56.1595 106.844 56.5491 107.799 56.5491 109.053C56.5491 109.85 56.3323 110.544 55.8988 111.136C55.471 111.728 54.8734 112.17 54.1058 112.463L57.1116 117.895V118H55.3011L52.5238 112.823ZM49.5179 111.443H52.1107C52.9486 111.443 53.6136 111.227 54.1058 110.793C54.6038 110.359 54.8529 109.779 54.8529 109.053C54.8529 108.262 54.6155 107.655 54.1409 107.233C53.6722 106.812 52.9925 106.598 52.1019 106.592H49.5179V111.443ZM64.7377 111.962L66.8471 108.49H68.7455L65.6342 113.192L68.8422 118H66.9614L64.7641 114.44L62.5668 118H60.6772L63.8852 113.192L60.7739 108.49H62.6547L64.7377 111.962ZM78.9732 105.203H80.6695V114.265C80.6695 115.489 80.3004 116.447 79.5621 117.139C78.8296 117.83 77.8511 118.176 76.6265 118.176C75.355 118.176 74.3648 117.851 73.6558 117.2C72.9468 116.55 72.5923 115.639 72.5923 114.467H74.2798C74.2798 115.199 74.4791 115.771 74.8775 116.181C75.2818 116.591 75.8648 116.796 76.6265 116.796C77.3238 116.796 77.8863 116.576 78.314 116.137C78.7476 115.697 78.9673 115.082 78.9732 114.291V105.203ZM91.7057 115.478C91.7057 115.038 91.5387 114.698 91.2048 114.458C90.8766 114.212 90.2995 114.001 89.4733 113.825C88.653 113.649 87.9997 113.438 87.5134 113.192C87.0329 112.946 86.6755 112.653 86.4411 112.313C86.2126 111.974 86.0983 111.569 86.0983 111.101C86.0983 110.321 86.4264 109.662 87.0827 109.123C87.7448 108.584 88.5886 108.314 89.6139 108.314C90.6921 108.314 91.5651 108.593 92.2331 109.149C92.9069 109.706 93.2438 110.418 93.2438 111.285H91.6091C91.6091 110.84 91.4186 110.456 91.0378 110.134C90.6628 109.812 90.1882 109.65 89.6139 109.65C89.0221 109.65 88.5593 109.779 88.2253 110.037C87.8913 110.295 87.7243 110.632 87.7243 111.048C87.7243 111.44 87.8796 111.736 88.1901 111.936C88.5007 112.135 89.0602 112.325 89.8688 112.507C90.6833 112.688 91.3425 112.905 91.8464 113.157C92.3503 113.409 92.7223 113.714 92.9626 114.071C93.2087 114.423 93.3317 114.854 93.3317 115.363C93.3317 116.213 92.9919 116.896 92.3122 117.411C91.6325 117.921 90.7507 118.176 89.6667 118.176C88.905 118.176 88.2311 118.041 87.6452 117.771C87.0593 117.502 86.5993 117.127 86.2653 116.646C85.9372 116.16 85.7731 115.636 85.7731 115.073H87.3991C87.4284 115.618 87.6452 116.052 88.0495 116.374C88.4596 116.69 88.9987 116.849 89.6667 116.849C90.2819 116.849 90.7741 116.726 91.1432 116.479C91.5182 116.228 91.7057 115.894 91.7057 115.478Z" fill="url(#paint0_linear)"/>
  <path d="M34.3276 69.9109C32.7447 65.224 32.2881 60.2767 33.2013 55.1848C33.597 53.0728 34.2059 51.0476 34.8756 48.9934C34.8756 48.9934 39.0765 35.8874 53.2926 29.8986C53.2926 29.8986 58.1937 27.4394 65.5605 27.2659C65.5605 27.2659 64.5559 26.34 63.9167 25.935C60.4464 23.7362 55.2713 23.0129 52.1359 26.1086C51.1922 27.0344 50.4007 28.047 49.5179 28.9728C48.5133 30.0144 47.2957 30.8823 45.8954 31.3741C44.6777 31.8081 43.4601 31.7213 42.212 31.9238C40.9334 32.1264 39.6244 32.5603 38.5894 33.3415C37.4631 34.2094 37.0065 35.3667 36.8847 36.6975C36.7629 37.7391 36.7934 38.8095 36.7325 39.8511C36.5803 42.9178 35.5453 43.7857 33.2317 45.4927C32.2576 46.1871 31.4357 47.1129 30.8269 48.0965C29.0004 51.1633 31.9228 54.3457 32.075 57.4414C32.1054 58.0779 32.0445 58.7144 31.801 59.322C31.5575 59.9874 31.0704 60.4214 30.6747 60.9711C30.1267 61.6944 29.7614 62.5623 29.9136 63.4592C30.0658 64.3561 30.5529 65.1951 31.0095 65.9762C31.8923 67.3649 32.9882 68.609 34.145 69.7952C34.2059 69.7952 34.2668 69.853 34.3276 69.9109" fill="#E32286"/>
<path d="M92.4096 81.0206C99.4111 78.1274 102.394 73.1223 102.394 73.1223C108.939 64.6454 106.717 55.7055 106.717 55.7055C102.547 64.3271 98.7414 66.6995 98.7414 66.6995C109 51.8576 98.8023 42.8889 98.8023 42.8889C102.973 51.3369 97.4324 61.6365 97.4324 61.6365C92.7749 70.9524 86.1691 74.2796 86.1691 74.2796C93.5359 75.5815 98.9545 70.8656 98.9545 70.8656C88.3913 81.715 76.9453 81.1942 76.9453 81.1942C81.7551 86.3151 88.9697 85.8811 88.9697 85.8811C79.5329 87.9931 70.6744 85.0131 63.3989 79.2558C62.0291 78.1853 60.7201 77.0281 59.5024 75.784C59.5024 75.784 58.4065 74.6846 58.1934 74.3953L58.163 74.3664C58.0108 79.7187 63.886 84.6949 63.886 84.6949C56.5192 81.8017 53.1402 75.5236 53.1402 75.5236C53.1402 75.5236 48.1782 67.4807 51.7703 58.3094C55.3624 49.1381 66.23 47.1707 66.23 47.1707C75.2102 51.3079 82.8205 52.6099 82.8205 52.6099C98.8632 55.1558 97.9499 47.6915 97.9499 47.6915C98.1021 41.2687 87.9042 34.4409 87.9042 34.4409C69.7307 21.6242 53.2924 29.8986 53.2924 29.8986C39.0762 35.8875 34.8753 48.9934 34.8753 48.9934C34.2056 51.0476 33.5968 53.0728 33.2011 55.1848C31.6485 63.7774 33.9925 71.9072 39.0762 79.1401C46.991 90.3655 59.8373 94.2423 59.8373 94.2423C78.8632 100.376 91.8616 91.3491 91.8616 91.3491C103.825 83.5376 106.23 74.511 106.23 74.511C96.58 81.686 92.4096 81.0206 92.4096 81.0206ZM77.5542 38.8095C78.4674 38.8095 79.198 39.5039 79.198 40.3718C79.198 41.2398 78.4674 41.9341 77.5542 41.9341C76.6409 41.9341 75.9103 41.2398 75.9103 40.3718C75.9103 39.5039 76.6409 38.8095 77.5542 38.8095Z" fill="url(#paint1_linear)"/>
<path d="M97.9194 47.6626C98.0716 41.2398 87.8737 34.412 87.8737 34.412C69.7002 21.6242 53.2619 29.8986 53.2619 29.8986C39.0457 35.8875 34.8448 48.9934 34.8448 48.9934C34.0229 51.2212 33.2923 54.6351 33.2923 54.6351C32.4095 58.9169 32.8052 62.8806 32.8052 62.8806C33.1705 66.6706 34.0533 69.2166 34.0533 69.2166C34.9666 71.9361 35.3928 72.7751 35.3928 72.7751C35.3623 72.6883 35.2101 72.0519 35.2101 72.0519C35.2101 72.0519 33.9316 66.2077 35.1188 60.595C35.1188 60.595 36.1538 54.7508 40.3547 50.2375C40.3547 50.2375 47.1736 41.0083 59.8676 44.6248C59.8676 44.6248 62.6074 45.5506 63.5511 46.0135C64.4947 46.4475 66.1386 47.1129 66.1386 47.1129C75.1188 51.2501 82.7291 52.552 82.7291 52.552C98.8327 55.1269 97.9194 47.6626 97.9194 47.6626V47.6626ZM77.5541 41.9631C76.6409 41.9631 75.9103 41.2687 75.9103 40.4008C75.9103 39.5328 76.6409 38.8385 77.5541 38.8385C78.4673 38.8385 79.1979 39.5328 79.1979 40.4008C79.1979 41.2687 78.4673 41.9631 77.5541 41.9631Z" fill="url(#paint2_radial)"/>
<path d="M67.143 36.0321L56.7625 32.9654C56.7016 32.9654 56.3972 32.8207 55.8492 32.9654C55.8492 32.9654 49.7305 34.4409 50.796 37.6234C50.796 37.6234 51.4352 39.6196 53.1704 41.558L64.5859 41.0373L67.143 36.0321Z" fill="url(#paint3_linear)"/>
<defs>
<linearGradient id="paint0_linear" x1="70.2822" y1="100.503" x2="70.2822" y2="121.095" gradientUnits="userSpaceOnUse">
<stop stop-color="#5190FE"/>
<stop offset="1" stop-color="#E28AFF"/>
</linearGradient>
<linearGradient id="paint1_linear" x1="41.6017" y1="90.8576" x2="77.4438" y2="50.738" gradientUnits="userSpaceOnUse">
<stop stop-color="#E01D84"/>
<stop offset="0.401" stop-color="#DF1D85"/>
<stop offset="0.77" stop-color="#932C87"/>
<stop offset="1" stop-color="#5D2F88"/>
</linearGradient>
<radialGradient id="paint2_radial" cx="0" cy="0" r="1" gradientUnits="userSpaceOnUse" gradientTransform="translate(83.294 42.398) rotate(0.130145) scale(37.0114 29.4139)">
<stop stop-color="#E01D84"/>
<stop offset="0.139" stop-color="#DE1E85"/>
<stop offset="0.285" stop-color="#D62085"/>
<stop offset="0.434" stop-color="#C92386"/>
<stop offset="0.586" stop-color="#B72786"/>
<stop offset="0.739" stop-color="#9D2B87"/>
<stop offset="0.891" stop-color="#7C2E88"/>
<stop offset="1" stop-color="#5D2F88"/>
</radialGradient>
<linearGradient id="paint3_linear" x1="50.6474" y1="37.2287" x2="67.1342" y2="37.2287" gradientUnits="userSpaceOnUse">
<stop stop-color="#E01D84"/>
<stop offset="0.238" stop-color="#DA1E85"/>
<stop offset="0.658" stop-color="#C72085"/>
<stop offset="0.999" stop-color="#B52284"/>
</linearGradient>
</defs>
</svg>
