<svg viewBox="0 0 139 152" xmlns="http://www.w3.org/2000/svg">
<path d="M0.5 38.296L69.282 0.57027L138.064 38.296V113.704L69.282 151.43L0.5 113.704V38.296Z" fill="#352F2F" fill-opacity="0.27" stroke="#0B73D3"/>
<path d="M104.09 79.586C101.27 79.6007 98.8279 80.2772 96.7819 81.2873C96.0339 79.7932 95.2749 78.4787 95.1484 77.5015C94.9999 76.3612 94.8276 75.6792 95.0072 74.3207C95.1869 72.9622 95.9734 71.0372 95.9624 70.8923C95.9514 70.7475 95.7864 70.0563 94.1602 70.0435C92.5341 70.0325 91.1426 70.357 90.9794 70.786C90.8162 71.215 90.5027 72.1812 90.3084 73.1895C90.0242 74.6635 87.0616 79.9233 85.3804 82.6733C84.8304 81.599 84.3629 80.653 84.2658 79.905C84.1173 78.7647 83.9449 78.0827 84.1246 76.7242C84.3042 75.3657 85.0907 73.4407 85.0797 73.2958C85.0687 73.151 84.9037 72.4598 83.2776 72.447C81.6514 72.436 80.2599 72.7605 80.0968 73.1895C79.9336 73.6185 79.7576 74.6213 79.4257 75.593C79.0921 76.5628 75.1559 85.3353 74.1237 87.6105C73.5976 88.7692 73.1411 89.7005 72.8184 90.3348C72.8166 90.333 72.8166 90.3312 72.8166 90.3312C72.8166 90.3312 72.7964 90.3733 72.7634 90.4448C72.4866 90.9857 72.3234 91.2845 72.3234 91.2845C72.3234 91.2845 72.3252 91.2882 72.3289 91.2955C72.1089 91.6933 71.8742 92.0618 71.7587 92.0618C71.6781 92.0618 71.5149 91.004 71.7936 89.552C72.3802 86.5087 73.7864 81.764 73.7736 81.599C73.7662 81.5147 74.0357 80.6878 72.8551 80.2552C71.7074 79.8353 71.2986 80.5357 71.1941 80.5375C71.0932 80.5393 71.0181 80.785 71.0181 80.785C71.0181 80.785 72.2959 75.4482 68.5797 75.4482C66.2551 75.4482 63.0357 77.991 61.4499 80.2955C60.4489 80.8418 58.3057 82.0115 56.0342 83.26C55.1616 83.7403 54.2706 84.2298 53.4254 84.6955C53.3686 84.6313 53.3099 84.569 53.2512 84.5048C48.7431 79.696 40.4124 76.2952 40.7644 69.829C40.8927 67.4787 41.7104 61.2893 56.7749 53.7837C69.1151 47.6347 78.9949 49.3268 80.7018 53.076C83.1401 58.4348 75.4217 68.3917 62.6067 69.829C57.7246 70.3772 55.1524 68.4833 54.5126 67.7793C53.8397 67.0368 53.7389 67.0038 53.4877 67.1432C53.0789 67.3705 53.3374 68.025 53.4877 68.4155C53.8709 69.411 55.4402 71.1765 58.1169 72.0565C60.4727 72.8302 66.2056 73.2537 73.1374 70.5715C80.9034 67.5685 86.9663 59.2122 85.1843 52.229C83.3729 45.1267 71.5956 42.791 60.4489 46.751C53.8067 49.1087 46.6256 52.8083 41.4611 57.6373C35.3212 63.3793 34.3422 68.3788 34.7456 70.467C36.1792 77.8883 46.4074 82.721 50.5031 86.3015C50.3014 86.4133 50.1107 86.5178 49.9384 86.6132C47.8851 87.6288 40.0879 91.7098 38.1372 96.02C35.9244 100.909 38.4892 104.418 40.1869 104.891C45.4467 106.354 50.8441 103.722 53.7462 99.3952C56.6466 95.0703 56.2927 89.4365 54.9617 86.8662C54.9452 86.835 54.9269 86.8038 54.9104 86.7708C55.4402 86.4573 55.9811 86.1383 56.5164 85.823C57.5614 85.2088 58.5881 84.6368 59.4772 84.1528C58.9786 85.5168 58.6137 87.154 58.4249 89.5172C58.2012 92.2928 59.3397 95.8807 60.8284 97.2923C61.4847 97.9138 62.2731 97.9285 62.7717 97.9285C64.5042 97.9285 65.2944 96.4875 66.1652 94.7825C67.2322 92.6925 68.1801 90.2578 68.1801 90.2578C68.1801 90.2578 66.9921 96.8322 70.2297 96.8322C71.4104 96.8322 72.5966 95.3013 73.1264 94.5222C73.1282 94.5313 73.1282 94.535 73.1282 94.535C73.1282 94.535 73.1594 94.4837 73.2199 94.3828C73.3427 94.1958 73.4124 94.0767 73.4124 94.0767C73.4124 94.0767 73.4142 94.0638 73.4179 94.0418C73.8927 93.2187 74.9451 91.3413 76.5217 88.2448C78.5604 84.2445 80.5147 79.2322 80.5147 79.2322C80.5147 79.2322 80.6962 80.4568 81.2921 82.4845C81.6422 83.6762 82.3866 84.9943 82.9751 86.2593C82.5021 86.9157 82.2124 87.2915 82.2124 87.2915C82.2124 87.2915 82.2142 87.2988 82.2197 87.3117C81.8421 87.814 81.4186 88.3548 80.9749 88.8828C79.3653 90.7987 77.4494 92.9877 77.1927 93.6183C76.8902 94.3627 76.9617 94.909 77.5466 95.3508C77.9737 95.6717 78.7327 95.723 79.5266 95.6698C80.9731 95.5727 81.9888 95.2133 82.4911 94.9952C83.2739 94.7183 84.1851 94.2838 85.0394 93.655C86.6179 92.4945 87.5694 90.8353 87.4777 88.6353C87.4264 87.4235 87.0414 86.2227 86.5519 85.0897C86.6949 84.8843 86.8379 84.6753 86.9827 84.4663C89.4706 80.829 91.4011 76.8323 91.4011 76.8323C91.4011 76.8323 91.5826 78.057 92.1784 80.0847C92.4791 81.1095 93.0749 82.2297 93.6102 83.326C91.2709 85.2272 89.8208 87.4363 89.3166 88.8847C88.3852 91.565 89.1149 92.7787 90.4826 93.0555C91.1022 93.1802 91.9786 92.896 92.6367 92.6173C93.4562 92.346 94.4407 91.8932 95.3611 91.2167C96.9396 90.0562 98.4576 88.4318 98.3659 86.2337C98.3237 85.2327 98.0524 84.239 97.6839 83.2857C99.6676 82.4588 102.234 82.0005 105.505 82.3818C112.521 83.2013 113.896 87.5812 113.634 89.4145C113.37 91.2478 111.9 92.2562 111.406 92.5605C110.915 92.8648 110.765 92.9712 110.805 93.1967C110.866 93.5248 111.093 93.5138 111.513 93.4423C112.09 93.3452 115.196 91.9518 115.33 88.5675C115.497 84.2665 111.381 79.5475 104.09 79.586ZM50.0117 97.8167C47.6871 100.352 44.4421 101.309 43.0487 100.503C41.5454 99.6317 42.1412 95.899 44.9921 93.2077C46.7301 91.5687 48.9741 90.058 50.4627 89.1285C50.8019 88.925 51.2987 88.6262 51.9037 88.2632C52.0046 88.2063 52.0614 88.1752 52.0614 88.1752L52.0596 88.1715C52.1769 88.1018 52.2961 88.0303 52.4189 87.9552C53.4584 91.785 52.4519 95.1565 50.0117 97.8167ZM66.9426 86.3088C66.1341 88.2815 64.4401 93.3305 63.4079 93.0592C62.5224 92.8263 61.9834 88.9892 63.2319 85.2125C63.8589 83.3113 65.2009 81.0398 65.9892 80.158C67.2579 78.739 68.6549 78.2752 68.9941 78.8508C69.4249 79.5842 67.4504 85.0713 66.9426 86.3088ZM80.9291 92.9822C80.5862 93.1618 80.2709 93.2737 80.1261 93.1875C80.0179 93.1233 80.2672 92.8868 80.2672 92.8868C80.2672 92.8868 82.0162 91.004 82.7056 90.1478C83.1071 89.6492 83.5709 89.057 84.0769 88.397C84.0806 88.463 84.0824 88.529 84.0824 88.5932C84.0788 90.8482 81.9007 92.3698 80.9291 92.9822ZM91.7036 90.5255C91.4469 90.344 91.4909 89.7555 92.3324 87.9203C92.6624 87.1998 93.4177 85.988 94.7267 84.8293C94.8789 85.306 94.9706 85.7625 94.9687 86.1878C94.9522 89.0258 92.9283 90.0855 91.7036 90.5255Z" fill="url(#paint0_linear)"/>
<defs>
<linearGradient id="paint0_linear" x1="75.0006" y1="43.4007" x2="75.0006" y2="102.692" gradientUnits="userSpaceOnUse">
<stop stop-color="#5190FE"/>
<stop offset="1" stop-color="#E28AFF"/>
</linearGradient>
</defs>
</svg>
