<svg viewBox="0 0 28 28" xmlns="http://www.w3.org/2000/svg">
    <path d="M2.40771 9.46896L12.2427 4.1023C12.9427 3.72896 13.7827 3.72896 14.4827 4.1023L25.5894 10.1573C25.9627 10.3673 26.196 10.7523 26.196 11.184V18.6623C26.196 19.304 25.671 19.829 25.0294 19.829C24.3877 19.829 23.8627 19.304 23.8627 18.6623V11.7673L14.4827 16.889C13.7827 17.274 12.9427 17.274 12.2427 16.889L2.40771 11.5223C1.60271 11.079 1.60271 9.9123 2.40771 9.46896ZM5.19604 18.6506V15.3723L12.2427 19.2223C12.9427 19.6073 13.7827 19.6073 14.4827 19.2223L21.5294 15.3723V18.6506C21.5294 19.5023 21.0627 20.2956 20.316 20.704L14.4827 23.889C13.7827 24.274 12.9427 24.274 12.2427 23.889L6.40937 20.704C5.66271 20.2956 5.19604 19.5023 5.19604 18.6506Z"/>
</svg>
