<svg viewBox="0 0 28 28" xmlns="http://www.w3.org/2000/svg">
<circle cx="14" cy="14" r="14" fill="#2B3858"/>
<path fill-rule="evenodd" clip-rule="evenodd" d="M17.9999 16.0005C17.4553 16.0005 16.9619 16.2205 16.6006 16.5745L11.3106 14.2238C11.3193 14.1498 11.3333 14.0765 11.3333 14.0005C11.3333 13.9245 11.3193 13.8512 11.3106 13.7772L16.6006 11.4265C16.9619 11.7805 17.4553 12.0005 17.9999 12.0005C19.1026 12.0005 19.9999 11.1032 19.9999 10.0005C19.9999 8.89782 19.1026 8.00049 17.9999 8.00049C16.8973 8.00049 15.9999 8.89782 15.9999 10.0005C15.9999 10.0765 16.0139 10.1498 16.0226 10.2238L10.7326 12.5745C10.3713 12.2205 9.87792 12.0005 9.33325 12.0005C8.23059 12.0005 7.33325 12.8978 7.33325 14.0005C7.33325 15.1032 8.23059 16.0005 9.33325 16.0005C9.87792 16.0005 10.3713 15.7805 10.7326 15.4265L16.0226 17.7772C16.0139 17.8512 15.9999 17.9245 15.9999 18.0005C15.9999 19.1032 16.8973 20.0005 17.9999 20.0005C19.1026 20.0005 19.9999 19.1032 19.9999 18.0005C19.9999 16.8978 19.1026 16.0005 17.9999 16.0005Z" fill="white"/>
</svg>
