<svg viewBox="0 0 18 18" xmlns="http://www.w3.org/2000/svg">
<path fill-rule="evenodd" clip-rule="evenodd" d="M2.33329 8.99984C2.33329 7.4615 2.86246 6.04817 3.73996 4.919L13.0808 14.2598C11.9516 15.1382 10.5383 15.6665 8.99996 15.6665C5.32413 15.6665 2.33329 12.6757 2.33329 8.99984ZM15.6666 8.99984C15.6666 10.5382 15.1375 11.9515 14.26 13.0807L4.91913 3.73984C6.04829 2.8615 7.46163 2.33317 8.99996 2.33317C12.6758 2.33317 15.6666 5.324 15.6666 8.99984ZM8.99996 0.666504C4.40496 0.666504 0.666626 4.40484 0.666626 8.99984C0.666626 13.5948 4.40496 17.3332 8.99996 17.3332C13.595 17.3332 17.3333 13.5948 17.3333 8.99984C17.3333 4.40484 13.595 0.666504 8.99996 0.666504Z"/>
</svg>
