<svg width="24" height="24" viewBox="0 0 24 24" xmlns="http://www.w3.org/2000/svg">
<path d="M12 0C18.6274 0 24 5.37258 24 12C24 18.6274 18.6274 24 12 24C5.37258 24 0 18.6274 0 12C0 5.37258 5.37258 0 12 0ZM12 2.25C6.61522 2.25 2.25 6.61522 2.25 12C2.25 17.3848 6.61522 21.75 12 21.75C17.3848 21.75 21.75 17.3848 21.75 12C21.75 6.61522 17.3848 2.25 12 2.25ZM15.5218 14.5163C15.8829 14.0108 16.5856 13.8938 17.0911 14.2549C17.5967 14.6161 17.7137 15.3188 17.3525 15.8243C17.1419 16.1191 16.9062 16.3974 16.6469 16.6568C14.0774 19.2262 9.91145 19.2262 7.34198 16.6568C7.08296 16.3977 6.84754 16.1198 6.63712 15.8254C6.27582 15.32 6.3927 14.6173 6.89818 14.256C7.40365 13.8947 8.10631 14.0116 8.4676 14.5171C8.60617 14.7109 8.76151 14.8943 8.93297 15.0658C10.6238 16.7566 13.3651 16.7566 15.0559 15.0658C15.2275 14.8941 15.3831 14.7105 15.5218 14.5163ZM8.0625 7.87903C8.99448 7.87903 9.75 8.63455 9.75 9.56653C9.75 10.4985 8.99448 11.254 8.0625 11.254C7.13052 11.254 6.375 10.4985 6.375 9.56653C6.375 8.63455 7.13052 7.87903 8.0625 7.87903ZM15.93 7.87903C16.862 7.87903 17.625 8.63455 17.625 9.56653C17.625 10.4985 16.8695 11.254 15.9375 11.254C15.0055 11.254 14.25 10.4985 14.25 9.56653C14.25 8.63455 14.998 7.87903 15.93 7.87903Z" />
</svg>
