<svg viewBox="0 0 24 24" xmlns="http://www.w3.org/2000/svg">
<path d="M15.0565 12.2058C15.6309 11.8306 16.407 11.9827 16.7899 12.5455C17.1729 13.1083 17.0177 13.8687 16.4433 14.2439C15.5755 14.8107 14.693 15.2123 13.7997 15.4429L13.726 15.459L13.6492 15.5446C14.4171 16.4044 15.3226 17.4184 16.3658 18.5866L16.6906 18.9503C17.1452 19.4593 17.0925 20.2331 16.573 20.6785C16.0535 21.1239 15.2638 21.0723 14.8092 20.5633L12 17.417L9.21781 20.5757C8.79668 21.0535 8.08102 21.1347 7.56268 20.784L7.45481 20.7022C6.93234 20.2601 6.87457 19.4867 7.32578 18.9748C8.48979 17.6541 9.49445 16.5143 10.3398 15.5552L10.2462 15.4546C9.33726 15.226 8.43939 14.8205 7.55674 14.2439C6.98235 13.8687 6.82713 13.1083 7.21006 12.5455C7.59299 11.9827 8.36906 11.8306 8.94346 12.2058C9.99712 12.8941 11.0099 13.2249 12 13.2249C12.9901 13.2249 14.0029 12.8941 15.0565 12.2058Z"/>
<path d="M11.9999 12C9.5146 12 7.49988 9.98528 7.49988 7.5C7.49988 5.01472 9.5146 3 11.9999 3C14.4852 3 16.4999 5.01472 16.4999 7.5C16.4999 9.98528 14.4852 12 11.9999 12ZM11.9999 9.32285C13.0066 9.32285 13.8227 8.50673 13.8227 7.5C13.8227 6.49327 13.0066 5.67715 11.9999 5.67715C10.9931 5.67715 10.177 6.49327 10.177 7.5C10.177 8.50673 10.9931 9.32285 11.9999 9.32285Z"/>
</svg>
