<svg width="28" height="28" viewBox="0 0 28 28" fill="none" xmlns="http://www.w3.org/2000/svg">
<circle cx="14" cy="14" r="14" fill="#2B3858"/>
<path fill-rule="evenodd" clip-rule="evenodd" d="M14.9563 8.11666C15.1603 7.97666 15.425 7.96066 15.6443 8.07666C15.863 8.19199 16.0003 8.41933 16.0003 8.66666V19.3333C16.0003 19.5807 15.863 19.808 15.6443 19.9233C15.547 19.9747 15.4397 20 15.3337 20C15.201 20 15.0697 19.9607 14.9563 19.8833L10.6823 16.952H7.33366C6.96499 16.952 6.66699 16.654 6.66699 16.2853V11.714C6.66699 11.3453 6.96499 11.0473 7.33366 11.0473H10.6823L14.9563 8.11666ZM19.0919 9.48605C18.8086 9.25139 18.3879 9.29072 18.1532 9.57472C17.9186 9.85805 17.9579 10.2781 18.2419 10.5134C19.3752 11.4527 19.9999 12.6907 19.9999 14.0001C19.9999 15.3087 19.3752 16.5467 18.2419 17.4861C17.9579 17.7214 17.9186 18.1414 18.1532 18.4247C18.2852 18.5841 18.4752 18.6667 18.6672 18.6667C18.8166 18.6667 18.9672 18.6161 19.0919 18.5134C20.5372 17.3161 21.3333 15.7127 21.3333 14.0001C21.3333 12.2867 20.5372 10.6834 19.0919 9.48605ZM18.1863 11.5819C17.955 11.2952 17.5357 11.2505 17.249 11.4805C16.9623 11.7112 16.9163 12.1305 17.147 12.4179C17.8377 13.2752 17.8377 14.7245 17.147 15.5819C16.9163 15.8692 16.9623 16.2885 17.249 16.5192C17.3723 16.6185 17.5197 16.6665 17.6663 16.6665C17.861 16.6665 18.0543 16.5812 18.1863 16.4179C19.277 15.0619 19.277 12.9379 18.1863 11.5819Z" fill="white"/>
</svg>
