<svg viewBox="0 0 20 20" xmlns="http://www.w3.org/2000/svg">
<path d="M2.70086 6.0725L9.80169 9.93583C9.92419 10.0025 10.0759 10.0025 10.1992 9.93583L17.3 6.0725C17.5859 5.91667 17.5609 5.51833 17.2567 5.39583L10.1567 2.53C10.0567 2.49 9.94336 2.49 9.84336 2.53L2.74336 5.39583C2.44003 5.51833 2.41503 5.91667 2.70086 6.0725ZM17.2569 8.88017L15.7319 8.23017L10.1994 11.2402C10.076 11.3068 9.92437 11.3068 9.80103 11.2402L4.26853 8.23017L2.74353 8.88017C2.43937 9.00933 2.41437 9.431 2.70103 9.59517L9.80103 13.676C9.92437 13.7468 10.076 13.7468 10.1994 13.676L17.2994 9.59517C17.586 9.431 17.561 9.00933 17.2569 8.88017ZM15.9594 12.0188L17.2569 12.5805C17.561 12.7122 17.586 13.1397 17.2994 13.3063L10.1994 17.4463C10.076 17.518 9.92437 17.518 9.80103 17.4463L2.70103 13.3063C2.41437 13.1397 2.43937 12.7122 2.74353 12.5805L4.04103 12.0188L9.80103 15.153C9.92437 15.2197 10.076 15.2197 10.1994 15.153L15.9594 12.0188Z"/>
</svg>
