<svg width="16" height="16" viewBox="0 0 16 16" xmlns="http://www.w3.org/2000/svg">
<path fill-rule="evenodd" clip-rule="evenodd" d="M8.00004 11.3893C8.12594 11.3893 8.25183 11.4187 8.36664 11.4766L11.3509 13L10.7832 9.78549C10.7381 9.53341 10.8244 9.27668 11.0128 9.09805L13.4167 6.82771L10.0888 6.35447C9.83146 6.31813 9.60897 6.16115 9.49337 5.93381L8.00004 3L6.50672 5.93381C6.39111 6.16115 6.16862 6.31813 5.91129 6.35447L2.58337 6.82771L4.98726 9.09805C5.17571 9.27668 5.26201 9.53341 5.21688 9.78549L4.64917 13L7.63344 11.4766C7.74825 11.4187 7.87415 11.3893 8.00004 11.3893ZM12.4035 15.4997C12.2776 15.4997 12.1517 15.4705 12.0369 15.4103L8.00004 13.3022L3.96315 15.4103C3.69555 15.5496 3.37254 15.5251 3.13107 15.3478C2.88723 15.1705 2.7661 14.8706 2.81676 14.5739L3.5863 10.1202L0.324485 6.96678C0.106766 6.75708 0.0291795 6.44213 0.121809 6.15487C0.213646 5.86762 0.462241 5.65871 0.760713 5.61518L5.27421 4.95996L7.29068 0.90358C7.55827 0.365473 8.44181 0.365473 8.70941 0.90358L10.7259 4.95996L15.2394 5.61518C15.5378 5.65871 15.7864 5.86762 15.8783 6.15487C15.9709 6.44213 15.8933 6.75708 15.6756 6.96678L12.4138 10.1202L13.1833 14.5739C13.234 14.8706 13.1129 15.1705 12.869 15.3478C12.732 15.4491 12.5682 15.4997 12.4035 15.4997Z"/>
</svg>
