<svg viewBox="0 0 139 156" xmlns="http://www.w3.org/2000/svg">
<path d="M0.5 42.296L69.282 4.57027L138.064 42.296V117.704L69.282 155.43L0.5 117.704V42.296Z" fill="#352F2F" fill-opacity="0.27" stroke="#0B73D3"/>
  <path d="M26.7158 105.592H22.6025V117H20.9238V105.592H16.8193V104.203H26.7158V105.592ZM33.7179 114.618L35.9327 107.49H37.6729L33.8497 118.468C33.2579 120.05 32.3175 120.841 31.0284 120.841L30.7208 120.814L30.1143 120.7V119.382L30.5538 119.417C31.1046 119.417 31.5323 119.306 31.837 119.083C32.1475 118.86 32.4024 118.453 32.6016 117.861L32.962 116.895L29.5694 107.49H31.3448L33.7179 114.618ZM50.0451 112.351C50.0451 113.798 49.7141 114.964 49.052 115.849C48.3898 116.733 47.4934 117.176 46.3625 117.176C45.2082 117.176 44.3 116.81 43.6379 116.077V120.656H42.0119V107.49H43.4973L43.5764 108.545C44.2385 107.725 45.1584 107.314 46.3361 107.314C47.4787 107.314 48.3811 107.745 49.0432 108.606C49.7111 109.468 50.0451 110.666 50.0451 112.201V112.351ZM48.4191 112.166C48.4191 111.094 48.1906 110.247 47.7336 109.626C47.2766 109.005 46.6496 108.694 45.8527 108.694C44.8684 108.694 44.1301 109.131 43.6379 110.004V114.548C44.1242 115.415 44.8684 115.849 45.8703 115.849C46.6496 115.849 47.2678 115.541 47.7248 114.926C48.1877 114.305 48.4191 113.385 48.4191 112.166ZM58.9456 117.176C57.6566 117.176 56.6077 116.754 55.7991 115.91C54.9905 115.061 54.5863 113.927 54.5863 112.509V112.21C54.5863 111.267 54.765 110.426 55.1224 109.688C55.4857 108.943 55.9896 108.363 56.6341 107.947C57.2845 107.525 57.9876 107.314 58.7435 107.314C59.9798 107.314 60.9407 107.722 61.6263 108.536C62.3118 109.351 62.6546 110.517 62.6546 112.034V112.711H56.2122C56.2357 113.648 56.5081 114.407 57.0296 114.987C57.557 115.562 58.2249 115.849 59.0335 115.849C59.6077 115.849 60.0941 115.731 60.4925 115.497C60.8909 115.263 61.2396 114.952 61.5384 114.565L62.5316 115.339C61.7347 116.563 60.5394 117.176 58.9456 117.176ZM58.7435 108.65C58.0872 108.65 57.5364 108.891 57.0911 109.371C56.6458 109.846 56.3704 110.514 56.265 111.375H61.0286V111.252C60.9818 110.426 60.7591 109.787 60.3607 109.336C59.9622 108.879 59.4232 108.65 58.7435 108.65ZM71.4496 111.296C70.0024 110.88 68.9477 110.37 68.2856 109.767C67.6293 109.157 67.3012 108.407 67.3012 107.517C67.3012 106.509 67.7026 105.677 68.5053 105.021C69.3139 104.358 70.3627 104.027 71.6518 104.027C72.5307 104.027 73.3129 104.197 73.9985 104.537C74.6899 104.877 75.2231 105.346 75.5981 105.943C75.9789 106.541 76.1694 107.194 76.1694 107.903H74.4731C74.4731 107.13 74.227 106.523 73.7348 106.084C73.2426 105.639 72.5483 105.416 71.6518 105.416C70.8198 105.416 70.1694 105.601 69.7006 105.97C69.2377 106.333 69.0063 106.84 69.0063 107.49C69.0063 108.012 69.226 108.454 69.6655 108.817C70.1108 109.175 70.8637 109.503 71.9243 109.802C72.9907 110.101 73.8227 110.432 74.4204 110.795C75.0239 111.152 75.4692 111.571 75.7563 112.052C76.0493 112.532 76.1957 113.098 76.1957 113.748C76.1957 114.785 75.7914 115.617 74.9829 116.244C74.1743 116.865 73.0932 117.176 71.7397 117.176C70.8608 117.176 70.0405 117.009 69.2788 116.675C68.517 116.335 67.9282 115.872 67.5121 115.286C67.102 114.7 66.8969 114.035 66.8969 113.291H68.5932C68.5932 114.064 68.8774 114.677 69.4457 115.128C70.02 115.573 70.7846 115.796 71.7397 115.796C72.6303 115.796 73.3129 115.614 73.7875 115.251C74.2621 114.888 74.4995 114.393 74.4995 113.766C74.4995 113.139 74.2797 112.655 73.8403 112.315C73.4008 111.97 72.6039 111.63 71.4496 111.296ZM84.8062 115.849C85.3863 115.849 85.8931 115.673 86.3267 115.321C86.7603 114.97 87.0005 114.53 87.0474 114.003H88.5855C88.5562 114.548 88.3687 115.066 88.023 115.559C87.6773 116.051 87.2144 116.443 86.6343 116.736C86.0601 117.029 85.4507 117.176 84.8062 117.176C83.5113 117.176 82.48 116.745 81.7125 115.884C80.9507 115.017 80.5699 113.833 80.5699 112.333V112.061C80.5699 111.135 80.7398 110.312 81.0797 109.591C81.4195 108.87 81.9058 108.311 82.5386 107.912C83.1773 107.514 83.9302 107.314 84.7974 107.314C85.8638 107.314 86.7486 107.634 87.4517 108.272C88.1607 108.911 88.5386 109.74 88.5855 110.76H87.0474C87.0005 110.145 86.7662 109.641 86.3443 109.248C85.9283 108.85 85.4127 108.65 84.7974 108.65C83.9713 108.65 83.3297 108.949 82.8726 109.547C82.4214 110.139 82.1959 110.997 82.1959 112.122V112.43C82.1959 113.525 82.4214 114.369 82.8726 114.961C83.3238 115.553 83.9683 115.849 84.8062 115.849ZM97.8903 108.949C97.6442 108.908 97.3776 108.888 97.0905 108.888C96.0241 108.888 95.3005 109.342 94.9196 110.25V117H93.2936V107.49H94.8757L94.902 108.589C95.4352 107.739 96.1911 107.314 97.1696 107.314C97.486 107.314 97.7262 107.355 97.8903 107.438V108.949ZM104.04 117H102.414V107.49H104.04V117ZM102.282 104.968C102.282 104.704 102.361 104.481 102.519 104.3C102.683 104.118 102.924 104.027 103.24 104.027C103.556 104.027 103.797 104.118 103.961 104.3C104.125 104.481 104.207 104.704 104.207 104.968C104.207 105.231 104.125 105.451 103.961 105.627C103.797 105.803 103.556 105.891 103.24 105.891C102.924 105.891 102.683 105.803 102.519 105.627C102.361 105.451 102.282 105.231 102.282 104.968ZM117.563 112.351C117.563 113.798 117.232 114.964 116.57 115.849C115.908 116.733 115.012 117.176 113.881 117.176C112.726 117.176 111.818 116.81 111.156 116.077V120.656H109.53V107.49H111.016L111.095 108.545C111.757 107.725 112.677 107.314 113.854 107.314C114.997 107.314 115.899 107.745 116.561 108.606C117.229 109.468 117.563 110.666 117.563 112.201V112.351ZM115.937 112.166C115.937 111.094 115.709 110.247 115.252 109.626C114.795 109.005 114.168 108.694 113.371 108.694C112.387 108.694 111.648 109.131 111.156 110.004V114.548C111.643 115.415 112.387 115.849 113.389 115.849C114.168 115.849 114.786 115.541 115.243 114.926C115.706 114.305 115.937 113.385 115.937 112.166ZM124.724 105.188V107.49H126.499V108.747H124.724V114.645C124.724 115.025 124.803 115.312 124.961 115.506C125.119 115.693 125.389 115.787 125.77 115.787C125.957 115.787 126.215 115.752 126.543 115.682V117C126.115 117.117 125.699 117.176 125.295 117.176C124.568 117.176 124.021 116.956 123.651 116.517C123.282 116.077 123.098 115.453 123.098 114.645V108.747H121.366V107.49H123.098V105.188H124.724Z" fill="url(#paint0_linear)"/>
  <path d="M66.1344 46.2917H37.1216V53.1597H47.5275V84.1667H55.7722V53.1597H66.1344V46.2917Z" fill="url(#paint1_linear)"/>
<path d="M91.7371 54.8851C91.7371 54.8851 87.828 52.3769 83.4092 52.3769C78.9905 52.3769 77.4002 54.3969 77.4002 56.5558C77.4002 62.1276 93.5461 61.57 93.5461 72.7831C93.5461 90.0562 68.928 82.395 68.928 82.395V74.1087C68.928 74.1087 73.6355 77.5217 79.2814 77.5217C84.9274 77.5217 84.713 73.9699 84.713 73.4817C84.713 68.3286 68.7114 68.3286 68.7114 56.9051C68.7114 41.3742 92.0258 47.5016 92.0258 47.5016L91.7371 54.8851Z" fill="url(#paint2_linear)"/>
<defs>
<linearGradient id="paint0_linear" x1="71.7822" y1="99.5028" x2="71.7822" y2="120.095" gradientUnits="userSpaceOnUse">
<stop stop-color="#5190FE"/>
<stop offset="1" stop-color="#E28AFF"/>
</linearGradient>
<linearGradient id="paint1_linear" x1="51.628" y1="45.3949" x2="51.628" y2="82.5338" gradientUnits="userSpaceOnUse">
<stop stop-color="#5190FE"/>
<stop offset="1" stop-color="#E28AFF"/>
</linearGradient>
<linearGradient id="paint2_linear" x1="81.1288" y1="45.4152" x2="81.1288" y2="82.4593" gradientUnits="userSpaceOnUse">
<stop stop-color="#5190FE"/>
<stop offset="1" stop-color="#E28AFF"/>
</linearGradient>
</defs>
</svg>
