<svg width="32" height="40" viewBox="0 0 32 40" xmlns="http://www.w3.org/2000/svg">
<path fill-rule="evenodd" clip-rule="evenodd" d="M20.3333 9.16667C20.3333 6.77683 18.3898 4.83333 15.9999 4.83333C13.6101 4.83333 11.6666 6.77683 11.6666 9.16667C11.6666 11.5565 13.6101 13.5 15.9999 13.5C18.3898 13.5 20.3333 11.5565 20.3333 9.16667ZM24.6666 9.16667C24.6666 13.9463 20.7796 17.8333 15.9999 17.8333C11.2203 17.8333 7.33325 13.9463 7.33325 9.16667C7.33325 4.387 11.2203 0.5 15.9999 0.5C20.7796 0.5 24.6666 4.387 24.6666 9.16667ZM0.833252 37.3333C0.833252 28.97 7.63875 22.1667 15.9999 22.1667C24.3611 22.1667 31.1666 28.97 31.1666 37.3333C31.1666 38.5293 30.1981 39.5 28.9999 39.5C27.8018 39.5 26.8333 38.5293 26.8333 37.3333C26.8333 31.3598 21.9734 26.5 15.9999 26.5C10.0264 26.5 5.16659 31.3598 5.16659 37.3333C5.16659 38.5293 4.19809 39.5 2.99992 39.5C1.80175 39.5 0.833252 38.5293 0.833252 37.3333Z"/>
</svg>
