<svg width="20" height="20" viewBox="0 0 20 20" xmlns="http://www.w3.org/2000/svg">
<path fill-rule="evenodd" clip-rule="evenodd" d="M12.4999 11.3214L14.1666 12.9881L17.2558 16.0772C17.5816 16.4031 17.5816 16.9297 17.2558 17.2556C17.0933 17.4181 16.8799 17.4997 16.6666 17.4997C16.4533 17.4997 16.2399 17.4181 16.0774 17.2556L13.6549 14.8331L12.4424 13.6206L4.65493 5.83305L3.18826 4.36639L2.74409 3.92222C2.41826 3.59639 2.41826 3.06972 2.74409 2.74389C3.06992 2.41805 3.59659 2.41805 3.92242 2.74389L5.34492 4.16639L7.01159 5.83305L12.4999 11.3214ZM17.5097 5.95429C16.988 5.72763 16.383 5.82596 15.9672 6.20929L14.1663 7.87596V6.66596C14.1663 5.28763 13.0455 4.16596 11.6663 4.16596H6.52301L7.60051 5.24346L13.0888 10.7318L14.7555 12.3985L16.4313 14.0743C16.5913 14.1343 16.7613 14.166 16.933 14.166C17.1272 14.166 17.323 14.1268 17.5097 14.0451C18.0172 13.8235 18.333 13.3493 18.333 12.8085V7.19096C18.333 6.65013 18.0172 6.17596 17.5097 5.95429ZM11.8529 14.2096L4.06543 6.42207L2.59959 4.95624L2.47793 4.83457C1.98209 5.29207 1.66626 5.94041 1.66626 6.66624V13.3329C1.66626 14.7121 2.78793 15.8329 4.16626 15.8329H11.6663C12.1804 15.8329 12.6571 15.6771 13.0538 15.4104L11.8529 14.2096Z"/>
</svg>
