<svg width="28" height="28" viewBox="0 0 28 28" fill="none" xmlns="http://www.w3.org/2000/svg">
<circle cx="14" cy="14" r="14" fill="#2B3858"/>
<path fill-rule="evenodd" clip-rule="evenodd" d="M16.6666 13.3335C16.6666 14.8042 15.4706 16.0002 13.9999 16.0002C12.5293 16.0002 11.3333 14.8042 11.3333 13.3335V10.0002C11.3333 8.5295 12.5293 7.3335 13.9999 7.3335C15.4706 7.3335 16.6666 8.5295 16.6666 10.0002V13.3335ZM17.9999 12.6669C18.3686 12.6669 18.6666 12.9655 18.6666 13.3335C18.6666 15.6802 16.9246 17.6215 14.6666 17.9469V19.3335H16.0699C16.3986 19.3335 16.6666 19.6015 16.6666 19.9302V20.0702C16.6666 20.3989 16.3986 20.6669 16.0699 20.6669H11.9299C11.6013 20.6669 11.3333 20.3989 11.3333 20.0702V19.9302C11.3333 19.6015 11.6013 19.3335 11.9299 19.3335H13.3333V17.9469C11.0753 17.6215 9.33325 15.6802 9.33325 13.3335C9.33325 12.9655 9.63125 12.6669 9.99992 12.6669C10.3686 12.6669 10.6666 12.9655 10.6666 13.3335C10.6666 15.1715 12.1619 16.6669 13.9999 16.6669C15.8379 16.6669 17.3333 15.1715 17.3333 13.3335C17.3333 12.9655 17.6313 12.6669 17.9999 12.6669Z" fill="white"/>
</svg>
