<svg xmlns="http://www.w3.org/2000/svg" viewBox="0 0 512 512">
  <path
    d="M427.536,63.015,340.419,150H48.5C26.444,150,8,167.944,8,190V422c0,22.056,18.444,40,40.5,40h316A39.622,39.622,0,0,0,404,422.26c0-.087,0-.173,0-.26V212.079l86.234-86.115a44.424,44.424,0,0,0-62.7-62.949h0ZM253.777,273.927l25.8,25.8-37.7,11.908Zm44.508,16.223L263.35,255.215,408.636,110.149l34.715,34.715ZM384,422c0,11.028-8.472,20-19.5,20H48.5C37.472,442,28,433.028,28,422V190c0-11.028,9.472-20,20.5-20H320.389l-78.252,78.133a9.984,9.984,0,0,0-2.47,4.065l-22.662,71.75A10,10,0,0,0,229.552,336.5l71.75-22.662a9.134,9.134,0,0,0,3.815-2.47L384,232.11Zm92.332-310.168-18.85,18.878L422.79,96.018l18.878-18.851a24.512,24.512,0,0,1,34.664,34.665Z"
  />
</svg>
