<svg width="18" height="18" viewBox="0 0 18 18" xmlns="http://www.w3.org/2000/svg">
<path fill-rule="evenodd" clip-rule="evenodd" d="M6.96979 15.75C5.72779 15.75 4.54729 15.2505 3.64579 14.3438C1.85479 12.5415 1.78129 9.684 3.48154 7.97325L9.02104 2.40075C9.59779 1.82025 10.3763 1.5 11.2125 1.5C12.1073 1.5 12.9578 1.85925 13.6065 2.51175C14.8973 3.81 14.9468 5.87325 13.716 7.11075L8.16979 12.6825C7.81054 13.0448 7.32679 13.2435 6.80779 13.2435C6.25954 13.2435 5.73979 13.0245 5.34529 12.6278C4.55554 11.832 4.53079 10.5637 5.29054 9.79875L10.4093 4.6575C10.7018 4.3635 11.1758 4.362 11.4698 4.6545C11.763 4.947 11.7645 5.42175 11.472 5.715L6.35404 10.857C6.17404 11.0385 6.19879 11.3588 6.40954 11.5702C6.51904 11.6805 6.66454 11.7435 6.80779 11.7435C6.89029 11.7435 7.00879 11.7233 7.10629 11.625L12.6525 6.05325C13.3028 5.3985 13.254 4.28475 12.543 3.56925C11.8628 2.88525 10.7085 2.83125 10.0845 3.45825L4.54504 9.03075C3.42454 10.158 3.49804 12.0675 4.71004 13.2863C5.32729 13.908 6.12979 14.25 6.96979 14.25C7.72054 14.25 8.41654 13.9665 8.92804 13.452L14.4683 7.8795C14.76 7.58625 15.2348 7.584 15.5288 7.8765C15.822 8.169 15.8235 8.643 15.5318 8.937L9.99154 14.5095C9.19654 15.309 8.12329 15.75 6.96979 15.75Z"/>
</svg>
