<svg viewBox="0 0 20 20" xmlns="http://www.w3.org/2000/svg">
    <path d="M10.0001 3.33323C11.8384 3.33323 13.3334 4.82823 13.3334 6.66656C13.3334 8.5049 11.8384 9.9999 10.0001 9.9999C8.16177 9.9999 6.66677 8.5049 6.66677 6.66656C6.66677 4.82823 8.16177 3.33323 10.0001 3.33323ZM15.8076 17.2924L13.8834 9.8099C14.5801 8.9499 15.0001 7.8574 15.0001 6.66656C15.0001 3.90906 12.7576 1.66656 10.0001 1.66656C7.2426 1.66656 5.0001 3.90906 5.0001 6.66656C5.0001 7.8574 5.4201 8.9499 6.11677 9.8099L4.1926 17.2924C4.10927 17.6191 4.22927 17.9632 4.49844 18.1657C4.7676 18.3682 5.13177 18.3866 5.42177 18.2182L9.86344 15.6107L14.5968 18.2291C14.7226 18.2991 14.8618 18.3332 15.0001 18.3332C15.1809 18.3332 15.3609 18.2749 15.5101 18.1591C15.7734 17.9557 15.8901 17.6149 15.8076 17.2924Z"/>
</svg>
