<svg viewBox="0 0 139 152" xmlns="http://www.w3.org/2000/svg">
<path d="M53.654 109V96.9141H57.6051C58.9167 96.9141 59.9017 97.1852 60.5602 97.7275C61.2243 98.2699 61.5563 99.0723 61.5563 100.135C61.5563 100.699 61.3958 101.2 61.0749 101.637C60.7539 102.069 60.3167 102.404 59.7633 102.642C60.4163 102.824 60.931 103.173 61.3073 103.688C61.6891 104.197 61.88 104.805 61.88 105.514C61.88 106.598 61.5286 107.451 60.8258 108.07C60.123 108.69 59.1297 109 57.8459 109H53.654ZM55.2477 103.347V107.697H57.8791C58.6206 107.697 59.2044 107.506 59.6305 107.124C60.0622 106.737 60.278 106.205 60.278 105.53C60.278 104.075 59.4866 103.347 57.904 103.347H55.2477ZM55.2477 102.069H57.6549C58.3522 102.069 58.9084 101.895 59.3234 101.546C59.744 101.197 59.9543 100.724 59.9543 100.126C59.9543 99.4624 59.7606 98.981 59.3732 98.6821C58.9858 98.3778 58.3965 98.2256 57.6051 98.2256H55.2477V102.069ZM72.27 109C72.1814 108.823 72.1095 108.507 72.0541 108.054C71.3403 108.795 70.4881 109.166 69.4975 109.166C68.6121 109.166 67.8844 108.917 67.3144 108.419C66.7499 107.915 66.4677 107.279 66.4677 106.51C66.4677 105.575 66.8219 104.85 67.5302 104.335C68.2441 103.815 69.2457 103.555 70.5351 103.555H72.0292V102.849C72.0292 102.312 71.8688 101.886 71.5478 101.571C71.2268 101.25 70.7537 101.089 70.1284 101.089C69.5805 101.089 69.1212 101.228 68.7504 101.504C68.3797 101.781 68.1943 102.116 68.1943 102.509H66.6503C66.6503 102.061 66.808 101.629 67.1235 101.214C67.4444 100.793 67.8761 100.461 68.4184 100.218C68.9663 99.9743 69.5667 99.8525 70.2197 99.8525C71.2545 99.8525 72.0652 100.113 72.6518 100.633C73.2384 101.147 73.5427 101.859 73.5649 102.766V106.9C73.5649 107.724 73.67 108.38 73.8803 108.867V109H72.27ZM69.7216 107.83C70.2031 107.83 70.6596 107.705 71.0913 107.456C71.5229 107.207 71.8356 106.883 72.0292 106.485V104.642H70.8256C68.9441 104.642 68.0034 105.193 68.0034 106.294C68.0034 106.775 68.1638 107.152 68.4848 107.423C68.8058 107.694 69.218 107.83 69.7216 107.83ZM82.2946 107.913C82.8425 107.913 83.3212 107.747 83.7307 107.415C84.1402 107.083 84.3671 106.667 84.4113 106.169H85.864C85.8363 106.684 85.6592 107.174 85.3327 107.639C85.0062 108.104 84.5691 108.474 84.0212 108.751C83.4789 109.028 82.9034 109.166 82.2946 109.166C81.0717 109.166 80.0977 108.759 79.3728 107.946C78.6534 107.127 78.2937 106.009 78.2937 104.592V104.335C78.2937 103.461 78.4542 102.683 78.7751 102.002C79.0961 101.322 79.5554 100.793 80.153 100.417C80.7562 100.041 81.4673 99.8525 82.2863 99.8525C83.2935 99.8525 84.1291 100.154 84.7932 100.757C85.4628 101.361 85.8197 102.144 85.864 103.106H84.4113C84.3671 102.525 84.1457 102.049 83.7473 101.679C83.3544 101.302 82.8674 101.114 82.2863 101.114C81.5061 101.114 80.9001 101.396 80.4685 101.961C80.0424 102.52 79.8293 103.331 79.8293 104.393V104.684C79.8293 105.718 80.0424 106.515 80.4685 107.074C80.8946 107.633 81.5033 107.913 82.2946 107.913ZM92.8174 104.841L91.8545 105.846V109H90.3188V96.25H91.8545V103.961L92.6763 102.974L95.4736 100.019H97.3413L93.8467 103.771L97.748 109H95.9468L92.8174 104.841ZM105.208 109.166C103.99 109.166 103 108.768 102.236 107.971C101.472 107.168 101.091 106.097 101.091 104.758V104.476C101.091 103.585 101.259 102.791 101.597 102.094C101.94 101.391 102.416 100.843 103.025 100.45C103.639 100.052 104.303 99.8525 105.017 99.8525C106.185 99.8525 107.092 100.237 107.74 101.006C108.387 101.776 108.711 102.877 108.711 104.31V104.949H102.626C102.648 105.835 102.906 106.551 103.398 107.099C103.896 107.641 104.527 107.913 105.291 107.913C105.833 107.913 106.292 107.802 106.669 107.581C107.045 107.359 107.374 107.066 107.657 106.701L108.595 107.431C107.842 108.588 106.713 109.166 105.208 109.166ZM105.017 101.114C104.397 101.114 103.877 101.341 103.456 101.795C103.036 102.243 102.776 102.874 102.676 103.688H107.175V103.571C107.131 102.791 106.921 102.188 106.544 101.762C106.168 101.33 105.659 101.114 105.017 101.114ZM114.668 100.019L114.718 101.147C115.404 100.284 116.301 99.8525 117.407 99.8525C119.305 99.8525 120.263 100.923 120.279 103.065V109H118.744V103.057C118.738 102.409 118.589 101.931 118.295 101.621C118.008 101.311 117.557 101.156 116.942 101.156C116.444 101.156 116.007 101.289 115.631 101.554C115.255 101.82 114.961 102.168 114.751 102.6V109H113.215V100.019H114.668ZM124.942 104.435C124.942 103.057 125.268 101.95 125.921 101.114C126.574 100.273 127.429 99.8525 128.486 99.8525C129.538 99.8525 130.37 100.212 130.985 100.932V96.25H132.52V109H131.109L131.035 108.037C130.42 108.79 129.565 109.166 128.47 109.166C127.429 109.166 126.58 108.74 125.921 107.888C125.268 107.035 124.942 105.923 124.942 104.551V104.435ZM126.477 104.609C126.477 105.627 126.688 106.424 127.108 107C127.529 107.575 128.11 107.863 128.851 107.863C129.825 107.863 130.536 107.426 130.985 106.551V102.426C130.525 101.579 129.82 101.156 128.868 101.156C128.115 101.156 127.529 101.446 127.108 102.027C126.688 102.608 126.477 103.469 126.477 104.609Z" fill="url(#paint0_linear)"/>
<path d="M69.282 151.43L1.03972 114L138.064 38.8445V113.704L69.282 151.43Z" fill="#352F2F" fill-opacity="0.27" stroke="#0B73D3"/>
<defs>
<linearGradient id="paint0_linear" x1="93" y1="92.5265" x2="93" y2="112.138" gradientUnits="userSpaceOnUse">
<stop stop-color="#5190FE"/>
<stop offset="1" stop-color="#E28AFF"/>
</linearGradient>
</defs>
</svg>
