<svg viewBox="0 0 20 20" xmlns="http://www.w3.org/2000/svg">
    <path d="M10.8334 4.16666C10.8334 4.62749 10.4601 4.99999 10.0001 4.99999C9.54008 4.99999 9.16675 4.62749 9.16675 4.16666V2.49999C9.16675 2.03916 9.54008 1.66666 10.0001 1.66666C10.4601 1.66666 10.8334 2.03916 10.8334 2.49999V4.16666ZM5.83341 9.99999C5.83341 7.70249 7.70258 5.83332 10.0001 5.83332C12.2976 5.83332 14.1667 7.70249 14.1667 9.99999C14.1667 11.3158 13.5384 12.5517 12.5001 13.33V16.6667C12.5001 17.5858 11.7526 18.3333 10.8334 18.3333H9.16675C8.24758 18.3333 7.50008 17.5858 7.50008 16.6667V13.33C6.46091 12.5517 5.83341 11.3158 5.83341 9.99999ZM17.5001 9.16666H15.8334C15.3726 9.16666 15.0001 9.53916 15.0001 9.99999C15.0001 10.4608 15.3726 10.8333 15.8334 10.8333H17.5001C17.9609 10.8333 18.3334 10.4608 18.3334 9.99999C18.3334 9.53916 17.9609 9.16666 17.5001 9.16666ZM2.50008 9.16666H4.16675C4.62675 9.16666 5.00008 9.53916 5.00008 9.99999C5.00008 10.4608 4.62675 10.8333 4.16675 10.8333H2.50008C2.04008 10.8333 1.66675 10.4608 1.66675 9.99999C1.66675 9.53916 2.04008 9.16666 2.50008 9.16666ZM6.38316 5.34832L5.184 4.18999C4.85316 3.87082 4.3265 3.88082 4.00566 4.21166C3.68566 4.54166 3.69483 5.06999 4.02566 5.38999L5.22483 6.54749C5.38733 6.70416 5.59566 6.78166 5.804 6.78166C6.02233 6.78166 6.23983 6.69582 6.40316 6.52666C6.72316 6.19666 6.714 5.66832 6.38316 5.34832ZM14.8162 4.19141C15.1462 3.87224 15.6762 3.88141 15.9937 4.21141C16.3137 4.54141 16.3046 5.06974 15.9737 5.38891L14.7746 6.54724C14.6137 6.70307 14.4046 6.78141 14.1962 6.78141C13.9779 6.78141 13.7596 6.69557 13.5971 6.52641C13.2771 6.19641 13.2862 5.66807 13.6171 5.34891L14.8162 4.19141Z"/>
</svg>
