<svg viewBox="0 0 32 32" xmlns="http://www.w3.org/2000/svg">
<path d="M30.7357 6.6665H9.26374C8.56907 6.6665 7.99974 7.23584 7.99974 7.9305V8.06917C7.99974 8.76384 8.56907 9.33317 9.26374 9.33317H30.7357C31.4304 9.33317 31.9997 8.76384 31.9997 8.06917V7.9305C31.9997 7.23584 31.4304 6.6665 30.7357 6.6665ZM4.55133 14.6665H9.25908C9.26064 14.6665 9.2622 14.6665 9.26376 14.6665H30.7358C31.4304 14.6665 31.9998 15.2358 31.9998 15.9305V16.0692C31.9998 16.7638 31.4304 17.3332 30.7358 17.3332H23.4064C23.4049 17.3332 23.4035 17.3332 23.402 17.3332H4.55133L6.27533 19.0572C6.79667 19.5785 6.79667 20.4212 6.27533 20.9425C6.01533 21.2025 5.674 21.3332 5.33267 21.3332C4.99133 21.3332 4.65133 21.2025 4.39 20.9425L0.39 16.9425C-0.13 16.4212 -0.13 15.5785 0.39 15.0572L4.39 11.0572C4.91133 10.5358 5.75533 10.5358 6.27533 11.0572C6.79667 11.5785 6.79667 12.4212 6.27533 12.9425L4.55133 14.6665ZM7.99974 23.9305C7.99974 23.2358 8.56907 22.6665 9.26374 22.6665H30.7357C31.4304 22.6665 31.9997 23.2358 31.9997 23.9305V24.0692C31.9997 24.7638 31.4304 25.3332 30.7357 25.3332H9.26374C8.56907 25.3332 7.99974 24.7638 7.99974 24.0692V23.9305Z" />
</svg>
