<svg viewBox="0 0 32 32" xmlns="http://www.w3.org/2000/svg">
<path d="M1.264 6.6665H22.736C23.4307 6.6665 24 7.23584 24 7.9305V8.06917C24 8.76384 23.4307 9.33317 22.736 9.33317H1.264C0.569333 9.33317 0 8.76384 0 8.06917V7.9305C0 7.23584 0.569333 6.6665 1.264 6.6665ZM0 23.9305C0 23.2358 0.569333 22.6665 1.264 22.6665H22.736C23.4307 22.6665 24 23.2358 24 23.9305V24.0692C24 24.7638 23.4307 25.3332 22.736 25.3332H1.264C0.569333 25.3332 0 24.7638 0 24.0692V23.9305ZM22.7407 14.6665H27.4484L25.7244 12.9425C25.2031 12.4212 25.2031 11.5785 25.7244 11.0572C26.2444 10.5358 27.0884 10.5358 27.6098 11.0572L31.6098 15.0572C32.1298 15.5785 32.1298 16.4212 31.6098 16.9425L27.6098 20.9425C27.3484 21.2025 27.0084 21.3332 26.6671 21.3332C26.3258 21.3332 25.9844 21.2025 25.7244 20.9425C25.2031 20.4212 25.2031 19.5785 25.7244 19.0572L27.4484 17.3332H8.59775C8.59638 17.3332 8.59501 17.3332 8.59363 17.3332H1.264C0.569333 17.3332 0 16.7638 0 16.0692V15.9305C0 15.2358 0.569333 14.6665 1.264 14.6665H22.736C22.7376 14.6665 22.7391 14.6665 22.7407 14.6665Z" />
</svg>
