<svg viewBox="0 0 32 32" xmlns="http://www.w3.org/2000/svg">
    <path d="M5.08333 9.33335C4.4875 9.33335 4 8.73335 4 8.00002C4 7.26669 4.4875 6.66669 5.08333 6.66669H20.25C20.8458 6.66669 21.3333 7.26669 21.3333 8.00002C21.3333 8.73335 20.8458 9.33335 20.25 9.33335H5.08333ZM5.08333 14.6667H20.25C20.8458 14.6667 21.3333 14.0667 21.3333 13.3334C21.3333 12.6 20.8458 12 20.25 12H5.08333C4.4875 12 4 12.6 4 13.3334C4 14.0667 4.4875 14.6667 5.08333 14.6667ZM20.25 20H5.08333C4.4875 20 4 19.4 4 18.6667C4 17.9334 4.4875 17.3334 5.08333 17.3334H20.25C20.8458 17.3334 21.3333 17.9334 21.3333 18.6667C21.3333 19.4 20.8458 20 20.25 20ZM20.25 25.3334H5.08333C4.4875 25.3334 4 24.7334 4 24C4 23.2667 4.4875 22.6667 5.08333 22.6667H20.25C20.8458 22.6667 21.3333 23.2667 21.3333 24C21.3333 24.7334 20.8458 25.3334 20.25 25.3334ZM24 8.00002C24 7.26364 24.597 6.66669 25.3333 6.66669H26.6667C27.403 6.66669 28 7.26364 28 8.00002C28 8.7364 27.403 9.33335 26.6667 9.33335H25.3333C24.597 9.33335 24 8.7364 24 8.00002ZM25.3333 12C24.597 12 24 12.597 24 13.3334C24 14.0697 24.597 14.6667 25.3333 14.6667H26.6667C27.403 14.6667 28 14.0697 28 13.3334C28 12.597 27.403 12 26.6667 12H25.3333ZM24 18.6667C24 17.9303 24.597 17.3334 25.3333 17.3334H26.6667C27.403 17.3334 28 17.9303 28 18.6667C28 19.4031 27.403 20 26.6667 20H25.3333C24.597 20 24 19.4031 24 18.6667ZM25.3333 22.6667C24.597 22.6667 24 23.2636 24 24C24 24.7364 24.597 25.3334 25.3333 25.3334H26.6667C27.403 25.3334 28 24.7364 28 24C28 23.2636 27.403 22.6667 26.6667 22.6667H25.3333Z"/>
</svg>
