<svg width="28" height="28" viewBox="0 0 28 28" fill="none" xmlns="http://www.w3.org/2000/svg">
<circle cx="14" cy="14" r="14" fill="#2B3858"/>
<path fill-rule="evenodd" clip-rule="evenodd" d="M20.0077 10.7637C19.5903 10.5823 19.1063 10.661 18.7737 10.9677L17.333 12.301V11.333C17.333 10.2303 16.4363 9.33301 15.333 9.33301H9.33301C8.23034 9.33301 7.33301 10.2303 7.33301 11.333V16.6663C7.33301 17.7697 8.23034 18.6663 9.33301 18.6663H15.333C16.4363 18.6663 17.333 17.7697 17.333 16.6663V15.699L18.7737 17.0317C18.9877 17.2297 19.2643 17.333 19.5463 17.333C19.7017 17.333 19.8583 17.3017 20.0077 17.2363C20.4137 17.059 20.6663 16.6797 20.6663 16.247V11.753C20.6663 11.3203 20.4137 10.941 20.0077 10.7637Z" fill="white"/>
</svg>
