<svg width="17" height="16" viewBox="0 0 17 16" xmlns="http://www.w3.org/2000/svg">
<path fill-rule="evenodd" clip-rule="evenodd" d="M8.49984 0.499908C10.6507 0.499908 12.5457 1.88408 13.229 3.87074C15.2615 4.14657 16.8332 5.89324 16.8332 7.99991C16.8332 9.01741 16.4632 9.99657 15.7915 10.7574C15.6265 10.9432 15.3973 11.0391 15.1665 11.0391C14.9707 11.0391 14.774 10.9707 14.6148 10.8307C14.2707 10.5249 14.2373 9.99907 14.5423 9.65324C14.9448 9.19824 15.1665 8.60991 15.1665 7.99991C15.1665 6.62157 14.0448 5.49991 12.6665 5.49991H12.5832C12.1865 5.49991 11.8448 5.21991 11.7665 4.83074C11.4548 3.28741 10.0815 2.16657 8.49984 2.16657C6.919 2.16657 5.54484 3.28741 5.234 4.83074C5.15567 5.21991 4.81317 5.49991 4.4165 5.49991H4.33317C2.95484 5.49991 1.83317 6.62157 1.83317 7.99991C1.83317 8.60991 2.05484 9.19824 2.45817 9.65324C2.76234 9.99907 2.72984 10.5249 2.38484 10.8307C2.03984 11.1357 1.51317 11.1016 1.209 10.7574C0.536504 9.99657 0.166504 9.01741 0.166504 7.99991C0.166504 5.89324 1.73817 4.14657 3.77067 3.87074C4.45484 1.88408 6.34984 0.499908 8.49984 0.499908ZM7.92084 7.39999C8.24917 7.08666 8.76834 7.08916 9.08917 7.41082L11.5892 9.91082C11.915 10.2367 11.915 10.7633 11.5892 11.0892C11.4267 11.2517 11.2133 11.3333 11 11.3333C10.7867 11.3333 10.5733 11.2517 10.4108 11.0892L9.33334 10.0117V14.6667C9.33334 15.1275 8.96 15.5 8.5 15.5C8.04 15.5 7.66667 15.1275 7.66667 14.6667V9.96332L6.57917 11.0133C6.24834 11.3342 5.72084 11.3233 5.40084 10.9925C5.08084 10.6608 5.09 10.1342 5.42084 9.81416L7.92084 7.39999Z"/>
</svg>
