<svg viewBox="0 0 16 16" xmlns="http://www.w3.org/2000/svg">
<path d="M8 1.2128C10.745 1.21298 13.2197 2.86662 14.2702 5.40271C15.3206 7.93881 14.74 10.858 12.7991 12.7991C11.0897 14.539 8.57809 15.2279 6.2202 14.6036C3.86231 13.9792 2.02076 12.1377 1.39642 9.7798C0.772085 7.42191 1.46098 4.91033 3.20093 3.20093C4.47092 1.92391 6.199 1.20802 8 1.2128ZM8 0C3.58172 0 0 3.58172 0 8C0 12.4183 3.58172 16 8 16C12.4183 16 16 12.4183 16 8C16 5.87827 15.1571 3.84344 13.6569 2.34315C12.1566 0.842855 10.1217 0 8 0Z" />
<path d="M10.5356 10.0156C9.67815 11.0958 8.23124 11.5153 6.92903 11.0612C5.62681 10.6072 4.75436 9.37908 4.75436 7.99999C4.75436 6.62089 5.62681 5.39275 6.92903 4.93873C8.23124 4.48471 9.67815 4.90421 10.5356 5.98436L11.4844 5.22448C10.3046 3.74328 8.3173 3.16983 6.52974 3.79474C4.74218 4.41965 3.54504 6.10634 3.54504 7.99999C3.54504 9.89363 4.74218 11.5803 6.52974 12.2052C8.3173 12.8301 10.3046 12.2567 11.4844 10.7755L10.5356 10.0156Z" />
</svg>
