<svg  viewBox="0 0 139 152" xmlns="http://www.w3.org/2000/svg">
<path d="M43.3637 77.4883C43.1879 78.9922 42.6312 80.1543 41.6937 80.9746C40.7628 81.7884 39.5225 82.1953 37.973 82.1953C36.2934 82.1953 34.9457 81.5931 33.9301 80.3887C32.921 79.1842 32.4164 77.5729 32.4164 75.5547V74.1875C32.4164 72.8659 32.6508 71.7038 33.1195 70.7012C33.5948 69.6986 34.2654 68.9303 35.1312 68.3965C35.9971 67.8561 36.9997 67.5859 38.1391 67.5859C39.6495 67.5859 40.8604 68.0091 41.7719 68.8555C42.6833 69.6953 43.2139 70.8607 43.3637 72.3516H41.4789C41.3161 71.2188 40.9613 70.3984 40.4145 69.8906C39.8741 69.3828 39.1156 69.1289 38.1391 69.1289C36.9411 69.1289 36.0004 69.5716 35.3168 70.457C34.6397 71.3424 34.3012 72.6022 34.3012 74.2363V75.6133C34.3012 77.1562 34.6234 78.3835 35.268 79.2949C35.9125 80.2064 36.8142 80.6621 37.973 80.6621C39.0147 80.6621 39.8122 80.4277 40.3656 79.959C40.9255 79.4837 41.2966 78.6602 41.4789 77.4883H43.3637ZM48.3703 76.6191C48.3703 75.584 48.5721 74.653 48.9758 73.8262C49.3859 72.9993 49.9523 72.3613 50.675 71.9121C51.4042 71.4629 52.2342 71.2383 53.1652 71.2383C54.604 71.2383 55.7661 71.7363 56.6516 72.7324C57.5435 73.7285 57.9895 75.0534 57.9895 76.707V76.834C57.9895 77.8626 57.7909 78.7871 57.3937 79.6074C57.0031 80.4212 56.44 81.056 55.7043 81.5117C54.9751 81.9674 54.1353 82.1953 53.1848 82.1953C51.7525 82.1953 50.5904 81.6973 49.6984 80.7012C48.813 79.7051 48.3703 78.3867 48.3703 76.7461V76.6191ZM50.1867 76.834C50.1867 78.0059 50.4569 78.9466 50.9973 79.6562C51.5441 80.3659 52.2733 80.7207 53.1848 80.7207C54.1027 80.7207 54.8319 80.3626 55.3723 79.6465C55.9126 78.9238 56.1828 77.9147 56.1828 76.6191C56.1828 75.4603 55.9061 74.5228 55.3527 73.8066C54.8059 73.084 54.0767 72.7227 53.1652 72.7227C52.2733 72.7227 51.5539 73.0775 51.007 73.7871C50.4602 74.4967 50.1867 75.5124 50.1867 76.834ZM69.6074 79.1973C69.6074 78.709 69.4219 78.3314 69.0508 78.0645C68.6862 77.791 68.0449 77.5566 67.127 77.3613C66.2155 77.166 65.4896 76.9316 64.9492 76.6582C64.4154 76.3848 64.0182 76.0592 63.7578 75.6816C63.5039 75.304 63.377 74.8548 63.377 74.334C63.377 73.4681 63.7415 72.7357 64.4707 72.1367C65.2064 71.5378 66.1439 71.2383 67.2832 71.2383C68.4811 71.2383 69.4512 71.5475 70.1934 72.166C70.9421 72.7845 71.3164 73.5755 71.3164 74.5391H69.5C69.5 74.0443 69.2884 73.6178 68.8652 73.2598C68.4486 72.9017 67.9212 72.7227 67.2832 72.7227C66.6256 72.7227 66.1113 72.8659 65.7402 73.1523C65.3691 73.4388 65.1836 73.8132 65.1836 74.2754C65.1836 74.7116 65.3561 75.0404 65.7012 75.2617C66.0462 75.4831 66.668 75.6947 67.5664 75.8965C68.4714 76.0983 69.2038 76.3392 69.7637 76.6191C70.3236 76.8991 70.737 77.2376 71.0039 77.6348C71.2773 78.0254 71.4141 78.5039 71.4141 79.0703C71.4141 80.0143 71.0365 80.7728 70.2812 81.3457C69.526 81.9121 68.5462 82.1953 67.3418 82.1953C66.4954 82.1953 65.7467 82.0456 65.0957 81.7461C64.4447 81.4466 63.9336 81.0299 63.5625 80.4961C63.1979 79.9557 63.0156 79.373 63.0156 78.748H64.8223C64.8548 79.3535 65.0957 79.8353 65.5449 80.1934C66.0006 80.5449 66.5996 80.7207 67.3418 80.7207C68.0254 80.7207 68.5723 80.584 68.9824 80.3105C69.3991 80.0306 69.6074 79.6595 69.6074 79.1973ZM78.6668 71.4336L78.7156 72.6055C79.4904 71.694 80.5353 71.2383 81.8504 71.2383C83.3283 71.2383 84.3341 71.8047 84.868 72.9375C85.2195 72.4297 85.6753 72.0195 86.2352 71.707C86.8016 71.3945 87.4689 71.2383 88.2371 71.2383C90.5548 71.2383 91.7332 72.4655 91.7723 74.9199V82H89.9656V75.0273C89.9656 74.2721 89.7931 73.709 89.448 73.3379C89.103 72.9603 88.5236 72.7715 87.7098 72.7715C87.0392 72.7715 86.4825 72.9733 86.0398 73.377C85.5971 73.7741 85.34 74.3112 85.2684 74.9883V82H83.452V75.0762C83.452 73.5397 82.7 72.7715 81.1961 72.7715C80.0112 72.7715 79.2006 73.276 78.7645 74.2852V82H76.9578V71.4336H78.6668ZM97.2281 76.6191C97.2281 75.584 97.4299 74.653 97.8336 73.8262C98.2438 72.9993 98.8102 72.3613 99.5328 71.9121C100.262 71.4629 101.092 71.2383 102.023 71.2383C103.462 71.2383 104.624 71.7363 105.509 72.7324C106.401 73.7285 106.847 75.0534 106.847 76.707V76.834C106.847 77.8626 106.649 78.7871 106.252 79.6074C105.861 80.4212 105.298 81.056 104.562 81.5117C103.833 81.9674 102.993 82.1953 102.043 82.1953C100.61 82.1953 99.4482 81.6973 98.5563 80.7012C97.6708 79.7051 97.2281 78.3867 97.2281 76.7461V76.6191ZM99.0445 76.834C99.0445 78.0059 99.3147 78.9466 99.8551 79.6562C100.402 80.3659 101.131 80.7207 102.043 80.7207C102.961 80.7207 103.69 80.3626 104.23 79.6465C104.77 78.9238 105.041 77.9147 105.041 76.6191C105.041 75.4603 104.764 74.5228 104.211 73.8066C103.664 73.084 102.935 72.7227 102.023 72.7227C101.131 72.7227 100.412 73.0775 99.8648 73.7871C99.318 74.4967 99.0445 75.5124 99.0445 76.834Z" fill="url(#paint0_linear)"/>
<path d="M0.5 38.296L69.282 0.57027L138.064 38.296V113.704L69.282 151.43L0.5 113.704V38.296Z" fill="#352F2F" fill-opacity="0.27" stroke="#0B73D3"/>
<defs>
<linearGradient id="paint0_linear" x1="69.5" y1="63.4554" x2="69.5" y2="86.0085" gradientUnits="userSpaceOnUse">
<stop stop-color="#5190FE"/>
<stop offset="1" stop-color="#E28AFF"/>
</linearGradient>
</defs>
</svg>
