<svg width="20" height="20" viewBox="0 0 20 20" xmlns="http://www.w3.org/2000/svg">
<path fill-rule="evenodd" clip-rule="evenodd" d="M9.98592 6.10243L5.30509 10.7833L5.08509 13.2466L7.56592 13.0208L12.2326 8.34909L9.98592 6.10243ZM14.9718 5.60743L12.7259 3.36243L11.1026 4.98576L13.3484 7.23243L14.9718 5.60743ZM4.24258 14.9966C4.21675 14.9991 4.19175 14.9999 4.16675 14.9999C3.94675 14.9999 3.73425 14.9133 3.57758 14.7558C3.40258 14.5808 3.31425 14.3374 3.33675 14.0916L3.65258 10.6158C3.68758 10.2349 3.85592 9.87576 4.12675 9.60493L11.6234 2.10743C12.2084 1.52076 13.2701 1.54993 13.8868 2.16576L16.1684 4.44743H16.1693C16.8076 5.08659 16.8326 6.10076 16.2259 6.70909L8.72842 14.2066C8.45758 14.4783 8.09925 14.6458 7.71758 14.6808L4.24258 14.9966ZM4.16659 16.6667H15.8333C16.2916 16.6667 16.6666 17.0417 16.6666 17.5C16.6666 17.9583 16.2916 18.3333 15.8333 18.3333H4.16659C3.70825 18.3333 3.33325 17.9583 3.33325 17.5C3.33325 17.0417 3.70825 16.6667 4.16659 16.6667Z" />
</svg>
