<svg viewBox="0 0 161 67" xmlns="http://www.w3.org/2000/svg">
    <path d="M42.76 27.7684C40.6615 25.8241 38.1827 24.3361 35.48 23.3984C32.3489 22.2843 29.0429 21.7423 25.72 21.7984C24.49 21.7984 23.21 21.8584 21.9 21.9784L20.68 22.1084L22 14.7384H37.17C38.4843 14.7639 39.7961 14.6126 41.07 14.2884V14.2884C42.1623 13.9894 43.1828 13.4723 44.07 12.7684C44.8765 12.1174 45.4974 11.2655 45.87 10.2984C46.2248 9.38711 46.4013 8.41621 46.39 7.43838V0.678383H10L4 33.8684L14 36.4984L14.61 36.2884C17.3039 35.3282 20.1401 34.8279 23 34.8084C26.36 34.8084 28.59 35.5984 30 36.8884C31.44 38.1584 32.29 40.0384 32.29 42.8884C32.3179 44.2832 32.1255 45.6736 31.72 47.0084V47.0084C31.3687 48.1203 30.7821 49.1435 30 50.0084V50.0084C29.2125 50.8765 28.2427 51.5595 27.16 52.0084C25.8031 52.5203 24.3599 52.7648 22.91 52.7284C21.5123 52.7637 20.1179 52.5746 18.78 52.1684C17.7049 51.8123 16.6613 51.3674 15.66 50.8384L13 49.3684C11.9682 48.7392 10.7883 48.3942 9.58 48.3684C8.66017 48.3543 7.74995 48.557 6.923 48.9601C6.09606 49.3631 5.37562 49.9552 4.82 50.6884V50.6884L0 56.9384L1.28 58.0684C2.53392 59.1701 3.87125 60.1731 5.28 61.0684C6.81809 62.0393 8.42965 62.8885 10.1 63.6084V63.6084C11.9236 64.3477 13.8116 64.9168 15.74 65.3084C17.835 65.7703 19.9747 65.9984 22.12 65.9884C25.7029 66.0267 29.2655 65.4448 32.65 64.2684C35.7507 63.2179 38.6173 61.574 41.09 59.4284C43.4512 57.3458 45.3488 54.7907 46.66 51.9284V51.9284C48.0132 48.9001 48.6955 45.615 48.66 42.2984C48.6769 39.5793 48.1781 36.8817 47.19 34.3484C46.221 31.8529 44.7076 29.605 42.76 27.7684V27.7684ZM22.09 23.8384C21.49 23.8917 20.88 23.9617 20.26 24.0484C20.92 24.0084 21.51 23.8884 22.09 23.8384Z"/>
    <path d="M158.08 18.6484C156.982 14.8775 155.139 11.365 152.66 8.31838C150.405 5.58012 147.514 3.43454 144.24 2.06838C140.962 0.709461 137.448 0.0100021 133.9 0.0100021C130.352 0.0100021 126.838 0.709461 123.56 2.06838C120.306 3.43543 117.441 5.58594 115.22 8.32838C112.772 11.3842 110.948 14.8904 109.85 18.6484V18.6484C108.526 23.317 107.902 28.1565 108 33.0084C107.917 37.8647 108.551 42.7068 109.88 47.3784V47.3784C110.982 51.1468 112.806 54.6653 115.25 57.7384V57.7384C117.476 60.4618 120.322 62.6119 123.55 64.0084V64.0084C130.179 66.6879 137.591 66.6879 144.22 64.0084C147.481 62.6147 150.366 60.4697 152.64 57.7484V57.7484C155.113 54.6831 156.955 51.1588 158.06 47.3784C159.424 42.7129 160.078 37.8686 160 33.0084C160.089 28.1522 159.442 23.3105 158.08 18.6484V18.6484ZM140 49.3684C139.334 50.5139 138.356 51.4467 137.18 52.0584C136.166 52.5585 135.051 52.8186 133.92 52.8186C132.789 52.8186 131.674 52.5585 130.66 52.0584C129.516 51.4285 128.565 50.4985 127.91 49.3684C126.841 47.48 126.088 45.4297 125.68 43.2984C125.012 39.9005 124.71 36.4407 124.78 32.9784C124.711 29.5294 125.013 26.083 125.68 22.6984C126.088 20.5671 126.841 18.5168 127.91 16.6284C128.565 15.4983 129.516 14.5682 130.66 13.9384C131.674 13.4383 132.789 13.1782 133.92 13.1782C135.051 13.1782 136.166 13.4383 137.18 13.9384C138.358 14.5554 139.337 15.4955 140 16.6484C141.099 18.5229 141.867 20.573 142.27 22.7084V22.7084C142.976 26.0946 143.295 29.5501 143.22 33.0084C143.292 36.4665 142.974 39.9218 142.27 43.3084C141.867 45.4438 141.099 47.4938 140 49.3684Z"/>
    <path d="M96.83 8.31838C94.5684 5.57986 91.6755 3.43162 88.4 2.05838C85.1221 0.699459 81.6084 0 78.06 0C74.5116 0 70.9979 0.699459 67.72 2.05838C64.4692 3.43046 61.6053 5.58012 59.38 8.31838C56.9275 11.3762 55.0996 14.886 54 18.6484V18.6484C52.6674 23.3155 52.0405 28.1557 52.14 33.0084C52.0529 37.857 52.6796 42.6922 54 47.3584V47.3584C55.0991 51.1262 56.9194 54.6446 59.36 57.7184V57.7184C61.6003 60.4568 64.4681 62.6144 67.72 64.0084V64.0084C74.3524 66.6906 81.7676 66.6906 88.4 64.0084V64.0084C91.6579 62.6144 94.5398 60.4693 96.81 57.7484V57.7484C99.2798 54.681 101.121 51.1573 102.23 47.3784C103.594 42.7129 104.248 37.8686 104.17 33.0084C104.257 28.1589 103.61 23.3241 102.25 18.6684C101.15 14.892 99.3075 11.3733 96.83 8.31838V8.31838ZM84.17 49.3684C83.4993 50.5105 82.5225 51.4423 81.35 52.0584C80.3325 52.5585 79.2138 52.8186 78.08 52.8184C76.9526 52.8183 75.8405 52.5583 74.83 52.0584C73.6857 51.4285 72.7349 50.4985 72.08 49.3684C71.0067 47.482 70.2532 45.4309 69.85 43.2984C69.1772 39.911 68.8688 36.4614 68.93 33.0084C68.8613 29.5594 69.163 26.113 69.83 22.7284C70.2332 20.5958 70.9867 18.5448 72.06 16.6584C72.7149 15.5283 73.6657 14.5982 74.81 13.9684C75.8205 13.4685 76.9326 13.2084 78.06 13.2084C79.1938 13.2082 80.3125 13.4682 81.33 13.9684V13.9684C82.5025 14.5845 83.4793 15.5162 84.15 16.6584C85.245 18.535 86.0126 20.5842 86.42 22.7184V22.7184C87.1278 26.1011 87.4499 29.5531 87.38 33.0084C87.4549 36.4661 87.1396 39.9213 86.44 43.3084C86.0326 45.4425 85.265 47.4918 84.17 49.3684Z"/>
</svg>
