<svg viewBox="0 0 24 24" xmlns="http://www.w3.org/2000/svg">
<path fill-rule="evenodd" clip-rule="evenodd" d="M19.2676 4.67969C18.8056 4.34569 18.2076 4.25069 17.6686 4.42669C17.0926 4.61469 16.3426 4.71369 15.4996 4.71369C14.3756 4.71369 13.3996 4.33069 12.3656 3.92569C11.2036 3.47069 10.0006 2.99969 8.49957 2.99969C5.61357 2.99969 4.49557 3.95169 4.29957 4.14369C4.10857 4.33069 3.99957 4.58869 3.99957 4.85769V11.9997V15.1427V19.9997C3.99957 20.5527 4.44757 20.9997 4.99957 20.9997C5.55257 20.9997 5.99957 20.5527 5.99957 19.9997V15.7017C6.39457 15.5267 7.17257 15.2857 8.49957 15.2857C9.62357 15.2857 10.6006 15.6687 11.6346 16.0747C12.7966 16.5297 13.9986 16.9997 15.4996 16.9997C17.3086 16.9997 18.4226 16.6217 19.0406 16.3047C19.6326 15.9977 19.9996 15.4027 19.9996 14.7487V6.10569C19.9996 5.54569 19.7266 5.01269 19.2676 4.67969Z"/>
</svg>
