<svg viewBox="0 0 20 20" xmlns="http://www.w3.org/2000/svg">
    <path d="M9.25947 19.1667C9.16447 19.1667 9.06863 19.1501 8.97447 19.1159C8.61447 18.9851 8.38947 18.6251 8.43113 18.2442L9.07113 12.3334H4.16697C3.85947 12.3334 3.57697 12.1642 3.43197 11.8926C3.28697 11.6209 3.30363 11.2926 3.47447 11.0367L10.0478 1.2034C10.2611 0.884237 10.6645 0.751737 11.0253 0.884237C11.3861 1.01507 11.6103 1.37507 11.5686 1.7559L10.9286 7.66674H15.8336C16.1411 7.66674 16.4236 7.8359 16.5686 8.10757C16.7128 8.37924 16.697 8.70757 16.5261 8.9634L9.95197 18.7967C9.79447 19.0334 9.53113 19.1667 9.25947 19.1667Z"/>
</svg>
