<svg viewBox="0 0 24 24" xmlns="http://www.w3.org/2000/svg">
<path d="M14.2928 7.20725C13.9018 6.81625 13.9018 6.18425 14.2928 5.79325L17.2928 2.79325C17.6838 2.40225 18.3158 2.40225 18.7068 2.79325L21.7068 5.79325C21.9018 5.98825 21.9998 6.24425 21.9998 6.50025C21.9998 6.75625 21.9018 7.01225 21.7068 7.20725C21.3158 7.59825 20.6838 7.59825 20.2928 7.20725L18.9998 5.91425V17.9102C18.9998 19.8902 17.4168 21.5002 15.4708 21.5002H12.9998C12.4468 21.5002 11.9998 21.0532 11.9998 20.5002C11.9998 19.9473 12.4468 19.5002 12.9998 19.5002H15.4708C16.3138 19.5002 16.9998 18.7873 16.9998 17.9102V5.91425L15.7068 7.20725C15.3158 7.59825 14.6838 7.59825 14.2928 7.20725ZM4.99976 18.0861V6.09005C4.99976 4.11105 6.58276 2.50005 8.52876 2.50005H10.9998C11.5528 2.50005 11.9998 2.94705 11.9998 3.50005C11.9998 4.05305 11.5528 4.50005 10.9998 4.50005H8.52876C7.68676 4.50005 6.99976 5.21305 6.99976 6.09005V18.0861L8.29276 16.793C8.68376 16.4031 9.31576 16.4031 9.70676 16.793C9.90176 16.9881 9.99976 17.2441 9.99976 17.5C9.99976 17.7561 9.90176 18.012 9.70676 18.207L6.70676 21.2071C6.31576 21.5981 5.68376 21.5981 5.29276 21.2071L2.29276 18.207C1.90176 17.817 1.90176 17.1841 2.29276 16.793C2.68376 16.4031 3.31576 16.4031 3.70676 16.793L4.99976 18.0861Z"/>
</svg>
