<svg viewBox="0 0 21 20" xmlns="http://www.w3.org/2000/svg">
<path fill-rule="evenodd" clip-rule="evenodd" d="M11.3332 10.6975V11.6666C11.3332 12.1275 10.9607 12.5 10.4998 12.5C10.039 12.5 9.6665 12.1275 9.6665 11.6666V9.99996C9.6665 9.53913 10.039 9.16663 10.4998 9.16663C11.189 9.16663 11.7498 8.60579 11.7498 7.91663C11.7498 7.22746 11.189 6.66663 10.4998 6.66663C9.81067 6.66663 9.24984 7.22746 9.24984 7.91663C9.24984 8.37746 8.87734 8.74996 8.4165 8.74996C7.95567 8.74996 7.58317 8.37746 7.58317 7.91663C7.58317 6.30829 8.8915 4.99996 10.4998 4.99996C12.1082 4.99996 13.4165 6.30829 13.4165 7.91663C13.4165 9.23329 12.5332 10.3358 11.3332 10.6975ZM10.4998 15C10.039 15 9.6665 14.6275 9.6665 14.1666C9.6665 13.7058 10.039 13.3333 10.4998 13.3333C10.9607 13.3333 11.3332 13.7058 11.3332 14.1666C11.3332 14.6275 10.9607 15 10.4998 15ZM10.4998 1.66663C5.90484 1.66663 2.1665 5.40496 2.1665 9.99996C2.1665 14.595 5.90484 18.3333 10.4998 18.3333C15.0948 18.3333 18.8332 14.595 18.8332 9.99996C18.8332 5.40496 15.0948 1.66663 10.4998 1.66663Z"/>
</svg>
