<svg viewBox="0 0 32 32" xmlns="http://www.w3.org/2000/svg">
<path fill-rule="evenodd" clip-rule="evenodd" d="M26.736 6.6665H5.26402C4.56935 6.6665 4.00002 7.23584 4.00002 7.9305V8.06917C4.00002 8.76384 4.56935 9.33317 5.26402 9.33317H26.736C27.4307 9.33317 28 8.76384 28 8.06917V7.9305C28 7.23584 27.4307 6.6665 26.736 6.6665ZM5.26402 14.6665H24.1147L22.3907 12.9425C21.8693 12.4212 21.8693 11.5785 22.3907 11.0572C22.9107 10.5358 23.7547 10.5358 24.276 11.0572L28.276 15.0572C28.796 15.5785 28.796 16.4212 28.276 16.9425L24.276 20.9425C24.0147 21.2025 23.6747 21.3332 23.3333 21.3332C22.992 21.3332 22.6507 21.2025 22.3907 20.9425C21.8693 20.4212 21.8693 19.5785 22.3907 19.0572L24.1147 17.3332H5.26402C4.56935 17.3332 4.00002 16.7638 4.00002 16.0692V15.9305C4.00002 15.2358 4.56935 14.6665 5.26402 14.6665ZM5.26402 22.6665H26.736C27.4307 22.6665 28 23.2358 28 23.9305V24.0692C28 24.7638 27.4307 25.3332 26.736 25.3332H5.26402C4.56935 25.3332 4.00002 24.7638 4.00002 24.0692V23.9305C4.00002 23.2358 4.56935 22.6665 5.26402 22.6665Z" />
</svg>
