<svg width="24" height="24" viewBox="0 0 24 24" xmlns="http://www.w3.org/2000/svg">
<circle cx="12" cy="12" r="12" fill="#181920"/>
<path fill-rule="evenodd" clip-rule="evenodd" d="M14.2857 11.4285C14.2857 12.6891 13.2606 13.7142 12 13.7142C10.7394 13.7142 9.71429 12.6891 9.71429 11.4285V8.57136C9.71429 7.31079 10.7394 6.28564 12 6.28564C13.2606 6.28564 14.2857 7.31079 14.2857 8.57136V11.4285ZM15.4286 10.8571C15.7446 10.8571 16 11.1131 16 11.4285C16 13.44 14.5069 15.104 12.5714 15.3828V16.5714H13.7743C14.056 16.5714 14.2857 16.8011 14.2857 17.0828V17.2028C14.2857 17.4845 14.056 17.7142 13.7743 17.7142H10.2257C9.944 17.7142 9.71429 17.4845 9.71429 17.2028V17.0828C9.71429 16.8011 9.944 16.5714 10.2257 16.5714H11.4286V15.3828C9.49314 15.104 8 13.44 8 11.4285C8 11.1131 8.25543 10.8571 8.57143 10.8571C8.88743 10.8571 9.14286 11.1131 9.14286 11.4285C9.14286 13.004 10.4246 14.2857 12 14.2857C13.5754 14.2857 14.8571 13.004 14.8571 11.4285C14.8571 11.1131 15.1126 10.8571 15.4286 10.8571Z" fill="white"/>
</svg>
