<svg width="20" height="20" viewBox="0 0 20 20" xmlns="http://www.w3.org/2000/svg">
<path fill-rule="evenodd" clip-rule="evenodd" d="M2.5 10.0002C2.5 9.08016 3.24667 8.3335 4.16667 8.3335C5.08667 8.3335 5.83333 9.08016 5.83333 10.0002C5.83333 10.9202 5.08667 11.6668 4.16667 11.6668C3.24667 11.6668 2.5 10.9202 2.5 10.0002ZM10 8.3335C9.08 8.3335 8.33333 9.08016 8.33333 10.0002C8.33333 10.9202 9.08 11.6668 10 11.6668C10.92 11.6668 11.6667 10.9202 11.6667 10.0002C11.6667 9.08016 10.92 8.3335 10 8.3335ZM15.8333 8.3335C14.9133 8.3335 14.1667 9.08016 14.1667 10.0002C14.1667 10.9202 14.9133 11.6668 15.8333 11.6668C16.7533 11.6668 17.5 10.9202 17.5 10.0002C17.5 9.08016 16.7533 8.3335 15.8333 8.3335Z"/>
</svg>
