<svg width="40" height="24" viewBox="0 0 40 24" fill="none" xmlns="http://www.w3.org/2000/svg">
<rect x="0.5" y="0.5" width="39" height="23" rx="7.5" stroke="#0055CB"/>
<path fill-rule="evenodd" clip-rule="evenodd" d="M11 12C11 10.896 11.896 10 13 10C14.104 10 15 10.896 15 12C15 13.104 14.104 14 13 14C11.896 14 11 13.104 11 12ZM20 10C18.896 10 18 10.896 18 12C18 13.104 18.896 14 20 14C21.104 14 22 13.104 22 12C22 10.896 21.104 10 20 10ZM27 10C25.896 10 25 10.896 25 12C25 13.104 25.896 14 27 14C28.104 14 29 13.104 29 12C29 10.896 28.104 10 27 10Z" fill="#0055CB"/>
</svg>
