<svg xmlns="http://www.w3.org/2000/svg" viewBox="0 0 50 50">
  <path
    d="M33.053 27.25c-2.557 0-4.636 2.103-4.636 4.688s2.079 4.688 4.636 4.688c2.244 0 4.118-1.621 4.543-3.766a.989.989 0 0 0 .092-.41V10.625a1 1 0 0 0-1.209-.977l-18.729 4a1 1 0 0 0-.791.978V33.09a4.571 4.571 0 0 0-2.636-.839c-2.556 0-4.635 2.103-4.635 4.688s2.079 4.688 4.635 4.688c2.557 0 4.636-2.103 4.636-4.688 0-.112-.025-.217-.033-.326.009-.055.033-.104.033-.162V21.434l16.729-3.573V28.09a4.566 4.566 0 0 0-2.635-.84zm0 7.375c-1.453 0-2.636-1.206-2.636-2.688s1.183-2.688 2.636-2.688 2.635 1.206 2.635 2.688-1.182 2.688-2.635 2.688zm-18.731 5c-1.453 0-2.635-1.206-2.635-2.688s1.182-2.688 2.635-2.688 2.636 1.206 2.636 2.688-1.183 2.688-2.636 2.688zm4.636-20.236v-3.956l16.729-3.572v3.955l-16.729 3.573z"/>
</svg>
