<svg viewBox="0 0 20 20" xmlns="http://www.w3.org/2000/svg">
    <path d="M2.64159 5.01772L9.22492 1.55105C9.70825 1.29272 10.2916 1.29272 10.7749 1.55105L17.3583 5.01772C17.6999 5.19272 17.9166 5.55105 17.9166 5.93438C17.9166 6.50938 17.4499 6.97605 16.8833 6.97605H3.12492C2.54992 6.97605 2.08325 6.50938 2.08325 5.93438C2.08325 5.55105 2.29992 5.19272 2.64159 5.01772ZM3.74992 9.89272V13.2261C3.74992 13.9177 4.30825 14.4761 4.99992 14.4761C5.69159 14.4761 6.24992 13.9177 6.24992 13.2261V9.89272C6.24992 9.20105 5.69159 8.64272 4.99992 8.64272C4.30825 8.64272 3.74992 9.20105 3.74992 9.89272ZM8.74992 9.89272V13.2261C8.74992 13.9177 9.30825 14.4761 9.99992 14.4761C10.6916 14.4761 11.2499 13.9177 11.2499 13.2261V9.89272C11.2499 9.20105 10.6916 8.64272 9.99992 8.64272C9.30825 8.64272 8.74992 9.20105 8.74992 9.89272ZM17.9166 17.3927C17.9166 18.0844 17.3583 18.6427 16.6666 18.6427H3.33325C2.64159 18.6427 2.08325 18.0844 2.08325 17.3927C2.08325 16.701 2.64159 16.1427 3.33325 16.1427H16.6666C17.3583 16.1427 17.9166 16.701 17.9166 17.3927ZM13.7499 9.89272V13.2261C13.7499 13.9177 14.3083 14.4761 14.9999 14.4761C15.6916 14.4761 16.2499 13.9177 16.2499 13.2261V9.89272C16.2499 9.20105 15.6916 8.64272 14.9999 8.64272C14.3083 8.64272 13.7499 9.20105 13.7499 9.89272Z"/>
</svg>
