<svg width="20" height="20" viewBox="0 0 20 20" xmlns="http://www.w3.org/2000/svg">
<path fill-rule="evenodd" clip-rule="evenodd" d="M14.9993 8.33333C14.9993 7.87417 14.626 7.5 14.166 7.5C13.706 7.5 13.3327 7.87417 13.3327 8.33333C13.3327 8.7925 13.706 9.16667 14.166 9.16667C14.626 9.16667 14.9993 8.7925 14.9993 8.33333ZM16.666 8.33333C16.666 9.71167 15.5443 10.8333 14.166 10.8333C12.7877 10.8333 11.666 9.71167 11.666 8.33333C11.666 6.955 12.7877 5.83333 14.166 5.83333C15.5443 5.83333 16.666 6.955 16.666 8.33333ZM9.16602 5.83333C9.16602 4.91417 8.41852 4.16667 7.49935 4.16667C6.58018 4.16667 5.83268 4.91417 5.83268 5.83333C5.83268 6.7525 6.58018 7.5 7.49935 7.5C8.41852 7.5 9.16602 6.7525 9.16602 5.83333ZM10.8327 5.83333C10.8327 7.67167 9.33768 9.16667 7.49935 9.16667C5.66102 9.16667 4.16602 7.67167 4.16602 5.83333C4.16602 3.995 5.66102 2.5 7.49935 2.5C9.33768 2.5 10.8327 3.995 10.8327 5.83333ZM11.616 12.5383C12.3402 11.9783 13.2318 11.6667 14.166 11.6667C16.4635 11.6667 18.3327 13.5358 18.3327 15.8333C18.3327 16.2933 17.9602 16.6667 17.4993 16.6667C17.0385 16.6667 16.666 16.2933 16.666 15.8333C16.666 14.455 15.5443 13.3333 14.166 13.3333C13.5968 13.3333 13.056 13.5283 12.6193 13.8742C13.0727 14.7042 13.3327 15.6558 13.3327 16.6667C13.3327 17.1267 12.9602 17.5 12.4993 17.5C12.0385 17.5 11.666 17.1267 11.666 16.6667C11.666 14.3692 9.79685 12.5 7.49935 12.5C5.20185 12.5 3.33268 14.3692 3.33268 16.6667C3.33268 17.1267 2.96018 17.5 2.49935 17.5C2.03852 17.5 1.66602 17.1267 1.66602 16.6667C1.66602 13.45 4.28352 10.8333 7.49935 10.8333C9.10518 10.8333 10.5602 11.4858 11.616 12.5383Z"/>
</svg>
