<svg viewBox="0 0 20 20" xmlns="http://www.w3.org/2000/svg">
    <path d="M8.33333 9.16667C10.1717 9.16667 11.6667 7.67167 11.6667 5.83333C11.6667 3.995 10.1717 2.5 8.33333 2.5C6.495 2.5 5 3.995 5 5.83333C5 7.67167 6.495 9.16667 8.33333 9.16667ZM17.5 5H14.1667C13.7083 5 13.3333 5.375 13.3333 5.83333C13.3333 6.29167 13.7083 6.66667 14.1667 6.66667H17.5C17.9583 6.66667 18.3333 6.29167 18.3333 5.83333C18.3333 5.375 17.9583 5 17.5 5ZM14.1667 16.6667C14.1667 17.1267 13.7942 17.5 13.3333 17.5H3.33333C2.8725 17.5 2.5 17.1267 2.5 16.6667C2.5 13.45 5.1175 10.8333 8.33333 10.8333C11.5492 10.8333 14.1667 13.45 14.1667 16.6667Z"/>
</svg>
