<svg viewBox="0 0 20 20" xmlns="http://www.w3.org/2000/svg">
    <path d="M16.8945 7.22217C16.5895 5.09634 14.9037 3.4105 12.7779 3.1055V7.22217H16.8945ZM17.6387 8.6105H12.0837C11.7004 8.6105 11.3887 8.3005 11.3887 7.91634V2.3605C11.3887 1.97717 11.7004 1.66634 12.0837 1.66634C15.5295 1.66634 18.3337 4.4705 18.3337 7.91634C18.3337 8.3005 18.022 8.6105 17.6387 8.6105ZM10.7787 9.98139H17.5695C18.0212 9.98139 18.3745 10.3747 18.3295 10.8239C17.8762 15.3456 13.8162 18.8056 9.06788 18.2806C5.24704 17.8589 2.14121 14.7531 1.71871 10.9322C1.19537 6.18389 4.65371 2.12306 9.17621 1.67056C9.62621 1.62556 10.0187 1.97806 10.0187 2.42973V9.22223C10.0187 9.64139 10.3587 9.98139 10.7787 9.98139Z"/>
</svg>
