<svg viewBox="0 0 20 20" xmlns="http://www.w3.org/2000/svg">
<path d="M6.24935 15.8333V12.5H13.7493L13.751 15.8333H6.24935ZM6.67768 4.16667H13.3327V5.83333H6.67185L6.67768 4.16667ZM16.1352 5.83333H14.9993V4.16667C14.9993 3.2475 14.3143 2.5 13.4718 2.5H6.52685C5.68435 2.5 4.99935 3.2475 4.99935 4.16667V5.83333H3.86352C2.65185 5.83333 1.66602 6.83 1.66602 8.05583V13.6108C1.66602 14.8367 2.65185 15.8333 3.86352 15.8333H4.58268C4.58268 16.7525 5.33018 17.5 6.24935 17.5H13.7493C14.6685 17.5 15.416 16.7525 15.416 15.8333H16.1352C17.3469 15.8333 18.3327 14.8367 18.3327 13.6108V8.05583C18.3327 6.83 17.3469 5.83333 16.1352 5.83333Z" />
</svg>
