<svg viewBox="0 0 29 31" xmlns="http://www.w3.org/2000/svg">
    <path d="M23 23H25C27.2091 23 29 21.2091 29 19V4C29 1.79086 27.2091 0 25 0H10C7.79086 0 6 1.79086 6 4V8H7V4C7 2.34315 8.34315 1 10 1H25C26.6569 1 28 2.34315 28 4V19C28 20.6569 26.6569 22 25 22H23V23Z"/>
    <path d="M20 30.874C21.7252 30.4299 23 28.8638 23 27V12C23 9.79086 21.2091 8 19 8H4C1.79086 8 0 9.79086 0 12V20H1V12C1 10.3431 2.34315 9 4 9H19C20.6569 9 22 10.3431 22 12V27C22 28.3062 21.1652 29.4175 20 29.8293V30.874Z"/>
</svg>
