<svg width="15" height="15" viewBox="0 0 16 16" xmlns="http://www.w3.org/2000/svg">
<path fill-rule="evenodd" clip-rule="evenodd" d="M12.4031 15.5C12.278 15.5 12.1521 15.4707 12.0365 15.4106L7.99977 13.3024L3.9638 15.4106C3.69621 15.5491 3.37321 15.5253 3.13096 15.3481C2.88712 15.1708 2.766 14.8709 2.81745 14.5741L3.58617 10.1204L0.324466 6.9669C0.107546 6.75719 0.0291704 6.44223 0.121796 6.15418C0.214423 5.86771 0.462217 5.65801 0.761471 5.61527L5.27403 4.96004L7.29122 0.903587C7.5588 0.365471 8.44152 0.365471 8.70911 0.903587L10.7263 4.96004L15.2389 5.61527C15.5381 5.65801 15.7859 5.86771 15.8785 6.15418C15.9712 6.44223 15.8928 6.75719 15.6759 6.9669L12.4142 10.1204L13.1829 14.5741C13.2343 14.8709 13.1124 15.1708 12.8694 15.3481C12.7316 15.4494 12.5677 15.5 12.4031 15.5Z"/>
</svg>
