<svg viewBox="0 0 20 20" xmlns="http://www.w3.org/2000/svg">
    <path d="M10.0001 5C10.4601 5 10.8334 4.6275 10.8334 4.16667V2.5C10.8334 2.03917 10.4601 1.66667 10.0001 1.66667C9.54008 1.66667 9.16675 2.03917 9.16675 2.5V4.16667C9.16675 4.6275 9.54008 5 10.0001 5ZM17.5001 9.16667H15.8334C15.3734 9.16667 15.0001 9.53917 15.0001 10C15.0001 10.4608 15.3734 10.8333 15.8334 10.8333H17.5001C17.9601 10.8333 18.3334 10.4608 18.3334 10C18.3334 9.53917 17.9601 9.16667 17.5001 9.16667ZM4.16675 9.16667C4.62675 9.16667 5.00008 9.53917 5.00008 10C5.00008 10.4608 4.62675 10.8333 4.16675 10.8333H2.50008C2.04008 10.8333 1.66675 10.4608 1.66675 10C1.66675 9.53917 2.04008 9.16667 2.50008 9.16667H4.16675ZM5.184 4.19025C4.85316 3.87108 4.32566 3.88108 4.00566 4.21108C3.68566 4.54192 3.69483 5.07025 4.02566 5.38942L5.22483 6.54775C5.38733 6.70442 5.59566 6.78108 5.804 6.78108C6.02233 6.78108 6.23983 6.69608 6.40316 6.52692C6.72316 6.19608 6.714 5.66775 6.38316 5.34858L5.184 4.19025ZM14.7752 6.54808C14.6127 6.70392 14.4044 6.78141 14.1961 6.78141C13.9777 6.78141 13.7602 6.69558 13.5969 6.52642C13.2769 6.19642 13.2861 5.66808 13.6169 5.34808L14.8161 4.19058C15.1486 3.87142 15.6752 3.88142 15.9944 4.21142C16.3144 4.54142 16.3052 5.06975 15.9744 5.38975L14.7752 6.54808ZM10.0001 15C9.54008 15 9.16675 15.3725 9.16675 15.8333V17.5C9.16675 17.9608 9.54008 18.3333 10.0001 18.3333C10.4601 18.3333 10.8334 17.9608 10.8334 17.5V15.8333C10.8334 15.3725 10.4601 15 10.0001 15ZM13.5967 13.473C13.9167 13.143 14.4442 13.133 14.7751 13.4522L15.9742 14.6105C16.3051 14.9297 16.3142 15.458 15.9942 15.7888C15.8309 15.958 15.6134 16.043 15.3951 16.043C15.1867 16.043 14.9784 15.9663 14.8159 15.8097L13.6167 14.6513C13.2859 14.3322 13.2767 13.8038 13.5967 13.473ZM5.22508 13.4522L4.02591 14.6105C3.69508 14.9297 3.68591 15.458 4.00591 15.7888C4.16925 15.958 4.38675 16.043 4.60508 16.043C4.81341 16.043 5.02175 15.9663 5.18425 15.8097L6.38341 14.6513C6.71425 14.3322 6.72341 13.8038 6.40341 13.473C6.08425 13.143 5.55675 13.133 5.22508 13.4522ZM6.66675 10C6.66675 8.16167 8.16175 6.66667 10.0001 6.66667C11.8384 6.66667 13.3334 8.16167 13.3334 10C13.3334 11.8383 11.8384 13.3333 10.0001 13.3333C8.16175 13.3333 6.66675 11.8383 6.66675 10Z"/>
</svg>
