<svg viewBox="0 0 24 24" xmlns="http://www.w3.org/2000/svg">
    <path d="M24 10.2353V8.11765L12 1.05884L0 8.11765V10.2353H2.11762V20.8235H0.705891V22.9412H23.2941V20.8235H21.8823V10.2353H24ZM7.7647 18.7059H4.94119V10.2353H7.7647V18.7059ZM13.4118 18.7059H10.5883V10.2353H13.4118V18.7059ZM12 8.11765C10.8305 8.11765 9.88238 7.16951 9.88238 6.00003C9.88238 4.83054 10.8305 3.8824 12 3.8824C13.1695 3.8824 14.1176 4.83054 14.1176 6.00003C14.1176 7.16951 13.1695 8.11765 12 8.11765ZM19.0588 18.7059H16.2353V10.2353H19.0588V18.7059Z"/>
</svg>
