<svg viewBox="0 0 139 152" xmlns="http://www.w3.org/2000/svg">
  <path d="M0.5 38.296L69.282 0.57027L138.064 38.296V113.704L69.282 151.43L0.5 113.704V38.296Z" fill="#352F2F" fill-opacity="0.27" stroke="#0B73D3"/>
<!--  <g clip-path="url(#clip0)">-->
  <path d="M67.8543 96.2092L37.9585 78.7587V43.9287L67.8543 26.4783L97.7502 43.9287V78.7587L67.8543 96.2092ZM41.3752 76.835L67.8543 92.2908L94.3335 76.835V45.8525L67.8543 30.3967L41.3752 45.8525V76.835Z" fill="url(#paint0_linear)"/>
  <path d="M67.8542 35.1875C71.1564 35.1875 73.8333 32.5432 73.8333 29.2812C73.8333 26.0193 71.1564 23.375 67.8542 23.375C64.552 23.375 61.875 26.0193 61.875 29.2812C61.875 32.5432 64.552 35.1875 67.8542 35.1875Z" fill="url(#paint1_linear)"/>
  <path d="M67.8542 99.3125C71.1564 99.3125 73.8333 96.6682 73.8333 93.4063C73.8333 90.1443 71.1564 87.5 67.8542 87.5C64.552 87.5 61.875 90.1443 61.875 93.4063C61.875 96.6682 64.552 99.3125 67.8542 99.3125Z" fill="url(#paint2_linear)"/>
  <path d="M40.5207 82.4375C43.8229 82.4375 46.4998 79.7932 46.4998 76.5312C46.4998 73.2693 43.8229 70.625 40.5207 70.625C37.2185 70.625 34.5415 73.2693 34.5415 76.5312C34.5415 79.7932 37.2185 82.4375 40.5207 82.4375Z" fill="url(#paint3_linear)"/>
  <path d="M95.1877 82.4375C98.4899 82.4375 101.167 79.7932 101.167 76.5312C101.167 73.2693 98.4899 70.625 95.1877 70.625C91.8855 70.625 89.2085 73.2693 89.2085 76.5312C89.2085 79.7932 91.8855 82.4375 95.1877 82.4375Z" fill="url(#paint4_linear)"/>
  <path d="M40.5207 52.0625C43.8229 52.0625 46.4998 49.4182 46.4998 46.1563C46.4998 42.8943 43.8229 40.25 40.5207 40.25C37.2185 40.25 34.5415 42.8943 34.5415 46.1563C34.5415 49.4182 37.2185 52.0625 40.5207 52.0625Z" fill="url(#paint5_linear)"/>
  <path d="M95.1877 52.0625C98.4899 52.0625 101.167 49.4182 101.167 46.1563C101.167 42.8943 98.4899 40.25 95.1877 40.25C91.8855 40.25 89.2085 42.8943 89.2085 46.1563C89.2085 49.4182 91.8855 52.0625 95.1877 52.0625Z" fill="url(#paint6_linear)"/>
  <path d="M98.9797 79.0625H36.728L67.8539 25.0254L98.9797 79.0625ZM42.6047 75.6875H93.103L67.8539 31.8496L42.6047 75.6875Z" fill="url(#paint7_linear)"/>
<!--</g>-->
  <path d="M37.6305 116.321C37.1969 116.942 36.5905 117.408 35.8112 117.719C35.0377 118.023 34.1354 118.176 33.1041 118.176C32.0612 118.176 31.1354 117.933 30.3268 117.446C29.5182 116.954 28.8913 116.257 28.4459 115.354C28.0065 114.452 27.7809 113.406 27.7692 112.217V111.101C27.7692 109.173 28.2174 107.679 29.1139 106.618C30.0163 105.558 31.2819 105.027 32.9108 105.027C34.2467 105.027 35.3219 105.37 36.1364 106.056C36.9508 106.735 37.4489 107.702 37.6305 108.956H35.943C35.6266 107.263 34.6188 106.416 32.9196 106.416C31.7887 106.416 30.9303 106.814 30.3444 107.611C29.7643 108.402 29.4713 109.551 29.4655 111.057V112.103C29.4655 113.538 29.7936 114.681 30.4498 115.53C31.1061 116.374 31.9938 116.796 33.1129 116.796C33.7457 116.796 34.2995 116.726 34.7741 116.585C35.2487 116.444 35.6413 116.207 35.9518 115.873V112.999H32.9899V111.628H37.6305V116.321ZM47.6736 109.949C47.4275 109.908 47.1609 109.888 46.8738 109.888C45.8074 109.888 45.0838 110.342 44.7029 111.25V118H43.0769V108.49H44.6589L44.6853 109.589C45.2185 108.739 45.9744 108.314 46.9529 108.314C47.2693 108.314 47.5095 108.355 47.6736 108.438V109.949ZM57.5761 118C57.4823 117.812 57.4061 117.479 57.3475 116.998C56.5917 117.783 55.6893 118.176 54.6405 118.176C53.703 118.176 52.9325 117.912 52.329 117.385C51.7313 116.852 51.4325 116.178 51.4325 115.363C51.4325 114.373 51.8075 113.605 52.5575 113.061C53.3134 112.51 54.3739 112.234 55.7391 112.234H57.3212V111.487C57.3212 110.919 57.1513 110.468 56.8114 110.134C56.4716 109.794 55.9706 109.624 55.3085 109.624C54.7284 109.624 54.2421 109.771 53.8495 110.063C53.4569 110.356 53.2606 110.711 53.2606 111.127H51.6259C51.6259 110.652 51.7929 110.195 52.1268 109.756C52.4667 109.311 52.9237 108.959 53.4979 108.701C54.078 108.443 54.7138 108.314 55.4052 108.314C56.5009 108.314 57.3593 108.59 57.9804 109.141C58.6014 109.686 58.9237 110.438 58.9471 111.399V115.776C58.9471 116.649 59.0585 117.344 59.2811 117.859V118H57.5761ZM54.8778 116.761C55.3876 116.761 55.871 116.629 56.328 116.365C56.785 116.102 57.1161 115.759 57.3212 115.337V113.386H56.0468C54.0546 113.386 53.0585 113.969 53.0585 115.135C53.0585 115.645 53.2284 116.043 53.5682 116.33C53.9081 116.617 54.3446 116.761 54.8778 116.761ZM72.4092 113.351C72.4092 114.798 72.0781 115.964 71.416 116.849C70.7539 117.733 69.8574 118.176 68.7266 118.176C67.5723 118.176 66.6641 117.81 66.002 117.077V121.656H64.376V108.49H65.8613L65.9404 109.545C66.6025 108.725 67.5225 108.314 68.7002 108.314C69.8428 108.314 70.7451 108.745 71.4072 109.606C72.0752 110.468 72.4092 111.666 72.4092 113.201V113.351ZM70.7832 113.166C70.7832 112.094 70.5547 111.247 70.0977 110.626C69.6406 110.005 69.0137 109.694 68.2168 109.694C67.2324 109.694 66.4941 110.131 66.002 111.004V115.548C66.4883 116.415 67.2324 116.849 68.2344 116.849C69.0137 116.849 69.6318 116.541 70.0889 115.926C70.5518 115.305 70.7832 114.385 70.7832 113.166ZM78.9894 109.642C79.7101 108.757 80.6476 108.314 81.8019 108.314C83.8116 108.314 84.8253 109.448 84.8429 111.716V118H83.2169V111.707C83.2111 111.021 83.0529 110.515 82.7423 110.187C82.4376 109.858 81.9601 109.694 81.3097 109.694C80.7823 109.694 80.3195 109.835 79.921 110.116C79.5226 110.397 79.212 110.767 78.9894 111.224V118H77.3634V104.5H78.9894V109.642ZM100.186 112.015C100.186 113.251 99.9895 114.317 99.5969 115.214C99.2043 116.104 98.6536 116.802 97.9446 117.306L100.23 119.099L99.0784 120.162L96.3801 118.018C95.9582 118.123 95.5129 118.176 95.0442 118.176C94.0364 118.176 93.1428 117.93 92.3635 117.438C91.5842 116.939 90.9778 116.233 90.5442 115.319C90.1164 114.399 89.8967 113.336 89.885 112.129V111.206C89.885 109.976 90.0989 108.889 90.5266 107.945C90.9543 107.002 91.5579 106.281 92.3372 105.783C93.1223 105.279 94.0188 105.027 95.0266 105.027C96.0579 105.027 96.9631 105.276 97.7424 105.774C98.5276 106.272 99.1311 106.99 99.553 107.928C99.9748 108.859 100.186 109.949 100.186 111.197V112.015ZM98.4983 111.188C98.4983 109.683 98.1965 108.522 97.593 107.708C96.9954 106.888 96.1399 106.478 95.0266 106.478C93.9661 106.478 93.1282 106.885 92.5129 107.699C91.9036 108.508 91.5901 109.633 91.5725 111.074V112.015C91.5725 113.479 91.8772 114.634 92.4866 115.478C93.1018 116.321 93.9543 116.743 95.0442 116.743C96.134 116.743 96.9778 116.348 97.5754 115.557C98.1731 114.76 98.4807 113.62 98.4983 112.138V111.188ZM107.364 116.62H113.428V118H105.667V105.203H107.364V116.62Z" fill="url(#paint8_linear)"/>
<defs>
<linearGradient id="paint0_linear" x1="67.8543" y1="24.8273" x2="67.8543" y2="93.203" gradientUnits="userSpaceOnUse">
<stop stop-color="#5190FE"/>
<stop offset="1" stop-color="#E28AFF"/>
</linearGradient>
<linearGradient id="paint1_linear" x1="67.8542" y1="23.0953" x2="67.8542" y2="34.6783" gradientUnits="userSpaceOnUse">
<stop stop-color="#5190FE"/>
<stop offset="1" stop-color="#E28AFF"/>
</linearGradient>
<linearGradient id="paint2_linear" x1="67.8542" y1="87.2203" x2="67.8542" y2="98.8033" gradientUnits="userSpaceOnUse">
<stop stop-color="#5190FE"/>
<stop offset="1" stop-color="#E28AFF"/>
</linearGradient>
<linearGradient id="paint3_linear" x1="40.5207" y1="70.3453" x2="40.5207" y2="81.9283" gradientUnits="userSpaceOnUse">
<stop stop-color="#5190FE"/>
<stop offset="1" stop-color="#E28AFF"/>
</linearGradient>
<linearGradient id="paint4_linear" x1="95.1877" y1="70.3453" x2="95.1877" y2="81.9283" gradientUnits="userSpaceOnUse">
<stop stop-color="#5190FE"/>
<stop offset="1" stop-color="#E28AFF"/>
</linearGradient>
<linearGradient id="paint5_linear" x1="40.5207" y1="39.9703" x2="40.5207" y2="51.5533" gradientUnits="userSpaceOnUse">
<stop stop-color="#5190FE"/>
<stop offset="1" stop-color="#E28AFF"/>
</linearGradient>
<linearGradient id="paint6_linear" x1="95.1877" y1="39.9703" x2="95.1877" y2="51.5533" gradientUnits="userSpaceOnUse">
<stop stop-color="#5190FE"/>
<stop offset="1" stop-color="#E28AFF"/>
</linearGradient>
<linearGradient id="paint7_linear" x1="67.8539" y1="23.746" x2="67.8539" y2="76.733" gradientUnits="userSpaceOnUse">
<stop stop-color="#5190FE"/>
<stop offset="1" stop-color="#E28AFF"/>
</linearGradient>
<linearGradient id="paint8_linear" x1="70.2822" y1="100.503" x2="70.2822" y2="121.095" gradientUnits="userSpaceOnUse">
<stop stop-color="#5190FE"/>
<stop offset="1" stop-color="#E28AFF"/>
</linearGradient>
<clipPath id="clip0">
<rect width="82" height="81" fill="white" transform="translate(26 20)"/>
</clipPath>
</defs>
</svg>
