<svg viewBox="0 0 139 152" xmlns="http://www.w3.org/2000/svg">
<path d="M0.5 38.296L69.282 0.57027L138.064 38.296V113.704L69.282 151.43L0.5 113.704V38.296Z" fill="#352F2F" fill-opacity="0.27" stroke="#0B73D3"/>
  <path d="M48.0227 118H46.3264L39.884 108.139V118H38.1877V105.203H39.884L46.3439 115.108V105.203H48.0227V118ZM57.5911 118.176C56.3021 118.176 55.2532 117.754 54.4446 116.91C53.6361 116.061 53.2318 114.927 53.2318 113.509V113.21C53.2318 112.267 53.4105 111.426 53.7679 110.688C54.1312 109.943 54.6351 109.363 55.2796 108.947C55.93 108.525 56.6331 108.314 57.389 108.314C58.6253 108.314 59.5863 108.722 60.2718 109.536C60.9573 110.351 61.3001 111.517 61.3001 113.034V113.711H54.8577C54.8812 114.648 55.1536 115.407 55.6751 115.987C56.2025 116.562 56.8704 116.849 57.679 116.849C58.2532 116.849 58.7396 116.731 59.138 116.497C59.5364 116.263 59.8851 115.952 60.1839 115.565L61.1771 116.339C60.3802 117.563 59.1849 118.176 57.5911 118.176ZM57.389 109.65C56.7327 109.65 56.182 109.891 55.7366 110.371C55.2913 110.846 55.0159 111.514 54.9105 112.375H59.6741V112.252C59.6273 111.426 59.4046 110.787 59.0062 110.336C58.6077 109.879 58.0687 109.65 57.389 109.65ZM71.6069 115.478C71.6069 115.038 71.4399 114.698 71.1059 114.458C70.7778 114.212 70.2006 114.001 69.3745 113.825C68.5541 113.649 67.9008 113.438 67.4145 113.192C66.934 112.946 66.5766 112.653 66.3422 112.313C66.1137 111.974 65.9995 111.569 65.9995 111.101C65.9995 110.321 66.3276 109.662 66.9838 109.123C67.6459 108.584 68.4897 108.314 69.5151 108.314C70.5932 108.314 71.4662 108.593 72.1342 109.149C72.808 109.706 73.145 110.418 73.145 111.285H71.5102C71.5102 110.84 71.3198 110.456 70.9389 110.134C70.5639 109.812 70.0893 109.65 69.5151 109.65C68.9233 109.65 68.4604 109.779 68.1264 110.037C67.7924 110.295 67.6254 110.632 67.6254 111.048C67.6254 111.44 67.7807 111.736 68.0912 111.936C68.4018 112.135 68.9614 112.325 69.77 112.507C70.5844 112.688 71.2436 112.905 71.7475 113.157C72.2514 113.409 72.6235 113.714 72.8637 114.071C73.1098 114.423 73.2329 114.854 73.2329 115.363C73.2329 116.213 72.893 116.896 72.2133 117.411C71.5336 117.921 70.6518 118.176 69.5678 118.176C68.8061 118.176 68.1323 118.041 67.5463 117.771C66.9604 117.502 66.5004 117.127 66.1664 116.646C65.8383 116.16 65.6743 115.636 65.6743 115.073H67.3002C67.3295 115.618 67.5463 116.052 67.9506 116.374C68.3608 116.69 68.8998 116.849 69.5678 116.849C70.183 116.849 70.6752 116.726 71.0444 116.479C71.4194 116.228 71.6069 115.894 71.6069 115.478ZM80.4371 106.188V108.49H82.2125V109.747H80.4371V115.645C80.4371 116.025 80.5162 116.312 80.6744 116.506C80.8326 116.693 81.1021 116.787 81.483 116.787C81.6705 116.787 81.9283 116.752 82.2564 116.682V118C81.8287 118.117 81.4127 118.176 81.0084 118.176C80.2818 118.176 79.7339 117.956 79.3648 117.517C78.9957 117.077 78.8111 116.453 78.8111 115.645V109.747H77.0796V108.49H78.8111V106.188H80.4371ZM92.6159 105.203H94.3122V114.265C94.3122 115.489 93.943 116.447 93.2048 117.139C92.4723 117.83 91.4938 118.176 90.2692 118.176C88.9977 118.176 88.0075 117.851 87.2985 117.2C86.5895 116.55 86.235 115.639 86.235 114.467H87.9225C87.9225 115.199 88.1218 115.771 88.5202 116.181C88.9245 116.591 89.5075 116.796 90.2692 116.796C90.9665 116.796 91.529 116.576 91.9567 116.137C92.3903 115.697 92.61 115.082 92.6159 114.291V105.203ZM105.348 115.478C105.348 115.038 105.181 114.698 104.847 114.458C104.519 114.212 103.942 114.001 103.116 113.825C102.296 113.649 101.642 113.438 101.156 113.192C100.676 112.946 100.318 112.653 100.084 112.313C99.8553 111.974 99.741 111.569 99.741 111.101C99.741 110.321 100.069 109.662 100.725 109.123C101.388 108.584 102.231 108.314 103.257 108.314C104.335 108.314 105.208 108.593 105.876 109.149C106.55 109.706 106.887 110.418 106.887 111.285H105.252C105.252 110.84 105.061 110.456 104.68 110.134C104.305 109.812 103.831 109.65 103.257 109.65C102.665 109.65 102.202 109.779 101.868 110.037C101.534 110.295 101.367 110.632 101.367 111.048C101.367 111.44 101.522 111.736 101.833 111.936C102.143 112.135 102.703 112.325 103.512 112.507C104.326 112.688 104.985 112.905 105.489 113.157C105.993 113.409 106.365 113.714 106.605 114.071C106.851 114.423 106.974 114.854 106.974 115.363C106.974 116.213 106.635 116.896 105.955 117.411C105.275 117.921 104.393 118.176 103.309 118.176C102.548 118.176 101.874 118.041 101.288 117.771C100.702 117.502 100.242 117.127 99.908 116.646C99.5799 116.16 99.4158 115.636 99.4158 115.073H101.042C101.071 115.618 101.288 116.052 101.692 116.374C102.102 116.69 102.641 116.849 103.309 116.849C103.925 116.849 104.417 116.726 104.786 116.479C105.161 116.228 105.348 115.894 105.348 115.478Z" fill="url(#paint0_linear)"/>
  <path fill-rule="evenodd" clip-rule="evenodd" d="M75.8393 22.5C75.3109 22.5074 74.7871 22.6003 74.2883 22.775C78.7296 25.6955 73.4908 29.925 75.9383 33.5C75.7697 32.2975 75.961 31.072 76.4881 29.9782C77.0152 28.8843 77.8545 27.9711 78.9001 27.3538C79.6838 26.702 80.1871 26.4683 80.0193 25.3903C79.7471 23.6248 77.3931 22.5 75.8393 22.5ZM82.1643 23.6385C81.5511 26.7268 80.7893 26.8395 78.5261 28.8278C77.6433 29.5237 77.0204 30.4964 76.7575 31.5893C76.4946 32.6822 76.6071 33.8318 77.0768 34.853C67.7268 31.223 55.7423 29.0285 46.9561 35.3095C43.7963 37.5672 41.8686 40.8095 37.9718 42.1322C35.4528 42.9957 32.9778 42.74 31.3993 45.237C30.822 45.958 30.5205 46.8611 30.5487 47.7844C30.5769 48.7076 30.9331 49.5906 31.5533 50.275C32.0236 50.7563 32.9283 51.0642 33.3023 51.5537C33.5196 51.8287 33.5141 52.1037 33.7203 52.4695C34.0848 53.3219 34.6116 54.0952 35.2713 54.7465C35.6756 55.0792 37.0643 55.4037 37.3008 55.7585C37.5978 56.2012 36.8278 57.9585 37.4741 58.2335C37.9086 58.4343 39.1818 56.1875 39.3056 55.9895C39.0526 57.7578 38.7198 60.8955 40.7081 58.283C41.6513 57.0428 41.7091 56.633 43.2958 56.358C44.3113 56.1816 45.3376 56.075 46.3676 56.039C52.2518 55.8331 57.9908 57.8922 62.402 61.7918C66.8132 65.6914 69.5607 71.1345 70.0781 76.9995C69.7811 75.6245 67.9853 73.4245 66.3133 73.947C65.6011 74.167 65.3371 75.3962 64.8696 76.1085C64.2785 77.0116 63.5502 77.817 62.7108 78.4955C62.8529 77.1623 62.7861 75.8151 62.5128 74.5025C62.0123 76.5595 61.0086 79.9722 58.4813 79.4195C57.6394 79.291 56.8506 78.9284 56.2049 78.3731C55.5592 77.8178 55.0825 77.0922 54.8293 76.279C54.5021 74.189 56.7103 71.7387 53.1601 71.5655C46.0376 71.2162 47.6848 81.691 51.8896 84.4218C50.9232 84.5287 49.9806 84.7915 49.0983 85.2C51.7693 86.7512 54.7789 87.6262 57.8652 87.7489C60.9514 87.8715 64.021 87.2382 66.8066 85.9039C69.5923 84.5696 72.0097 82.5748 73.8485 80.0931C75.6874 77.6114 76.8919 74.718 77.3573 71.6645C77.9694 74.4609 77.9553 77.358 77.3161 80.1482C76.9744 81.631 76.4632 83.0696 75.7926 84.4355C74.8836 86.2805 73.6756 87.9623 72.2176 89.413C71.3541 90.2683 69.7701 91.129 69.2256 92.0008C72.5585 91.5589 75.8154 90.6632 78.9056 89.3388C75.7067 93.7204 71.4465 97.217 66.5251 99.5C71.8017 99.1267 76.9025 97.4459 81.3673 94.609C85.8322 91.7722 89.5206 87.8686 92.1001 83.2502C91.278 87.8691 89.4521 92.2512 86.7513 96.0873C90.3839 93.6554 93.4744 90.4987 95.8288 86.8154C98.1832 83.1322 99.7506 79.0019 100.433 74.684C101.11 77.8448 101.304 81.0901 101.007 84.309C103.991 80.1627 106.007 75.3997 106.906 70.371C107.805 65.3423 107.565 60.1759 106.202 55.2525C105.16 51.4252 103.597 47.7591 101.557 44.357C100.77 43.0314 99.9076 41.7515 98.9751 40.5235C98.6093 40.0477 96.6541 38.307 96.6541 37.7735C96.6376 37.8267 96.6238 37.8267 96.6128 37.7735C96.6128 46.7055 86.9878 52.4393 78.9276 50.0468C81.9925 49.809 84.8893 48.5512 87.1554 46.474C89.4215 44.3968 90.9262 41.6201 91.4291 38.5875C91.8744 35.4059 91.1917 32.1688 89.4993 29.4381C87.8069 26.7074 85.2118 24.6554 82.1643 23.6385V23.6385Z" fill="url(#paint1_linear)"/>
<defs>
<linearGradient id="paint0_linear" x1="72.2822" y1="100.503" x2="72.2822" y2="121.095" gradientUnits="userSpaceOnUse">
<stop stop-color="#5190FE"/>
<stop offset="1" stop-color="#E28AFF"/>
</linearGradient>
<linearGradient id="paint1_linear" x1="68.9931" y1="20.6769" x2="68.9931" y2="96.1805" gradientUnits="userSpaceOnUse">
<stop stop-color="#5190FE"/>
<stop offset="1" stop-color="#E28AFF"/>
</linearGradient>
</defs>
</svg>
