<svg viewBox="0 0 139 152" xmlns="http://www.w3.org/2000/svg">
<path d="M0.5 38.296L69.282 0.57027L138.064 38.296V113.704L69.282 151.43L0.5 113.704V38.296Z" fill="#352F2F" fill-opacity="0.27" stroke="#0B73D3"/>
<path d="M38.6071 64.2537H60.6743V65.4211H40.6299V74.2077H59.479V75.3751H40.6299V85.0219H60.9042V86.1894H38.6071V64.2537ZM62.6512 64.2537H64.9959L75.3859 73.9005L86.0057 64.2537L100.45 52L76.7191 74.9143L88.948 86.1894H86.5114L75.3859 75.9281L64.2143 86.1894H61.8237L74.1446 74.9143L62.6512 64.2537ZM89.8215 65.4211V64.2537H114.969V65.4211H103.384V86.1894H101.361V65.4211H89.8215ZM11 64.2537H13.5285L48.3957 98.9824L33.9867 86.1894L13.1148 65.9127L13.0228 86.1894H11V64.2537ZM114.765 84.6696C114.352 84.6696 114.042 84.4565 114.042 84.181C114.042 83.9056 114.352 83.6925 114.765 83.6925C115.183 83.6925 115.488 83.9056 115.488 84.181C115.488 84.4565 115.183 84.6696 114.765 84.6696ZM116.753 83.3842H117.835C117.85 83.7744 118.278 84.0368 118.908 84.0368C119.611 84.0368 120.01 83.7548 120.01 83.2268V79.8822H121.112V83.2301C121.112 84.181 120.285 84.7287 118.918 84.7287C117.634 84.7287 116.753 84.1974 116.753 83.3842ZM122.554 83.3416H123.646C123.739 83.7908 124.399 84.0761 125.348 84.0761C126.234 84.0761 126.883 83.7712 126.883 83.3514C126.883 82.9907 126.47 82.7743 125.53 82.6268L124.615 82.4792C123.331 82.2792 122.745 81.866 122.745 81.1708C122.745 80.3281 123.779 79.7674 125.328 79.7674C126.77 79.7674 127.823 80.3281 127.887 81.1249H126.814C126.711 80.6888 126.14 80.4166 125.314 80.4166C124.443 80.4166 123.862 80.6954 123.862 81.1217C123.862 81.4594 124.236 81.6529 125.161 81.7971L125.943 81.925C127.4 82.1513 128 82.5448 128 83.2563C128 84.1614 126.947 84.7287 125.264 84.7287C123.69 84.7287 122.632 84.1876 122.554 83.3416Z" fill="url(#paint0_linear)"/>
<defs>
<linearGradient id="paint0_linear" x1="69.5" y1="50.8876" x2="69.5" y2="96.9569" gradientUnits="userSpaceOnUse">
<stop stop-color="#5190FE"/>
<stop offset="1" stop-color="#E28AFF"/>
</linearGradient>
</defs>
</svg>
