<svg viewBox="0 0 139 152" xmlns="http://www.w3.org/2000/svg">
<path d="M0.5 38.296L69.282 0.57027L138.064 38.296V113.704L69.282 151.43L0.5 113.704V38.296Z" fill="#352F2F" fill-opacity="0.27" stroke="#0B73D3"/>
  <path d="M17.6814 104.269V109H16.0876V96.9141H20.5452C21.8677 96.9141 22.9026 97.2516 23.6496 97.9268C24.4023 98.6019 24.7786 99.4956 24.7786 100.608C24.7786 101.781 24.4106 102.686 23.6745 103.322C22.9441 103.953 21.8954 104.269 20.5286 104.269H17.6814ZM17.6814 102.965H20.5452C21.3974 102.965 22.0504 102.766 22.5041 102.368C22.9579 101.964 23.1848 101.383 23.1848 100.625C23.1848 99.9051 22.9579 99.3296 22.5041 98.8979C22.0504 98.4663 21.4278 98.2422 20.6365 98.2256H17.6814V102.965ZM28.7686 104.426C28.7686 103.546 28.9401 102.755 29.2832 102.052C29.6319 101.349 30.1133 100.807 30.7276 100.425C31.3473 100.043 32.0529 99.8525 32.8443 99.8525C34.0672 99.8525 35.055 100.276 35.8076 101.123C36.5658 101.969 36.9448 103.095 36.9448 104.501V104.609C36.9448 105.483 36.7761 106.269 36.4385 106.966C36.1065 107.658 35.6278 108.198 35.0025 108.585C34.3827 108.972 33.6688 109.166 32.8609 109.166C31.6434 109.166 30.6556 108.743 29.8975 107.896C29.1449 107.049 28.7686 105.929 28.7686 104.534V104.426ZM30.3125 104.609C30.3125 105.605 30.5422 106.405 31.0015 107.008C31.4663 107.611 32.0861 107.913 32.8609 107.913C33.6411 107.913 34.2609 107.608 34.7202 107C35.1795 106.385 35.4092 105.528 35.4092 104.426C35.4092 103.441 35.174 102.644 34.7036 102.036C34.2388 101.421 33.619 101.114 32.8443 101.114C32.0861 101.114 31.4746 101.416 31.0098 102.019C30.5449 102.622 30.3125 103.486 30.3125 104.609ZM46.8201 106.618C46.8201 106.203 46.6624 105.882 46.347 105.655C46.0371 105.422 45.492 105.223 44.7117 105.057C43.937 104.891 43.32 104.692 42.8606 104.459C42.4069 104.227 42.0693 103.95 41.8479 103.629C41.6321 103.308 41.5242 102.927 41.5242 102.484C41.5242 101.748 41.8341 101.125 42.4539 100.616C43.0792 100.107 43.8761 99.8525 44.8445 99.8525C45.8628 99.8525 46.6873 100.115 47.3182 100.641C47.9546 101.167 48.2728 101.839 48.2728 102.658H46.7288C46.7288 102.238 46.549 101.875 46.1893 101.571C45.8351 101.266 45.3868 101.114 44.8445 101.114C44.2856 101.114 43.8484 101.236 43.533 101.479C43.2176 101.723 43.0599 102.041 43.0599 102.434C43.0599 102.805 43.2065 103.084 43.4998 103.272C43.7931 103.461 44.3216 103.64 45.0853 103.812C45.8545 103.984 46.477 104.188 46.9529 104.426C47.4288 104.664 47.7802 104.952 48.0071 105.29C48.2395 105.622 48.3558 106.028 48.3558 106.51C48.3558 107.312 48.0348 107.957 47.3929 108.444C46.7509 108.925 45.9181 109.166 44.8943 109.166C44.1749 109.166 43.5385 109.039 42.9852 108.784C42.4318 108.53 41.9974 108.175 41.6819 107.722C41.372 107.262 41.2171 106.767 41.2171 106.236H42.7527C42.7804 106.75 42.9852 107.16 43.367 107.464C43.7544 107.763 44.2635 107.913 44.8943 107.913C45.4754 107.913 45.9402 107.796 46.2889 107.564C46.643 107.326 46.8201 107.011 46.8201 106.618ZM55.1597 97.8438V100.019H56.8365V101.206H55.1597V106.775C55.1597 107.135 55.2345 107.406 55.3839 107.589C55.5333 107.766 55.7878 107.854 56.1475 107.854C56.3246 107.854 56.5681 107.821 56.878 107.755V109C56.474 109.111 56.0811 109.166 55.6993 109.166C55.0131 109.166 54.4957 108.958 54.147 108.543C53.7984 108.128 53.6241 107.539 53.6241 106.775V101.206H51.9888V100.019H53.6241V97.8438H55.1597ZM60.9925 104.435C60.9925 103.035 61.3163 101.922 61.9637 101.098C62.6112 100.268 63.4689 99.8525 64.537 99.8525C65.6327 99.8525 66.4877 100.24 67.1019 101.015L67.1766 100.019H68.5795V108.784C68.5795 109.946 68.2336 110.862 67.5419 111.532C66.8557 112.201 65.9315 112.536 64.7694 112.536C64.1219 112.536 63.4883 112.398 62.8685 112.121C62.2487 111.844 61.7756 111.465 61.4491 110.984L62.246 110.062C62.9045 110.876 63.7097 111.283 64.6615 111.283C65.4086 111.283 65.9896 111.072 66.4046 110.652C66.8252 110.231 67.0355 109.639 67.0355 108.875V108.104C66.4212 108.812 65.5829 109.166 64.5204 109.166C63.4689 109.166 62.6167 108.743 61.9637 107.896C61.3163 107.049 60.9925 105.896 60.9925 104.435ZM62.5365 104.609C62.5365 105.622 62.744 106.418 63.159 107C63.5741 107.575 64.1551 107.863 64.9022 107.863C65.8706 107.863 66.5817 107.423 67.0355 106.543V102.442C66.5651 101.585 65.8596 101.156 64.9188 101.156C64.1717 101.156 63.5879 101.446 63.1673 102.027C62.7468 102.608 62.5365 103.469 62.5365 104.609ZM77.965 101.396C77.7326 101.358 77.4808 101.338 77.2096 101.338C76.2024 101.338 75.519 101.767 75.1593 102.625V109H73.6237V100.019H75.1178L75.1427 101.056C75.6463 100.254 76.3602 99.8525 77.2843 99.8525C77.5831 99.8525 77.81 99.8913 77.965 99.9688V101.396ZM85.6655 109.166C84.448 109.166 83.4574 108.768 82.6938 107.971C81.9301 107.168 81.5483 106.097 81.5483 104.758V104.476C81.5483 103.585 81.717 102.791 82.0546 102.094C82.3977 101.391 82.8736 100.843 83.4823 100.45C84.0966 100.052 84.7607 99.8525 85.4745 99.8525C86.6422 99.8525 87.5497 100.237 88.1972 101.006C88.8447 101.776 89.1684 102.877 89.1684 104.31V104.949H83.0839C83.106 105.835 83.3634 106.551 83.8559 107.099C84.3539 107.641 84.9848 107.913 85.7485 107.913C86.2908 107.913 86.7501 107.802 87.1264 107.581C87.5027 107.359 87.832 107.066 88.1142 106.701L89.0522 107.431C88.2996 108.588 87.1707 109.166 85.6655 109.166ZM85.4745 101.114C84.8547 101.114 84.3346 101.341 83.914 101.795C83.4934 102.243 83.2333 102.874 83.1337 103.688H87.6327V103.571C87.5885 102.791 87.3782 102.188 87.0019 101.762C86.6256 101.33 86.1165 101.114 85.4745 101.114ZM97.4748 103.613C96.1079 103.22 95.1119 102.738 94.4865 102.168C93.8667 101.593 93.5568 100.885 93.5568 100.043C93.5568 99.0916 93.9359 98.3058 94.694 97.686C95.4577 97.0607 96.4483 96.748 97.6657 96.748C98.4958 96.748 99.2346 96.9085 99.882 97.2295C100.535 97.5505 101.039 97.9932 101.393 98.5576C101.752 99.1221 101.932 99.7391 101.932 100.409H100.33C100.33 99.6782 100.098 99.1055 99.633 98.6904C99.1682 98.2699 98.5124 98.0596 97.6657 98.0596C96.8799 98.0596 96.2657 98.2339 95.823 98.5825C95.3858 98.9256 95.1672 99.4043 95.1672 100.019C95.1672 100.511 95.3747 100.929 95.7897 101.272C96.2103 101.61 96.9214 101.919 97.923 102.202C98.9302 102.484 99.716 102.797 100.28 103.14C100.85 103.477 101.271 103.873 101.542 104.327C101.819 104.78 101.957 105.314 101.957 105.929C101.957 106.908 101.575 107.694 100.812 108.286C100.048 108.873 99.0271 109.166 97.7487 109.166C96.9187 109.166 96.1439 109.008 95.4245 108.693C94.7051 108.372 94.149 107.935 93.7561 107.381C93.3687 106.828 93.175 106.2 93.175 105.497H94.7771C94.7771 106.228 95.0454 106.806 95.5822 107.232C96.1245 107.653 96.8467 107.863 97.7487 107.863C98.5899 107.863 99.2346 107.691 99.6828 107.348C100.131 107.005 100.355 106.537 100.355 105.945C100.355 105.353 100.148 104.897 99.7326 104.576C99.3176 104.249 98.565 103.928 97.4748 103.613ZM115.958 103.347C115.958 104.515 115.773 105.522 115.402 106.369C115.031 107.21 114.511 107.868 113.841 108.344L115.999 110.038L114.912 111.042L112.364 109.017C111.965 109.116 111.545 109.166 111.102 109.166C110.15 109.166 109.306 108.934 108.57 108.469C107.834 107.998 107.262 107.332 106.852 106.468C106.448 105.599 106.241 104.595 106.229 103.455V102.583C106.229 101.421 106.431 100.395 106.835 99.5039C107.239 98.613 107.809 97.9323 108.545 97.4619C109.287 96.986 110.134 96.748 111.085 96.748C112.059 96.748 112.914 96.9832 113.65 97.4536C114.392 97.924 114.962 98.6019 115.36 99.4873C115.759 100.367 115.958 101.396 115.958 102.575V103.347ZM114.364 102.567C114.364 101.145 114.079 100.049 113.509 99.2798C112.945 98.505 112.137 98.1177 111.085 98.1177C110.084 98.1177 109.292 98.5023 108.711 99.2715C108.136 100.035 107.84 101.098 107.823 102.459V103.347C107.823 104.731 108.111 105.821 108.687 106.618C109.268 107.415 110.073 107.813 111.102 107.813C112.131 107.813 112.928 107.439 113.493 106.692C114.057 105.94 114.348 104.863 114.364 103.463V102.567ZM122.737 107.697H128.465V109H121.135V96.9141H122.737V107.697Z" fill="url(#paint0_linear)"/>
  <path d="M97.335 68.1806C89.6677 69.7142 89.1406 67.1969 89.1406 67.1969C97.2361 55.5486 100.62 40.7629 97.6998 37.1441C89.7325 27.2729 75.9408 31.9413 75.7106 32.0626L75.6366 32.0754C74.1218 31.7705 72.4265 31.5888 70.5212 31.5587C67.0518 31.5035 64.4202 32.4406 62.4233 33.9091C62.4233 33.9091 37.8202 24.0807 38.9645 46.2701C39.2079 50.9907 45.9419 81.9885 53.9739 72.6257C56.9096 69.2021 59.7461 66.3073 59.7461 66.3073C61.155 67.2148 62.8416 67.6777 64.6097 67.5115L64.747 67.3984C64.7043 67.8235 64.7239 68.2393 64.802 68.7314C62.7329 70.9732 63.3409 71.3668 59.2045 72.1925C55.0191 73.0289 57.4779 74.518 59.0832 74.9072C61.0294 75.3792 65.5319 76.0477 68.5741 71.918L68.4528 72.3892C69.2635 73.0189 69.8328 76.4851 69.7374 79.6271C69.642 82.7693 69.5783 84.9265 70.2171 86.6115C70.8559 88.2965 71.4926 92.0877 76.9302 90.9579C81.4738 90.0137 83.8283 87.567 84.1559 83.4856C84.3883 80.584 84.9144 81.0129 84.9476 78.4188L85.3695 77.1907C85.856 73.2574 85.4468 71.9885 88.2461 72.5787L88.9263 72.6366C90.9867 72.7275 93.6832 72.3153 95.2658 71.602C98.6738 70.0684 100.695 67.5078 97.3347 68.1806H97.335Z" fill="url(#paint1_linear)"/>
<path d="M63.8634 48.3812C63.1726 48.288 62.5468 48.3743 62.2302 48.6066C62.052 48.7374 61.997 48.889 61.9822 48.9933C61.9424 49.2696 62.1421 49.5749 62.2646 49.7325C62.6116 50.1784 63.1185 50.485 63.6203 50.5525C63.693 50.5623 63.7653 50.567 63.8372 50.567C64.674 50.567 65.4346 49.9353 65.5017 49.4689C65.5855 48.885 64.7112 48.4956 63.8634 48.3812Z" fill="#155EA1"/>
<path d="M86.7531 48.3997H86.753C86.6871 47.942 85.847 47.8115 85.0498 47.9189C84.2538 48.0265 83.4818 48.3749 83.5463 48.8337C83.5981 49.1905 84.2622 49.7996 85.0487 49.7994C85.115 49.7994 85.1821 49.7952 85.2496 49.786C85.7746 49.7155 86.1597 49.3922 86.3426 49.2059C86.6214 48.9221 86.7825 48.6055 86.7531 48.3997Z" fill="#155EA1"/>
<path d="M99.8863 68.0063C99.5939 67.149 98.653 66.8731 97.0896 67.1863C92.4477 68.1152 90.7853 67.4717 90.2393 67.0819C93.8475 61.7517 96.8157 55.309 98.4169 49.2976C99.1755 46.4501 99.5945 43.8057 99.6287 41.6504C99.6665 39.2843 99.2511 37.546 98.3941 36.484C94.9387 32.2027 89.8677 29.9062 83.7291 29.8431C79.5091 29.7971 75.9435 30.8445 75.2523 31.1389C73.7966 30.7879 72.2097 30.5724 70.4823 30.5449C67.3141 30.4952 64.5758 31.2307 62.3085 32.7297C61.3237 32.3744 58.7785 31.5272 55.6661 31.041C50.2849 30.2008 46.009 30.8374 42.9574 32.9337C39.3163 35.4352 37.6353 39.9066 37.9611 46.2235C38.0707 48.349 39.3193 54.8869 41.2902 61.1482C43.8843 69.3892 46.704 74.0545 49.6711 75.0141C50.0183 75.1264 50.4189 75.205 50.8603 75.205C51.9427 75.205 53.2696 74.7319 54.6502 73.1224C56.9435 70.4472 59.0846 68.2054 59.8738 67.3908C61.0402 67.998 62.3213 68.3369 63.632 68.3709C63.6343 68.4042 63.6378 68.4374 63.6409 68.4706C63.3779 68.773 63.1622 69.038 62.9784 69.2643C62.0704 70.382 61.8814 70.6146 58.9585 71.1983C58.1272 71.3646 55.9187 71.8059 55.8865 73.3069C55.8513 74.9468 58.4967 75.6356 58.7982 75.7086C59.8485 75.9636 60.8603 76.0894 61.8253 76.0894C64.1724 76.0892 66.2376 75.3413 67.8882 73.8941C67.8373 79.7406 68.0888 85.5016 68.8126 87.257C69.4054 88.6938 70.8539 92.2057 75.4293 92.2054C76.1004 92.2054 76.8395 92.1297 77.6524 91.9608C82.4272 90.968 84.5007 88.9216 85.3029 84.41C85.7321 81.9988 86.4688 76.2409 86.8151 73.1525C87.5463 73.3736 88.4876 73.4748 89.5052 73.4747C91.6276 73.4747 94.0765 73.0375 95.6123 72.3462C97.3374 71.5693 100.451 69.6626 99.8863 68.0063ZM88.5152 47.1361C88.4994 48.0479 88.37 48.8756 88.2328 49.7397C88.0852 50.6689 87.9325 51.6297 87.8941 52.796C87.8562 53.931 88.0023 55.1111 88.1438 56.2522C88.4294 58.5571 88.7225 60.9301 87.5877 63.2716C87.4114 62.9679 87.2411 62.6365 87.085 62.2695C86.944 61.938 86.6378 61.4054 86.2139 60.6683C84.5641 57.7994 80.7007 51.081 82.6784 48.3395C83.2674 47.5233 84.7624 46.6845 88.5152 47.1361ZM83.9664 31.6895C89.4665 31.8073 93.8172 33.8025 96.8977 37.6195C99.2603 40.5472 96.6587 53.8689 89.1272 65.3616C89.0528 65.27 88.9771 65.1774 88.8987 65.0825C88.8675 65.0446 88.8356 65.006 88.8035 64.967C90.7496 61.8502 90.369 58.7665 90.0303 56.0324C89.8912 54.9104 89.7598 53.8506 89.7932 52.8553C89.8278 51.8 89.9717 50.8952 90.1107 50.0202C90.2818 48.9418 90.4558 47.8262 90.4077 46.5109C90.4436 46.373 90.458 46.2099 90.4393 46.0165C90.3167 44.7551 88.8318 40.9806 85.805 37.5637C84.1495 35.6952 81.7349 33.6039 78.4383 32.1933C79.8563 31.9084 81.7954 31.6426 83.9664 31.6895ZM53.1892 71.9444C51.6682 73.7178 50.6177 73.378 50.2723 73.2664C48.0214 72.5383 45.4099 67.9254 43.1074 60.6104C41.115 54.2809 39.9507 47.9162 39.8586 46.1314C39.5676 40.487 40.9786 36.5532 44.0526 34.4393C49.0552 30.9991 57.28 33.0582 60.5849 34.1026C60.5373 34.1479 60.4879 34.1905 60.4408 34.2366C55.0177 39.5477 55.1464 48.6218 55.1596 49.1764C55.1592 49.3904 55.1776 49.6934 55.2031 50.1102C55.2964 51.6363 55.47 54.4769 55.0061 57.6937C54.5749 60.683 55.5251 63.6088 57.6128 65.7209C57.8289 65.9395 58.0545 66.1448 58.2875 66.338C57.3582 67.303 55.3387 69.4369 53.1892 71.9444ZM58.9846 64.4461C57.302 62.7438 56.5379 60.3758 56.8878 57.9488C57.3777 54.5506 57.1968 51.5911 57.0997 50.0012C57.0861 49.7787 57.0741 49.5838 57.0669 49.4299C57.8592 48.7488 61.5307 46.8411 64.1489 47.4228C65.3439 47.6883 66.0717 48.4771 66.3744 49.8343C67.9411 56.8599 66.5819 59.7883 65.4898 62.1414C65.2646 62.6262 65.052 63.0844 64.8703 63.5585L64.7296 63.9249C64.3733 64.8515 64.0417 65.7129 63.8363 66.531C62.0477 66.5257 60.3076 65.7849 58.9846 64.4461ZM59.2591 73.9212C58.7369 73.7947 58.2671 73.5749 57.9915 73.3926C58.2217 73.2875 58.6314 73.1448 59.3419 73.0029C62.7804 72.3163 63.3113 71.832 64.471 70.4041C64.7369 70.0769 65.0383 69.7058 65.4556 69.2538C65.4558 69.2535 65.4559 69.2533 65.4561 69.2532C66.0778 68.5783 66.3621 68.6927 66.8778 68.9001C67.2957 69.0678 67.7027 69.5757 67.8678 70.1347C67.9458 70.3987 68.0336 70.8999 67.7466 71.2897C65.3241 74.5786 61.7942 74.5364 59.2591 73.9212ZM77.2541 90.1593C73.0476 91.0333 71.5583 88.952 70.5768 86.5728C69.9433 85.0366 69.6321 78.11 69.8529 70.4609C69.8558 70.3591 69.8409 70.2608 69.8119 70.1684C69.7868 69.99 69.7481 69.8095 69.6944 69.6279C69.3658 68.5149 68.5654 67.5839 67.6051 67.1979C67.2236 67.0447 66.5232 66.7634 65.6817 66.9721C65.8612 66.2551 66.1725 65.4456 66.5098 64.5688L66.6514 64.1998C66.8108 63.7841 67.0107 63.3534 67.2222 62.8975C68.3651 60.4354 69.9304 57.0632 68.2316 49.4448C67.5952 46.5914 65.4704 45.1981 62.2492 45.5216C60.318 45.7154 58.5514 46.471 57.6702 46.9042C57.4808 46.9973 57.3075 47.0872 57.1456 47.1748C57.3914 44.2997 58.3208 38.9268 61.7967 35.5274C63.985 33.3872 66.8997 32.3302 70.4509 32.3871C77.448 32.4983 81.9349 35.9803 84.4671 38.8819C86.6491 41.3823 87.8307 43.9009 88.3023 45.2592C84.7561 44.9097 82.3443 45.5886 81.1216 47.2835C78.4617 50.9703 82.5768 58.1265 84.5545 61.5656C84.9171 62.196 85.2302 62.7407 85.3286 62.9722C85.9726 64.4857 86.8064 65.4961 87.4152 66.2338C87.6018 66.4598 87.7828 66.679 87.9205 66.8704C86.8465 67.1707 84.9172 67.8644 85.093 71.3321C84.9512 73.0722 83.9428 81.2187 83.4306 84.0969C82.7545 87.8994 81.3115 89.3158 77.2541 90.1593ZM94.8122 70.6751C93.714 71.1695 91.8761 71.5403 90.13 71.6199C88.2015 71.7075 87.2199 71.4104 86.989 71.2277C86.8805 69.0668 87.7101 68.841 88.5879 68.6019C88.7259 68.5643 88.8605 68.5278 88.9903 68.4837C89.0711 68.5474 89.1595 68.6107 89.2563 68.6726C90.8063 69.6647 93.571 69.7717 97.4739 68.9905C97.4882 68.9876 97.5025 68.9849 97.5167 68.9821C96.9904 69.4594 96.0895 70.1 94.8122 70.6751Z" fill="#155EA1"/>
<defs>
<linearGradient id="paint0_linear" x1="71.7822" y1="92.5265" x2="71.7822" y2="112.138" gradientUnits="userSpaceOnUse">
<stop stop-color="#5190FE"/>
<stop offset="1" stop-color="#E28AFF"/>
</linearGradient>
<linearGradient id="paint1_linear" x1="68.9918" y1="29.4266" x2="68.9918" y2="88.5647" gradientUnits="userSpaceOnUse">
<stop stop-color="#5190FE"/>
<stop offset="1" stop-color="#E28AFF"/>
</linearGradient>
</defs>
</svg>
