<svg viewBox="0 0 139 152" xmlns="http://www.w3.org/2000/svg">
<path d="M0.5 38.296L69.282 0.57027L138.064 38.296V113.704L69.282 151.43L0.5 113.704V38.296Z" fill="#352F2F" fill-opacity="0.27" stroke="#0B73D3"/>
  <path d="M46.8318 112.823H43.8259V118H42.1296V105.203H46.366C47.8074 105.203 48.9148 105.531 49.6882 106.188C50.4675 106.844 50.8572 107.799 50.8572 109.053C50.8572 109.85 50.6404 110.544 50.2068 111.136C49.7791 111.728 49.1814 112.17 48.4138 112.463L51.4197 117.895V118H49.6091L46.8318 112.823ZM43.8259 111.443H46.4187C47.2566 111.443 47.9216 111.227 48.4138 110.793C48.9119 110.359 49.1609 109.779 49.1609 109.053C49.1609 108.262 48.9236 107.655 48.449 107.233C47.9802 106.812 47.3005 106.598 46.4099 106.592H43.8259V111.443ZM59.8016 118.176C58.5126 118.176 57.4637 117.754 56.6552 116.91C55.8466 116.061 55.4423 114.927 55.4423 113.509V113.21C55.4423 112.267 55.621 111.426 55.9784 110.688C56.3417 109.943 56.8456 109.363 57.4901 108.947C58.1405 108.525 58.8436 108.314 59.5995 108.314C60.8358 108.314 61.7968 108.722 62.4823 109.536C63.1679 110.351 63.5106 111.517 63.5106 113.034V113.711H57.0682C57.0917 114.648 57.3641 115.407 57.8856 115.987C58.413 116.562 59.0809 116.849 59.8895 116.849C60.4637 116.849 60.9501 116.731 61.3485 116.497C61.747 116.263 62.0956 115.952 62.3944 115.565L63.3876 116.339C62.5907 117.563 61.3954 118.176 59.8016 118.176ZM59.5995 109.65C58.9432 109.65 58.3925 109.891 57.9471 110.371C57.5018 110.846 57.2264 111.514 57.121 112.375H61.8846V112.252C61.8378 111.426 61.6151 110.787 61.2167 110.336C60.8182 109.879 60.2792 109.65 59.5995 109.65ZM74.1514 118C74.0576 117.812 73.9814 117.479 73.9229 116.998C73.167 117.783 72.2646 118.176 71.2158 118.176C70.2783 118.176 69.5078 117.912 68.9043 117.385C68.3066 116.852 68.0078 116.178 68.0078 115.363C68.0078 114.373 68.3828 113.605 69.1328 113.061C69.8887 112.51 70.9492 112.234 72.3145 112.234H73.8965V111.487C73.8965 110.919 73.7266 110.468 73.3867 110.134C73.0469 109.794 72.5459 109.624 71.8838 109.624C71.3037 109.624 70.8174 109.771 70.4248 110.063C70.0322 110.356 69.8359 110.711 69.8359 111.127H68.2012C68.2012 110.652 68.3682 110.195 68.7021 109.756C69.042 109.311 69.499 108.959 70.0732 108.701C70.6533 108.443 71.2891 108.314 71.9805 108.314C73.0762 108.314 73.9346 108.59 74.5557 109.141C75.1768 109.686 75.499 110.438 75.5225 111.399V115.776C75.5225 116.649 75.6338 117.344 75.8564 117.859V118H74.1514ZM71.4531 116.761C71.9629 116.761 72.4463 116.629 72.9033 116.365C73.3604 116.102 73.6914 115.759 73.8965 115.337V113.386H72.6221C70.6299 113.386 69.6338 113.969 69.6338 115.135C69.6338 115.645 69.8037 116.043 70.1436 116.33C70.4834 116.617 70.9199 116.761 71.4531 116.761ZM84.7657 116.849C85.3458 116.849 85.8527 116.673 86.2862 116.321C86.7198 115.97 86.9601 115.53 87.007 115.003H88.545C88.5157 115.548 88.3282 116.066 87.9825 116.559C87.6368 117.051 87.1739 117.443 86.5939 117.736C86.0196 118.029 85.4103 118.176 84.7657 118.176C83.4708 118.176 82.4396 117.745 81.672 116.884C80.9103 116.017 80.5294 114.833 80.5294 113.333V113.061C80.5294 112.135 80.6993 111.312 81.0392 110.591C81.379 109.87 81.8653 109.311 82.4982 108.912C83.1368 108.514 83.8898 108.314 84.757 108.314C85.8234 108.314 86.7081 108.634 87.4112 109.272C88.1202 109.911 88.4982 110.74 88.545 111.76H87.007C86.9601 111.145 86.7257 110.641 86.3038 110.248C85.8878 109.85 85.3722 109.65 84.757 109.65C83.9308 109.65 83.2892 109.949 82.8321 110.547C82.381 111.139 82.1554 111.997 82.1554 113.122V113.43C82.1554 114.525 82.381 115.369 82.8321 115.961C83.2833 116.553 83.9278 116.849 84.7657 116.849ZM95.4592 106.188V108.49H97.2346V109.747H95.4592V115.645C95.4592 116.025 95.5383 116.312 95.6965 116.506C95.8547 116.693 96.1243 116.787 96.5051 116.787C96.6926 116.787 96.9504 116.752 97.2786 116.682V118C96.8508 118.117 96.4348 118.176 96.0305 118.176C95.3039 118.176 94.7561 117.956 94.387 117.517C94.0178 117.077 93.8332 116.453 93.8332 115.645V109.747H92.1018V108.49H93.8332V106.188H95.4592Z" fill="url(#paint0_linear)"/>
  <path d="M69 70.9688C74.1777 70.9688 78.375 66.7294 78.375 61.5C78.375 56.2706 74.1777 52.0312 69 52.0312C63.8223 52.0312 59.625 56.2706 59.625 61.5C59.625 66.7294 63.8223 70.9688 69 70.9688Z" fill="url(#paint1_linear)"/>
<path d="M109.625 61.5C109.625 55.5694 102.995 50.4263 92.6672 47.3095C93.0125 45.6824 93.3031 44.0822 93.4859 42.5514C94.5125 33.8986 92.7312 27.8386 88.4687 25.4872C84.2047 23.1374 78.1969 24.9001 71.5453 30.452C70.6953 31.1605 69.8469 31.9322 69 32.7402C68.1531 31.9307 67.3047 31.1605 66.4547 30.452C59.8031 24.9001 53.7922 23.1389 49.5313 25.4872C45.2688 27.837 43.4875 33.897 44.5141 42.5514C44.6953 44.0838 44.9875 45.6824 45.3328 47.3095C35.0047 50.4263 28.375 55.5694 28.375 61.5C28.375 67.4306 35.0047 72.5737 45.3328 75.6905C44.9875 77.3175 44.6969 78.9178 44.5141 80.4485C43.4875 89.1014 45.2688 95.1614 49.5313 97.5128C50.7641 98.193 52.1406 98.5275 53.6375 98.5275C57.3203 98.5275 61.7266 96.4965 66.4547 92.5496C67.3047 91.841 68.1531 91.0693 69 90.2613C69.8469 91.0709 70.6953 91.841 71.5453 92.5496C76.2734 96.4965 80.6797 98.5275 84.3625 98.5275C85.8594 98.5275 87.2375 98.1914 88.4687 97.5128C92.7312 95.163 94.5125 89.103 93.4859 80.4485C93.3047 78.9162 93.0125 77.3175 92.6672 75.6905C102.995 72.5737 109.625 67.4306 109.625 61.5ZM73.5344 32.8823C79.05 28.2789 83.9484 26.5903 86.9703 28.2568C89.9922 29.9217 91.2344 34.9954 90.3828 42.1727C90.2188 43.5599 89.9562 45.007 89.65 46.4794C86.3422 45.6604 82.7281 45.0354 78.8813 44.6393C76.4375 41.0491 73.8578 37.7729 71.2125 34.9622C71.9844 34.2268 72.7594 33.5293 73.5344 32.8823ZM81.3422 68.3064C80.0094 70.7715 78.5922 73.1276 77.1203 75.367C74.5406 75.5848 71.8297 75.7031 69 75.7031C66.1703 75.7031 63.4594 75.5848 60.8781 75.367C59.4078 73.126 57.9891 70.7715 56.6563 68.3064C55.4313 66.0418 54.3141 63.7646 53.3094 61.5C54.3141 59.237 55.4313 56.9597 56.6563 54.6935C57.9891 52.2285 59.4063 49.8724 60.8781 47.633C63.4594 47.4152 66.1703 47.2969 69 47.2969C71.8297 47.2969 74.5406 47.4152 77.1219 47.633C78.5922 49.8739 80.0109 52.2285 81.3438 54.6935C82.5688 56.9581 83.6859 59.2354 84.6906 61.5C83.6859 63.763 82.5672 66.0403 81.3422 68.3064ZM86.3094 65.4248C87.3719 68.1691 88.2438 70.8599 88.9281 73.4669C86.5156 74.0603 83.9125 74.5621 81.1016 74.933C82.1281 73.276 83.1328 71.5811 84.0844 69.8183C84.8766 68.3585 85.6078 66.8909 86.3094 65.4248ZM69 85.8079C67.0125 83.6916 65.0594 81.2897 63.1734 78.6858C65.0734 78.7978 67.0156 78.8594 69 78.8594C70.9844 78.8594 72.9266 78.7978 74.8266 78.6858C72.9406 81.2897 70.9875 83.6916 69 85.8079ZM56.8969 74.933C54.0859 74.5621 51.4828 74.0603 49.0703 73.4669C49.7547 70.8599 50.6266 68.1676 51.6891 65.4248C52.3922 66.8924 53.1234 68.3585 53.9125 69.8199C54.8656 71.5811 55.8703 73.276 56.8969 74.933ZM51.6906 57.5752C50.6281 54.8308 49.7563 52.1386 49.0719 49.5331C51.4844 48.9397 54.0875 48.4379 56.8984 48.067C55.8719 49.724 54.8672 51.4189 53.9156 53.1817C53.1234 54.6415 52.3922 56.1091 51.6906 57.5752ZM69 37.1921C70.9875 39.3084 72.9406 41.7103 74.8266 44.3142C72.9266 44.2022 70.9844 44.1406 69 44.1406C67.0156 44.1406 65.0734 44.2022 63.1734 44.3142C65.0594 41.7103 67.0125 39.3084 69 37.1921ZM84.0859 53.1817C83.1344 51.4205 82.1297 49.7256 81.1031 48.067C83.9141 48.4379 86.5172 48.9397 88.9297 49.5331C88.2453 52.1401 87.3734 54.8324 86.3109 57.5752C85.6078 56.1091 84.8766 54.6415 84.0859 53.1817ZM47.6172 42.1743C46.7641 34.9954 48.0078 29.9217 51.0297 28.2584C51.7922 27.837 52.675 27.6319 53.6563 27.6319C56.5625 27.6319 60.3406 29.442 64.4656 32.8839C65.2406 33.5309 66.0172 34.2284 66.7906 34.9654C64.1453 37.776 61.5641 41.0507 59.1219 44.6425C55.2734 45.0386 51.6594 45.6651 48.3531 46.4826C48.0437 45.0086 47.7828 43.5614 47.6172 42.1743ZM31.5 61.5C31.5 57.3969 36.9219 53.1312 46.0578 50.3584C47.0047 53.955 48.3031 57.703 49.9188 61.5C48.3031 65.2985 47.0047 69.0466 46.0578 72.6416C36.9219 69.8688 31.5 65.6031 31.5 61.5ZM64.4656 90.1177C58.95 94.7211 54.0563 96.4128 51.0297 94.7432C48.0078 93.0783 46.7656 88.0046 47.6172 80.8273C47.7813 79.4401 48.0438 77.993 48.35 76.5206C51.6578 77.3396 55.2719 77.9646 59.1188 78.3607C61.5625 81.9509 64.1422 85.2271 66.7875 88.0377C66.0156 88.7732 65.2406 89.4707 64.4656 90.1177ZM90.3828 80.8257C91.2359 88.0046 89.9922 93.0783 86.9703 94.7416C83.9484 96.4129 79.0516 94.7195 73.5344 90.1161C72.7594 89.4691 71.9828 88.7716 71.2094 88.0346C73.8547 85.2239 76.4359 81.9493 78.8781 78.3575C82.7266 77.9614 86.3406 77.3349 89.6469 76.5174C89.9563 77.9914 90.2172 79.4385 90.3828 80.8257ZM91.9422 72.6416C90.9953 69.045 89.6969 65.297 88.0813 61.5C89.6969 57.7014 90.9953 53.9534 91.9422 50.3584C101.078 53.1312 106.5 57.3969 106.5 61.5C106.5 65.6031 101.078 69.8688 91.9422 72.6416Z" fill="url(#paint2_linear)"/>
<defs>
<linearGradient id="paint0_linear" x1="69.2822" y1="100.503" x2="69.2822" y2="121.095" gradientUnits="userSpaceOnUse">
<stop stop-color="#5190FE"/>
<stop offset="1" stop-color="#E28AFF"/>
</linearGradient>
<linearGradient id="paint1_linear" x1="69" y1="50.7893" x2="69" y2="68.9519" gradientUnits="userSpaceOnUse">
<stop stop-color="#6DC7FF"/>
<stop offset="1" stop-color="#E6ABFF"/>
</linearGradient>
<linearGradient id="paint2_linear" x1="69" y1="22.7191" x2="69" y2="95.335" gradientUnits="userSpaceOnUse">
<stop stop-color="#1A6DFF"/>
<stop offset="1" stop-color="#C822FF"/>
</linearGradient>
</defs>
</svg>
